<mxfile host="app.diagrams.net" agent="Mozilla/5.0 (Windows NT 10.0; Win64; x64) AppleWebKit/537.36 (KHTML, like Gecko) Chrome/134.0.0.0 Safari/537.36" version="26.2.5">
  <diagram name="Page-1" id="enkoXHK_hNl_OuBuf8Rj">
    <mxGraphModel dx="1736" dy="462" grid="1" gridSize="10" guides="1" tooltips="1" connect="1" arrows="1" fold="1" page="1" pageScale="1" pageWidth="827" pageHeight="1169" math="0" shadow="0">
      <root>
        <mxCell id="0" />
        <mxCell id="1" parent="0" />
        <mxCell id="KzNhbVtvtu-OdBiYRIAu-1" value="" style="shape=image;verticalLabelPosition=bottom;labelBackgroundColor=default;verticalAlign=top;aspect=fixed;imageAspect=0;image=data:image/png,iVBORw0KGgoAAAANSUhEUgAAA0EAAAJTCAYAAADOlB39AAAAAXNSR0IArs4c6QAAAARnQU1BAACxjwv8YQUAAAAJcEhZcwAADsMAAA7DAcdvqGQAAP+lSURBVHhe7N13eJNVH8bxb9LFpoxC2XtP2XvvJetlKCCITFmKyBJRGSp7KFs2DkQZIggoS/bee++9ukeS94+2aRpaBKUhoffnunqJz3OStk/b5NzPOed3DBaLxYKIiIiIiEgCYbQ/ICIiIiIi8jpTCBIRERERkQRFIUhERERERBIUhSAREREREUlQFIJERERERCRBUQgSEREREZEERSFIREREREQSFIUgERERERFJUBSCREREREQkQVEIEhERERGRBEUhSEREREREEhSFIBERERERSVAUgkREREREJEFRCBIRERERkQRFIUhERERERBIUhSAREREREUlQFIJERERERCRBUQgSEREREZEERSFIREREREQSFIUgERERERFJUBSCREREREQkQVEIEhERERGRBEUhSEREREREEhSFIBERERERSVAUgkREREREJEFRCBIRERERkQRFIUhERERERBIUhSAREREREUlQFIJERERERCRBUQgSEREREZEERSFIREREREQSFIUgERERERFJUBSCREREREQkQVEIEhERERGRBEUhSEREREREEhSFIBERERERSVAUgkREREREJEFRCBIRERERkQRFIUhERERERBIUhSAREREREUlQFIJERERERCRBMVgsFov9QXkJTKGEhJow2x//z4wYPTzwcld+FRERcRp63xdxKQpB8SKcUxOb0nTyccLtT/1niany5RbmtvWxPyEiIiKvhN73RVyNQlB8MF9jbtuajN4dGnnAneRZC1K0QE4yp09F8qRJ8PJww3JzK4uWHcIv6idg9KVih1aUSGkAi4mwoMfcvnSMPTsOcT0gspFHSQZu+Iku2d2iPpuIiIi8SnrfF3E5CkHxwHxvKd2qDGRToJHUxVvTb2hfWpROj1eMViYuTv8f9b8+aL1rZPRty5zNo6mSKEZDQq9vYNS7vVlyOgT3vD35ec0AirjHbCMiIiKvht73RVyPQlA88F/Th2rv/45ntU+Y800nCia1bwGY7/BDx6oM2xocecCAd5Nv2DylAcnsmgL4/zmAul1/xfjWAv4cWcnuhVXk+Znv7WPF8gPcf+l/+QY8clSnXe3c6L1aRBISve+LuB6FoJcuhG1DqtNlW2Wm/voltdLGsZDx8Sp6V+7H2idRlz8pNcZsYVarNHYNI91fQqcK40g58W8mNYjt5VLk+Zjv7ePXH/7i+Pnj7Ny0g3OPTfZN/jXPOuPZN6s5SexPiIi8tvS+L+KK4vhLlX8t9ATb91qo+/EAasT1QgiE7N/OAX+b/OlVhAoVUtk2iSlRIrwSF6d8GXUv5b8xpi1Fy94DGT5pIatXj6a2j93vqTETdT+ZzeKff+anZU9//PjTDyxaPJdpk79iaJ+3qV0wdfTIT1g4Ly9SiYi4AL3vi7ikuP9a5d8JeoxX+b70rp/2GRc3lGM79nLPpo6me94KVMwQ9yPM/iEY3qhM+VRxtxF5Ue5Z3qRVdbvf1cRFqf92LcqVLkXJUk9/lCpbjvKVqlPnzdZ0+nAk01evZUb7fHgCmMKIWhYsIpIg6H1fxCXpL+tlS1mNfl+0IdeziriEX2THrqs2d8zdyFahEtme8Rhj+reYPu9dsj6jjciLcydzFt+YLwRu7rgZbA/8A2M6qg0cSNOMRixh4YS//E0yJAYz99ZP4rs9IfYnRORV0Pu+iEtSCHoFzLe3s/uMzU4CxvSUqVww4k66iIMl8noJy22TVaBuFR8MpnDC7M/JS2W+tZoRwxdz8qH9GRFxVnrfF3E+CkGvwOOduzhmM2fI4F2aSm+8hI6oyAszYHiRUZ84eVGs5ptULJAOD/tT8vKEX+DHwZ+z5paG20Rcid73RZyPQpDDBbB3+wECbI4kLVmJMrGV0xRxId61BzP788ak16tKPHnC7nF9+WrTA1TSU8SV6H1fxBmpu+JoIUfYsfehTSfGi8KVKpAyRiMREVtBnPiuN31nHSPQ/pSIODe974s4Je0T5GDhR8bRpPm3WKcGuxfjw7W/0DOPVj7Kq2Dm2uw21Bq117qDOSkaM3XPFOrb7WAem/CjU+n4WTD9fhhAqTgntwdxfe8frFh1hDTth9ImrzsQyq09P7Pgp62cumMhXakW9OhWl+yxfU7zE87/vY71W3Zz7OItHge7kTRNBnIVLUv1Bg0onflFppSYeXLub9av28Keo5e49TgY96Rp8M1dhDI1GlC/TOZ43pAwkEvbf+P39bs5fuUOT0K98M6Uk8Klq1CrTnmyPtnPwdDilM1l81WY7rLzmw/4cMp27lpXVSejbPcvaFsweltazyxlqPlGeuxfSYKu7WXd8lUcSdueIW3z4g6E3trDL/OWsvXkHSzpS9L8/e7UyR77d25+fJ5t69axdc9RLt18RLB7MtL45qZwueo0qF+GTLH9zGITdI39f25gy54jnL9xn8f+YRiTeJM+az7eqFKfBtXy4W3/xcfC7H+F/X+u5Y/Ndyj20RCaZI56UACXNv/KrxsOcPbKbQI8fchdui6t29YjX0r7+32h3DvyF6v/2MrB09e4H2gkRZZi1GzdjsYl02mdhrxUet8XcU4KQQ5l4tKMVtT/6oB18bhbnu4sXTuQYtF9GREH+i8hyMzthR2oOSMbMzeNomKMPrQZvws7WLN8Bb+tXs/ei36Y3HLQ6cc/GFrSj50TutN72j4eWZe2eFGs/wp+6p0/es8hTNzZPotRo2az7oQfnml8SZfCwuObN3kYHPlAL1/KdfycL/vXIcs/9FxNd7Yze8Qovlt7Ej/PNPimT4H50U1uPQwm4tk88S3fieFjPqT2Pz3Zv2C+s52p/Qcwc2cYBZq243/VCuFjfMTVoxv5ack6zgZ6kshopsSwbcxv7xM5TP+EjYMb8f4PV/+h4ISB1M1n8PeEOngB5icX2LlmBStWrubPPRfxM7mRvfMPrBlWEr8dE+nZcxr7oy8+XsX78+uyXuSzfR0y3WHHzBF8OfsPTvp5kto3PSksj7h18yFRl9/TtxzvfDGGD+pkeUZw8Of0sq/5dMxSDjxKRbH6zWlQIR8+bo84t2Mly1Yf5HaoG6mKvsVnUz+hYbannyn84Vl2rF/D+vV/smnHcW4HWcC9CP3WLKdXXgMPDyzh6+ETWXH0YfTvcSSvbI34Yu54WuSKeN7As6v5ZtRYFm25QpD9u58xDeU+nMm0XiVJYXdK5N/R+76Is7K/PSbxyfyAXTtP2HRmjPiWq0x+vRCKKzLfZOPGI091zoMOzOODFlWoWKs9Q6f+wq6LfjZlYYM4NOU9eny7n8cxOqAhnDpynGDr//tzePZ7tOg0iUM+bZm44RCH9v/Nn5u2sXvPer7tUZY0RiDkFrtmvs/b/Vdy7Rm7tPofmkPXN99lykEf2kzZwP5j+9i8aSNb9+9m7fTulElrjBid2jmT3m36s+rqM57s3wg+wvTu3flmmz8lBi7m+3F9adOoFjUbtKTjwGmsWD2GBmnDCA61EB5qW/o6BZU+WcXOgwfY9lUtrLnUkJKGk3ax9+AB68eGEdXwCjrIgr4tqVauNu8MmsrynRfxs/lWgg5OoVu3bzkQ8+ITcvIIx6MvPvgf4rv3mvLe5IP4vDWZPw4fZc+2jfy5fR8710+nW9mI/VBCb+1ids+2DFhxLY5NcgM49M17vD1gMfvvpabh+BX8NPlj3m39Jo1bvsMHE35m6Zf1SGc08fDIIj7uPpH9QTGfIfzUPPq9+zFTFvzIyr+ORQSgKKabbJnwDo3bfMU2itOw3bu81+Ut6hdPbw1lIZdX88XAuZwJD+Hyb0Np07wvC0+nomzjVnTo0pm33qxA9hSRb4Xm++yaNIBJO/yjP4fIf6H3fRGnpRDkSP672HHQpoNjSEWZSsXjefqNyMsX/vAkq7/sy/gtfk8t0vfIVJkuY35kzW/jaRZjEwwL/ru+ZsgKH95fspU9m2fRvWzayJEfD3LkzxPZyQ/nyi8D6fX1Zh4X7Mm3MwdQP09S64uVMUUu6g74lpEtMkUeC+fG6mF8+mPsHfHwK78wuMfXbHlckB7TZ9G/QW6SRj8ZueoPYOro5mSMPBZ+/XeGD/vxmaHqxZi58esE5hz0h1Q16fB2vqf+5r2yNmP4yBZkdbMQFhoa45p6JvXGO1UqUiZyI7qQnxGPxN6kSpUq8sOblEk9wSMjFbt+zffrfmNs82wxpsZZ/HYxdtBK0vZawuYDm5jRsyxpIjtiHjnzkycqYYVf4dePezJ202MK9JzO9AENyB19wUieux79p42iWSbrBWPNp5+wNJbgGHpkJp9O3c0jC+BRhCo1fO2m67mRqfG7NIz8PQk59SNz192PHJmL4J6/E98sX86y1asZ3TB19DUw3+T3fi35eHMWev2wmc2/zWX8yGEMGjqKqb+uYmKLzNbPFXBwMRM/78M7Q3eS48OlbN6ygjlTvubToZ/wxeQl/P7zUCp6Rz5z+EWWz/uD+yrAJy+D3vdFnJZCkAOF7N/Ofn+b7k2yklQom8S2icirF7CVMc0a0LjB0x+N6tahdqXSlCjdgH6z90d0bu24p89NwVyZyVyoEW3qZI3u9JqusXLhdVrPnkqXCplJla02Hy36jcUTPuWTsQuZ2bso7oD5xq+MGrGWm+Sl/fDuFI5tWp4xDdU7toievmXxY/vMOey1Hc0AMN9g+Rcj+eMm5HnnU7oWia3rYSRNjU40t96ateD39yzmvrTNSB+ybcMe/Cxg8PDCK9ZlAEbSVH+f9qUTExYa9lSwfG7u6cldKBeZsxSk4du1yRJ98bm+YiHX28xicrfyZEqVjVofL2TlD+MZ9ulY5s3uRRF3IgLbLyMYvfYm5O3AsO5FYu2sGdPU4J0W+axTFy1PtjF7zl5iXrFQjq/+ndNRB013uXPr6aCEZ05yRn2hlsfs2xY9bSgGYypKlopY0wQRd9gfZezJwp9G06akj800SsCYjlrd21Ao6qDpOht+OEGpL79nYqeSpLWbceeV7226NspofUP0372FXXYjUiL/ht73RZyXQpDDhHJsxx7u2dxd9CpaifKaeC7OxhzI/evXuHr5MpcuXOD8uXOcPXOGUydPcur0WS5eu0eg/cKLWLnh45PGZvTCQN52g3k7j0232tOXUs070fF/5cjkCRDI7pnT2fzIgnv+BrwZa2iJ4J67LCVs6nGbrv3J2gMxu+GBu2YxY9MjLO75adA09g49AO65KFsyffQLoukaf63Zb9ep/5dM97lzL6Jbb763h62H4uhdu2Wmbt1iGMJsNhP5D9x8fEhjsweUIW87BrXPY3MNPPEt3Zx33m1JucyRqSBwN3Omb+KRxZ38DZtSOO4LRq5yJUkXfcG49tfvxLz8Rjw9vaJ//m5eeMa6iVRivKyhxMKTa1fjGIUx4p0qhc1IUlLKtPwf+RLHaGTllrUg+VJHXwD3fC3oUtc3jjc9L/IXyBkd6gLPcfrCc/2SizyD3vdFnFns7wfy8pkusXPXVZvpOu4UqFgBH/0ExNkkr8fXe45w6Phxjp46xYkzZzh17hxnL17kzLlTHNy7lZWLvqZrlUz/sDGqAXcP9+hOsNGXEmVyxLxjb+/JFn5efRkTBpL7uHFpy19s/CuOj79vYYlaywFgvs2BXedtFsY/YetPq7liAkPytBgvbXn6Oawff3PLksLmBdHM7f27Of8y+sGGVKRJFfnMpov8MHgYK8/HFoSMpK/VkXYlbaZ8/QcGdw88oi8+viXLkv2ZFx/8tvzE6ssmMCQnjfEyW5+6TtEf225ZiHH5b+1n9znbC+ZOgXcG071mAbLleIOmQ4fSOmusw2AxWAICCIhjKMxgdHv+Ny2DN6lsv0CD4ZnXNUnSxDYh+B53okvxifw7et8XcWr6U3QQ863t7LLWx4y481yhUsw5+yLOzujuRXKfLBSq3IqPZ02ja+GnK3nFyeCOm/uzuqEQcngbex9aAAsPN42nZ+f36BrXx3v9+f6kbac7nGsXLmIdRwk5zLY9EXtzWB5uZmK3WJ7D+tGFAYtPxqgsFn7tApdexqCMMTXlKhWzjsCEXviFj5o2ofc3m7lqN33PLUtNWlTPFA+vCwbc3G3XFMUmhMN/74mY4mh5yJbx3WK5TtEf3T5cwqmYF4yLdhfM6FOZft+t4a9NvzKuQxGe3hsyhBv7fmfXJZtb5RYzL6VmqTEJiRM9+zuOwcMzOtRbQggKjHU4SuS56X1fxLkpBDnI4107OWYzVcToW5YKMerRiriYRIX5X9M3nlEa+UWZuHXiNHfNAO4U6b2UjX9vZdMLfPz2aVVr2DDdOsGZiCfDvWhvftz6dPtnfvz+KVVst+sJDSEoKOgfP0KC7ZOTGzla96ZVzuhxM4vfOdaOe5fGDbvzzcYrL2fa3X9lusXJ03cjihK4F+X9n7c8fU2e+bGGT6rGOX8uBvPjc2yc+zld61enzWdruRLyMlLPy2TCpAwk/5He90Wcm0KQQwSyd/sBAqz/byB1uUoUfb7+goiTMpKueGFrVbX/LpybN+5EVgaz8NjPhG+WLGR5gY/M6ZJZ77KG37gZGajA8sgPk+/T7Z/94UMy6y3bIH7rXYwiBQr+80e1z6MeFC1lZT7+dhg1M9h2gCz4n1/HpM4NaNhtEn9dfsVRKPwmN+9YLxh+Jt9YrsmzPjLjE33BYhV0dRsLhnWgTrW3mHLYmyZfr+TP1d/QKt+zHyfievS+L+LsXlr3RZ4h5Ag7I6flREhGyUpl+E/1YUIecf3sSc5cvkvQs+5Yhjzk6pmTnLly79ntRP4Fzzf6s3TlYEq/pDf2oKCgyL8TE3evXbPZN+hfCAq0boZpunuN67Etw3GgxAXaM3XZTHpWyhBz9MwSwKV1k+neuCkDFh602UDWwSyBBAZbLxjXr/2nqx+D+eEhfhrWmlq1OjL1SBa6L9rAr5P70qioz0scSRRxIvHwvh/y6BpnT57m8t2gGGXk7YU8vMqZk2e4cu/Z7UQSOoUgBwg/s509t2KUh6FcueS2TZ6f6TbbJnelbunSVK3dgAZVy1GmUlu+WHU+5pSa8BtsmdSVeqXLUL1OAxpUKUOZCi0YOG9fHJWXRP4Ft8R4p0n20jqyXjbVxEKO7efgf+mHe3niGf1k7Lfdq+OFGfEtUp1atWpR858+quS3f7CVZ6YafLjwD34Z35Ey6WNeNcuTUyz/tD1vD9/A7VfxN2rwwjP6gnF838GXME3PzP1dU3m33v8Yumg/xmpf8P2Po2hZOKXefOS19jLf9023/2Zq11qUL1WZ+vXrUbNsSaq2/ZzV52L+hYbf2MyUrrUpV7oKDerXpUbpklRpPoAF++4pDInEQu9D8S6cC5u2xKgy5Z7zDUqk/TeXPoD9E96j58QNXMaHPCXLU65EPtL472fhh535/K/ITQbN99g0vD09Jm3gkldR/td/FOMnj2FAm3zcnN+DzmN24Wf/1CKvnBspvJNbX5TMd/ew87j9+prn55bCm+TRT8be7cejiya8MC/K9ZrOjDmzmfkPH9PHtLd/cEzGFBRoMZzvN6xiUs8aZEtiu3g/gNOLB/P5ituO77S4pcA7+oJxd+92/sPlB+Dxjq/p9O4Ett0Oxy1rK0aOeYu8cZS0Fnl9vMT3/YB9TOrcncnrL2PxyUuJ8uUokS8NAfvm81Hn4WyMvKtpvreRz9t3Y8r6SyQq2ooPRk9k4tiBtMp3k4U9OjFu5xP7ZxZJ8P7FX6S8CPPDLcz7+USMqlMG7zSk+RdX3nTpJyYuukfJD+fz194drP3lexb/uobNu9bzXb887Bo5hs2PTdxY/glDfriAKUN9Rv38A1/2fos332xJh36jWbhqFrWOTGL24f/YuxF56dzJkj1L9D42pkv8/tM2/GM2eoZA9o9pTc8fbwPgnjU7WaKfjEurf2L78z8ZgfvH0Lb7j/aHX5z5PjsX/xJjgTQAKfLR6OPvWPPHTHpWSB9dOtxyn80/rea6oys0u2cle/QFw3RxNT9ve6ELxrhW3fkpahgreB/TP53LiUAi9hVq0paKKe0eI/Iaennv+yYu/TiexfdK0W/BJnbtXMfSH35g6dq/2bZhHn3y7GT015t4bLrOik8G8dN5Exnqf8kPP37N+281pXHLd+jz5WKWz6zN0UmzOaK3fZEYXvhPUp5XCHePLGN4uw9YdjVmbyb8zFbWnw14wTu9Jq6t/xP/NlP4pk9VMtmuwUiSnaq9vmXOe378OHsx0yb/yV0y0XzEaFpkt5uolPINug8uy9nVB/7DXXF5fVheTjnilyTZG8XJY00DZm7+PoPvTz/Pb6qZh3+P4ZOfk1G1mk/EoWRvUCxvdCEC883fmbn49HP93psf/s24wT+TrFo1+1MvzuLH0ZWz+O1Y7J/ZK2ttPpw7n4/Kp7BOBQy/dI5n79VpxvzSf27JKF48T3QYM99kzfTFnIn9y47J/JBtXw9hWbJqVI3cBCXkwErWWr8JI+kyZIxjj6iX/o2IvCIv+X3fdI0Nf/rTeuo0elXNHGOz5yTZq9Fz2lw6+/3Ad4u/5ZsNdyFzCz77siX2b/spSvRkYNkz/H7gef6YRRIOhaCXLfwEC3o2o36F0lRuMoAfjvs99RZvub+JL+qXpEylWrzZrA195x6NcccoduGcPudN83dKxrLXBoAnOVv3odDmUfx0xYx39d70ruFt3wgA93wVyf7kTIxdrCXhCgq2W3hjscRDB/v5uGWvS51iNu/gAXv5pv9Edj+zWoCZx/un07vfUrza9qWpb+TLmlt26tYtZrNeKYB9Uz5i0q5Hz+yImB8fYEbPD/jZ8y36NPO1P/3vmK6wa+uFuP/OE+Wn/fuNyRD5pRsSJSbGLDnA6OWJdZslSyhBwS97qMiNbPXqxqheFbB3Kh9P2PXsYg3mxxyY9j4fLvWkTb9mRFx+M37nLxFVbA7MPLxzJ/bv3/yIx/62v3CWp14zX474el5J8OLrfT/sFBe8W9KhZOzv+njm4n99C7N15I9cMXtTrXcfqsf6tu9O3ko58DujtUEithSCXjb3grwzbTlrdxzh1KWLnIvr48Ip9m37k5XLf2Tyu0XiuENqKwR/j3Rkf9acYv8LXL4djsWzAO36NYu7dLExBck94t6VXRISE35+/jHfsEP88befuvWvWDCFhUc/tyWUsLB/+KVzy0Hzd+qQ1iYABB6bSbe2A/l+/92nOw1BV9gyoy+t2o/naOYuDO9e1OZuqRvZW7xDbZ8YT8bs995i8OID3H36ybiyeQYftGjPxCOZ6fxFN4q8pKp3EM6pVUs58IwKde5ZMkcGCANJ8hcip/2LQkpvUlq/lTAunzsf83qE3OHWvehgZDGFE325LYSFhj3VMbPnlqMFHWqntdlUNZBjM7vQbuASDtx56oIRdGULs/q0oOP4I2Tu8gVdrQnKiIenu83zhHN67QoOB1oPRDJxZ/NsfjkYZj1iCQoirn1KLWbTC3Ti7Pb6CQ175iigJSwsxvV0phFScXLx9b4f6od7uuzPnEbnf+ESt8IteBbsQJ9mmeLs1BlTJMc9IOAfXwNEEpK4/l7E6XiQ2GgiOM4egInzS+ez/q4F97y1qV/gGfW6TLe5G5zcpkMlCZb5EWfO3CLGmEL4GY4efkZv/bmZuHP3fvSbrvkBVy4/+YdOrJG0jQYxqF46mxcnC/4nl/FpyypUrP4m7bt/xCdDP6Zf55bULFuTzl+t5kqahgyf3Js37OrPGn0aMnBIPdLZvNJZ/E/yyyctqV6uBs3e6s7HQ4YyqM97tKpWjjodv+b3y2lo8MUkepX4L8Vsn2a6uJSxs48Q15UNOn2OqybAPRtvtqv9VMfHI09BcllDWTjnfpnJqsi9hcLv7GZ2r458suaqtb3pzh3uR198Hly9jN+zLz4YfWgweAh1Y14wTv38Ca2rlKdWk7fp+dFQhn3ch64tqlOxRkfGrL5CmkafM6HPGzHK/yYtXJRcNr288DNz6d35K5bvPsPlcwfZsnw2I7s0oNGQU6TPl9wamExX/+aPfXd4cvsoq6csZo81kJu4e/u+TVAJI+RZo2Gm+9x7GP0Nm25d4Uqc1QbNPLz/yOa5wwkKjLOxiGN4JMFoDo77NdN0np/nreOexZ28teuT/1lv+7fuEJwspc2NCRFRCHIZnuTJGMTRk7HfyzTf+Y2Js/cR7J6F6jnPsnB91KaTT/PbsZ6zKXKTUj/9BM0ccJUds4cybZtdt9x8g5WjP+Png3f+Q4lkM36nlrNg7RWbgBXErrmT2Xg99t9hK2Mmmn49k4+rprNufAqAJZj7F4+w849f+HHJz6z+az+Xn1jwLtqe8UvG0zx7bPdVjWRs9hXTB1UhXcwnI/jeRY7uWMev33/PslV/ceDSEyzeRWk3aTFjW2T/57u0LyyAg1N60Hv6rqdGoUKu/sFX41Zz15CK0n3G8mHlFDEbAMY0NWlYxdvaiTHf/J2BdSpSo3olylXuxE8pevDZ29kjzj05xYq5ayNCVaSgHfOY8tf1Z46GABgzNePLWYOoEvOCYQm+x6UjO1i/7Ht+WPobG/df4onFmyLtJ7JgfAvsL797gbZ0qWsbZsO5s3MmA1rXpWat5nT+YAyrH1Xmi5/m8Wmj/HhENQs9yXdvlaVE2aaM3G8hVdSX8fggS3+znUIUwoG1v3E51m8onBvrlrHFpta4xW8LPyw6YbN5pY2Ak6xab7uQPYxDq3/h9FMjVyIO5JmXjIFHOBXr77iZO7+N57t9wbhnqU72MwvYED3/1M4Tdm04Q4rcKk0vYstgsWjQ31WYzs6g1yRvBk9uQ1bbDkf4VZb3ac2gNbfxeXMqyz+Fr1rNImX/SQxskD3GYsqAUz8yuPssUo1ey+cVXtpcH3EhprNz6d55Ontu3CPg6RlONgx4pkhHhiIdmLygJ4WfKxWYuL7iUz78Zj3HL9yLdeTSkMiHXPlzkalQC4Z+0ZKcMfva0UJvsXPhOCbM/p1Dt4PtpnG4kTxHWeq37UmvjhXJ+Iw7oBFCubVjERPGzWbNwdtE7QkaxS1FDsrUb0uPvu9Q4Z+f7MWYLjGrVUt+8SxChvA7XDp9jgfJClK2dF4ypnQn8OZxdm49TmCWarzdfxA96ueKc0NF09VVDOk0iF/ORQdXtxT5qN3tU4b3qEDqGyv5rN9UNhy7yL3YLz4+ufKTK0tBmn/yBc1zxXXxIfTWThaPG8t3qw9x+6kLlpzsZRvQ5v0+dKiYMe59op4cZuGQ/kxYcx5/65djIEmW8rz5Xh/6tCuLjxuY72/mi9bdWHwusrdnSE6eJgMZP/ptcp+YQf+pGzh56AiXntj/whpIlC4fRQsVo8mgkbTJ48fGCQP4btNJjp+8YfM5o7iTKldxipRsysDRb5P75kpGDJzD1mOnuPLUc4Nn2twULlCIhh+N4R3btWoiDmHi3IweTPH+hAltssa4MRN+9Vc+aPUxa2/70OSbVQxlNG1npuSDyYOpnz3Guz6nfxxIz5mpGLl2BOUT2ZwSSeAUglzKE3aOfJvPL1SmS+dGlMqalMDLe1g1cxLz/76BIU9HZv08jErecGtVX1p+8CeGYlWpUjIXadwCuX1mL1u3ncRUeRS/zGpDlrj7PyLOw+zPlYO7OHzuFvceB2NM7kPWAiUpWzxznGEhbmb8rxxk98Hz3Lr3mGC3ZPhkLUDJcsXJ9OJP9pxCuHftEUkyp4/4es1B3Dl7hMMnLnDzQTCePtnJna8gBfOkJ8nz3KYNvsWxnXs5duUhHunyUrxCaXKljL8/ZrP/FQ7uOsSFm/d4HGwkmU9WCpQqR7HMz3vBTDw6f4D9R85wPTAZmfMW5o03cpHKLlSbHp5i87odXAxIQtZS1alaLH2MGzgiCdKTnYx+61MuVulGp4alyZosgMu7VzF70ly23TCQp+Mcfvi0Mt7cYnXfZvTfYKBotaqUyJUGt4DbnN27he0nzVQavZzpbbLEHF0XSeAUglxN+BXWffkRny3YazOlxp20JdozfNIg6meNulvpz6mfhvPBF8s5G1UBwZCYbLX78vWYLpTyfp7eloiIiLxK4Vf+4Ov+n7Jor01xGPe0lGj/OeMGNyD6bf8kSz/ty6jlZ62FjwyJs1Or3xi+7FIave2LxKQQ5KJCbh1h5+7T3Ap2J23u0pR/IzNJY3mBC390gcO7D3LBPzGZi5SndN5U8bDWQUREROJPCLeO7GDvqVsEeaQld6kKFM+SNJY1PuE8unCIPQcv4J84M4XLlyGv/bCriIBCkIiIiIiIJDRP30QQERERERF5jSkEiYiIiIhIgqIQJCIiIiIiCYpCkIiIiIiIJCgKQSIiIiIikqAoBImIiIiISIKiECQiIiIiIgmKQpCIiIiIiCQo2izVQW4EmZlxMQSAWuk8qJJWOziLa3gSZmHc2WAAyqV2p4Gvh30TEacw82II14PMpPQw0D9PIvvTIk5v6vkQ7oSYSedlpHcuL/vTIvISKQQ5yL6H4ZTe7A/AyAKJGJpfb9DiGq4Gmsm67gkAvXN6MqVYEvsmIk6h1CY/9j8ykTmRgav1U9qfFnF6udc/4XyAmcLJjRytlcL+tIi8RJoOJyIiIuIEPCN7ZWG6PS0S7xSCRERERJyAhyHiv6Fm+zMi8rIpBImIiIg4AQ9jRAoKM2soSCS+KQSJiIiIOAFNhxNxHIUgERERESeg6XAijqMQJCIiIuIEPDUdTsRhFIJEREREnIBHZK9MI0Ei8U8hSERERMQJRE2H05ogkfinECQiIiLiBKKmw1mAcE2JE4lXCkEiIiIiTiBqOhwaDRKJdwpBIiIiIk4gqkQ2QJjWBYnEK4UgERERESfgYYhcFASEajqcSLxSCBIRERFxAjFGgpSBROKVQpCIiIiIE7BdE6Qy2SLxSyFIRERExAnYTodTdTiR+KUQJCIiIuIEIitkA6CBIJH4pRAkIiIi4gRsMhAaCBKJXwaLxaI/MwfY9zCc0pv9AciVxEjOpMqf4hqCTRb+fmACoHdOT6YUS2LfRMQplNrkx/5HJryMUCWNu/1pEadWzccd/3ALX54JAeBEzeQUSOFm30xEXhKFIAexDUEirkohSJxZVAgScUWtM3mQO5mRUacjQtCxmskppBAkEm8UghzENgR5GGJWgBFxZmYLBEdOTlcIEmcWFYIMQGL1HcXF/C+TB1kSGxkZGYKO1kxOYYUgkXijEOQgtiFoZIFEDM2fyL6JiFO6Gmgm67onoBAkTi4qBGVOZOBq/ZT2p0Wc3vCTQXxxKiIEHa6RnKIpFYJE4ovGI0REREScgNGmNIJZ96hF4pVCkIiIiIgTsC2RrQgkEr8UgkREREScgEpkiziOQpCIiIiIE9BmqSKOoxAkIiIi4gRsO2UaCRKJXwpBIiIiIk5Aa4JEHEchSERERMQJaE2QiOMoBImIiIg4gRhrghSCROKVQpCIiIiIE1BhBBHHUQgSERERcQK20+G0V6pI/FIIEhEREXECRkN0DDKrNIJIvFIIEhEREXECKpEt4jgKQSIiIiJOQCWyRRxHIUhERETECahEtojjKASJiIiIOAFVhxNxHIUgERERESegNUEijqMQJCIiIuIEtCZIxHEUgkREREScgNYEiTiOQpCIiIiIE4ixJkghSCReKQSJiIiIOAFtliriOApBIiIiIk7AdjqcRRlIJF4pBImIiIg4AZXIFnEchSARERERJ6AS2SKOoxAkIiIi4gRUIlvEcRSCRERERJyASmSLOI5CkIiIiIgT0JogEcdRCBIRERFxAloTJOI4CkEiIiIiTkBrgkQcRyFIRERExAkYbFYFmbVRkEi8UggSERERcQIx1gQpA4nEK4UgERERESegwggijqMQJCIiIuIEbEtkazacSPxSCBIRERFxAhoJEnEchSARERERJ6AS2SKOoxAkIiIi4gRUIlvEcRSCRERERJyA7ZogjQSJxC+FIBEREREnoDVBIo6jECQiIiLiBIzaLFXEYRSCRERERJyA1gSJOI5CkIiIiIgT0JogEcdRCBIRERFxAjHWBCkEicQrhSARERERJ6DpcCKOoxAkIiIi4gS0WaqI4xgsFpUfcYR9D8MpvdkfgPdzePJedk/7JiJO6Vawmfo7AwHondOTKcWS2DcRcQqlNvmx/5EJXy8DO6smsz8t4vQOPDLRYk/E6+3XhRLxcd5E9k1E5CVRCHIQ2xAk4qoUgsSZRYUgkdfBuMKJ6J9HIUgkvmg6nIiIiIiTsV0fJCIvn0aCHMR2JCidpwEfL726iWsIM1s4ExDxMqGRIHFmUSNBydzgvexe9qdFnN7VIDO/3AgDYHLRxPTJpd9jkfiiEOQgtiFoZIFEDM2vIW5xDVcDzWRd9wQUgsTJRYWgzIkMXK2f0v60iNP7604YtbYHADC1aGJ6KQSJxBtNhxMRERFxAmabf7tpwohIvFIIEhEREXECJpu5OVoTJBK/FIJEREREnIDt3kAaCRKJXwpBIiIiIk4gxkiQ7QkReen0NyYiIiLiBGKOBGkoSCQ+KQSJiIiIOAGTTcFerQkSiV8KQSIiIiJOQNXhRBxHIUhERETECag6nIjjKASJiIiIOAFVhxNxHIUgERERESeg6nAijqO/MREREREnoDVBIo6jECQiIiLiBGJWh1MKEolPCkEiIiIiTkBrgkQcRyFIRERExAloTZCI4+hvTERERMQJaCRIxHEUgkREREScgMnm39onSCR+KQSJiIiIOAGNBIk4jkKQiIiIiBOIUR0OpSCR+KQQJCIiIuIENBIk4jgKQSIiIiJOIEZ1OIUgkXilECQiIiLiBMw2/9ZIkEj8UggSERERcQIaCRJxHIUgERERESdguyZIHTSR+KW/MREREREnYDsSpOlwIvFLIUhERETECZixKZFtUAoSiU8KQSIiIiJOQCNBIo6jECQiIiLiBLQmSMRx9DcmIiIi4gQ0EiTiOApBIiIiIk4gxkiQQpBIvFIIEhEREXECGgkScRyFIBEREREnoOpwIo6jECQiIiLiBDQSJOI4CkEiIiIiTkDV4UQcR39jIiIiIk5AI0EijqMQJCIiIuIEzDb/VnU4kfilECQiIiLiBDQSJOI4CkEiIiIiTkBrgkQcR39jIiIiIk7AZIlOQW4qkS0SrxSCRERERJxAiM2iIC832zMi8rIpBImIiIg4gdDIEGQAPFUZwamFhIRw9uxZ/tywgTmzZvPVqNEc2H/Avpk4MYPFYjP2KvFm38NwSm/2B2BkgUQMzZ/IvomIU7oaaCbruicA9M7pyZRiSeybiDiFUpv82P/IROZEBq7WT2l/WsTpNdjhz9rb4XgaIKSpt/1pcTCTycSVy5c5d+4cFy9c4PKly1y+fInLly5z69Yt7LvQGTJk4O+dO2IcE+elkSARERERJxA1EqSpcI4VFhbG2bNnWbtmDVMnT6Zvr940qFuPIgUKUrtGTXp07caYr77mpx9/ZNfOXdy8efOpAARQuUoV+0PixDQS5CAaCRJXpZEgcRUaCRJXV3mrH9vum0jjaeBeQ/0Ov2whISFcvHCBc2fPcfbsWc6dPcu5c2e5fOky4eHh9s1j5enpSXpfX3wzZCBjxoz4ZshIhgwZyJMvL2XLlLZvLk5MIchBbENQy4wevJnBw76JiFO6H2qm39FgUAgSJxcVgpK7Q++cXvanRZzevCuh3Ay24ONp4I5C0L9mMpk4f/48p06c5MyZ09bQc/XKFcxm2y1p4+bt7U2WrFnJnCUrWbJmIXOWLPhmyEiaNGkwxFK5L0WK5GTPltX+sDgxhSAHsQ1BIq5KIUicWVQIEnF1CkHPLzAwkFMnT3Hi+HFOnjjBiRMnOHP6NCEhIfZNY5UmTRoyZ81KFmvYyUqWrFlJliyZfdNnUghyPQpBDqIQJK8DhSBxZgpB8rrIkMjADU3pfMq9u3c5fvxERNg5fpwTJ05w+dKlWNfn2PNJl+6poJMlSxYSJ3k572kKQa5HIchBbENQ20wetMik6XDiGu6FmOl+WNPhxPlFhaD0XgY2VXqxu7gizqDOdn+uBVsolNzIsVop7E8nGGazmUsXL3LiRETgOXniBMePn+D+vXv2TZ+SJEkSsufIQY6cuciRMyfZsmcnc+bMeCWK37XYCkGuRyHIQVQYQVyVCiOIq1BhBHF1mdc+5nqwhVLebuytntz+9Gvr0sWLHD58mMOHDnPsyBFOnjxJUFCQfbOnpEmblhw5c5IjR05y5Ir4b3pfX/tmDpEyRQqyZctif1icmEKQgygEiatSCBJXoRAkri7d74+5G2qhYmo3tlV9PUPQ3Tt3OXz4EEcOH+bI4SMcPXKEx48f2zeLwWg0kjlzFrLnzBEdenLmJHkK5xktUwhyPQpBDqIQJK5KIUhchUKQuLqUvz3iSThUT+vOxsquP6XT39+fo0eOcuTwIQ4fPszRw0e4efOmfbMYvLy8yJ4jBzlz5SJ7ZNjJmi0bnp6e9k2dikKQ61EIchCFIHFVCkHiKhSCxNUlXvmIYDPUS+fO2oquFYLCwsI4dfIkhw8djgw8hzl//vwzixYYjUayZc9Onrx5yZ0nL3ny5iVzliy4ubnebrEKQa5HIchBFILEVSkEiatQCBJX57b8EWagia87K8s7dwi6desW+/bu5cD+Axw+dIiTJ04QGhpq3ywG3wwZIgNPHvLkzUeOnDnx8no99vRKmTIF2bIqBLkShSAHUQgSV6UQJK5CIUhcWbjZgsfKiLUx/8vkwdIySe2bvDIWi4Uzp0+zb+8+9u/bx759+7hx/bp9sxhSenuTJ29e8uTJS+68ecidJy/Jk7+e65xQCHJJCkEOohAkrkohSFyFQpC4soBwC8l+iwhB7bJ4sKjUqwtBIcEhHDp0kP379rNv314OHjiA3xM/+2ZWiRInJleu3BGjPHnzkCdPXnzSpbNv9lpTCHI9CkEOohAkrkohSFyFQpC4soehZlL/HvFa+242T74r4bjX2gcPHkSO8uxl/759HD92nLCwMPtmVj4+PuQvWJACBQtSoGAhsmTNitFotG+WoCgEuR6FIAdRCBJXpRAkrkIhSFzZrWAzGdZGvNb2yOHJtOLx91p78cIF6yjPvr37uHTxon0TK4PBQLbs2SlQsBD5CxagQMFCpE2b1r5ZgqcQ5HoUghxEIUhclUKQuAqFIHFllwPNZI98re2by5NJRV/Oa21YWBjHjx2LHunZf4AH9+/bN7Py9PIib968FChYiAIFC5I3f36SJHk5X8vrTCHI9SgEOYhCkLgqhSBxFQpB4srO+pvIuyFi3c3Hebz4unBi+ybPxe/JEw7sP8D+/fvYt3cfhw8dIiQkxL6Zlbe3N/kLFiR/gYjpbTlz5XLJEtWvmkKQ61EIchCFIHFVCkHiKhSCxJUde2KiyF8RIeiTfF6MKPh8IejWrVvs2bWbffv2sn/ffs6cPv3MvXkyZc4cuZYnYj2Pb4YM9k3kX1AIcj0KQQ6iECSuSiFIXIVCkLiyA4/CKbkpop8wokAiPomjn+D35Ak7d+5i5/btbN++jQvnL9g3sXJ3dydX7tzRRQwKFCR5ihT2zeQlUAhyPQpBDqIQJK5KIUhchUKQuLKd98OpsDWin/B1oUR8nDeinxAaGsqB/QfYsX0b27dt5+iRI5jNZrtHR0iaNBn5C+S3FjHInScvnp6e9s0kHigEuR6FIAdRCBJXpRAkrkIhSFzZlrvhVNsW0U8YmPYRuU6sY/u27ezbu5fg4GD75gAkS5aMwkWLUrRYMQoWKkyWrFkxGAz2zcQBFIJcj0KQgygEiatSCBJXoRAkrurq1atM336SL73KAJD251Gk3LHMvhkeHh4UKFiIosWKUbR4cXLmypXg9+dxFgpBrkd/OSIiIiIO9ODBA1b/9htDBw2mWqXKVK9chXkLF1vPG8IjNio1GAzkzpOHZi1b8tmIkSz68Sc+GzmS5v/7H7nz5FEAEvkPNBLkIBoJElelkSBxFRoJEmcVFBTEnt17rMUMTp44ad8E/6I1ud1pHAC1jizlf74GChctSrJkyeybihPSSJDr0S0EERERkZfIZDJxYP8Bvp06lbdat6FE0WJ07tiRObNnPxWAUnp7U7lqVWo1bGI9Vq9OTcpVqKAA5EIMaC2Wq1EIEhEREfmPzp09x4L58+n2XhdKFn+DVi1aMHH8BPbs3k1YWMT0NoBEiRJRslQpOr33HhO/+YZ5ixbzwUcDyFGoiLVNYoMm6YjEN02HcxBNhxNXpelw4io0HU4c6fbt22zfto0d27azY/t27ty5Y98EADc3N/Lky0exYsUpWrw4efLmxd3d3b4ZCx4mY8L9iN/beZnuUiJxqH0TcWLeKVOSNWtm+8PixBSCHEQhSFyVQpC4CoUgiU9+fn7s2rmTHdv+eZPSrNmyUax4cYoUK06hwoVJnDixfZOnTH+QnBkPIjYy/SnLHfJ7RY8eifNTCHI9CkEOohAkrkohSFyFQpC8TLablO7Yvp0jh+PepDStjw9FixWPKF1drBjeqVLZN/lHE+6lYMGj5AD8lvUWWT1N9k3EiSkEuR6FIAdRCBJXpRAkrkIhSP6rSxcvsvGvjfy9dSt79+z5x01KixUrTpHixciYMZN9kxc28k5Kfn4SUQjhr+w3Sesee+AS56QQ5HoUghxEIUhclUKQuAqFIHlRYWFh7N2zh00bN7Lxr41cvnTJvgk4aJPSIbdS8bt/xOvrzpw3SGJU98yVKAS5HoUgB1EIElelECSuQiFInsf9+/fZvHETmzZuZNvff+PvH/HebMtgMJArd26KFCtGsWLFyV+wIJ6envbNXqp+N1OzKSAxYOFgrhsYVXHZpXh7pyRrFoUgV6IQ5CAKQeKqFILEVSgESVyOHzvO5k0Roz1HDh8mtq5PkqRJKVGiJCVLl6ZEyZIkTxFRpMBRul5Pw+6gRCQymNmd66b9aXFyCkGuRyHIQRSCxFUpBImrUAiSKEFBQWzfts064nP79m37JgBkypyZUmXKUKpUafIXLIibm5t9E4dpfy0tR4K9SO1mYlOOW/anxckpBLmelzuhVUREROQVuH7tGosXLuLdjh0pWbw43bt05ccffogRgNzd3Sn2xht07tqNabPnMHX6DN7p9C6FihR5pQEIINAc0SXTRqkijqGRIAfRSJC4Ko0EiavQSFDCYjKZOHjggLWowdkzZ+ybAJAqVSpKlCpFqdJlKFq8+HPt2fMqNLiUnuvh7uTxDGNZ1tg3XhXnpZEg16ORIBEREXEJTx4/YfWq3/iwbz/KlixFm/+1Yub0GU8FoFy5c9O67VuMnTiJOQsW8n6fvpQtX95pAxBAoDmiEkISo0pjiziCQpCIiIg4rbNnzzJ75kzatmpN6RIl6NenD6tWruTRo0fWNokSJaJsufK836cP3y1cxNiJk2j91lvkyp0bg8E1yqwFWjQdTsSRNB3OQTQdTlyVpsOJq9B0uNdDSEgIe3bvZtNfG9m0cSNXr161bwJAel9fSpUuTcnSZShUuDAeHh72TVyG2QJvnI/YcLVG0iAmZnhg30ScnKbDuR6NBImIiMgrdffOXZb+9BM9unal9Bsl6NThHRYuWBAjABmNRgoVLkKHTu8yZdp0ps+eQ+eu3Sj+xhsuHYAAAi3Ro1XaJFXEMRSCRERExKEsFgtHjxxh8sRJNG3UmPJlyjBk4CA2rN9AYGCgtV2y5MmpUq0aHw74mAVLvmfEl1/StHlzMmfJEuP5XF3UeiCAJAatCRJxBIUgERERiXcBAQGs/2Mdgz7+mPJlytCsyZtMnTyZY8eOxWiXLXt2mrf8H6PHjGX+4iX06/8RlapUIWmyZDHavU6iymMDJNZIkIhDKASJiIhIvLhy5QoL5s3jnXbtKVX8DXp2786ypT9z7+49axtPT09KlipF1x49mDV3HhOnfkO7d94hf4ECGI0Jo5sSpOlwIg6XMF5dRERExCFOnzrF5ImTqF+nLjWqVGXE51+wfds2wsLCrG3SpElDnXr1GDLsUxZ8/wNDh39GvQYNSevjE+O5EoqgGNPhFIJEHEEhSERERP6To0eOMPbrr6lZrToN69Vn6uTJMfbuMRgM5M2fn7fatWf8lCnMnr+A7u/3olSZMnh5ecV4roTIdk1QYu0TJOIQCkEiIiLyQiwWC/v372f0yJFUrVSJZk3eZOb0GVy+dMnaxtPLi3IVKtD7gw+Yt2gxX40dR8vWrcmRI2eM55LoPYLQdDiXZcA19qOSaApBIiIi8o9MJhM7d+zks2GfUrFsOVq3aMncOd9x/dp1a5vEiRNTuWpVPh4yhAVLvufjwUOoXqMmKVJq36ZniVkdTiFIxBEUgkRERCRWYWFhbNm8hSEDB1G+dBnav/UWixct4s6dO9Y2yZIlo0atWgz5dDjzl3zPBx8NoFz5Cprm9gJihCCNBIk4hEKQiIiIWIUEh7Bh/Xo++uBDypQsSeeOHVn60088ePDA2ialtzd16tdn+IiRzFu8hF59+1GqdGmX37T0VdGaIBHHUwgSERFJ4AIDA1nz++/07dWb0iVK0KNrN1YsX47fEz9rmzRp09KwcRNGfvUV3y1YSPee71OseHHc3NxiPJe8ONs1QUk1EiTiEAaLxaK/NgfY9zCc0pv9Acib1EieZMqf4hqCTBY23jMB0DunJ1OKJbFvIuIUSm3yY/8jE0YgtacWKf8Ts8VCWFgoYaFhhIWFEVt3wGg04u7hgYe7u8JOPAo0GwiNvC+9MftN0rhrNMjVpPL2JkuWTPaHxYkpBDmIbQgScVUKQeLMokKQiOuysD/XDdyV4V2OQpDrUQhyENsQZASMeoETF2GxQFS3UiFInFlUCPI0QOlUGrWIEhYWxsOHj3j06CF+fn4Qy7u+VyIvkidPQfIUKfDy8rQ/LfHsbIgHARYjKYxm/s550/60uIBUqbzJklkhyJUoBDmIbQgaWSARQ/Mnsm8i4pSuBprJuu4JKASJk4sKQZkTGbhaP2GXZL5x/Trr/ljHH2vXcmD//linuuXJm5fyFSpSrkIFfDNksD8tDtTkcjouh3mQ3SOMldmiK++J61AIcj1amCIiIvIauHTpEjOnT6dZkzepUrESo0aMYP++fdYAZDAYKFioEO926cqsefP5evwEmrZooQDkBB6YIkYuU7lpLZCIoygEiYiIuKgzZ84wdfJkGtarT61q1Rn79RiOHjliPW80GilarDjdevTkuwULGfnV1zRq0oS0adPGeB55dcIt4BdZIju1QpCIwygEiYiIuJBjx44xfuxYateoSYM6dZk8cRKnT52ynnd3d6dkqVK836cv8xYt5rORI6nboAHeqVLFeB5xDo9MRiAiBGkkSMRxFIJEREScmMVi4eCBg3w1ajTVKlWmaaPGTP92GhcvXLC28fT0pGz58vTr/xHzl3zP0OGfUbN2bZKnSBHjucT5PDRFd8VSuam6oYijKASJiIg4oSOHDzNqxAgql6/A/5o3Z87s2Vy7ds16PlHixFSqUoUBgwazYMn3DBwylCrVqpEkiYqXuJIHMUKQRoJEHMXB1eFMhAaHYoqHz2g0euDl5W5/2GmoOpy4KlWHE1fxOlSHu3jhAqtWrmLVypVcvnTJ/jRJkyajdNmylK9QgeIlSuDh4WHfRFzMH36JGXg7NQBfpX9A/eRB9k3EBag6nOtxaAgKPzmJFo0nczzc/sx/l7jaaI7Ob2t/2GkoBImrUggSV+GqIej27dusXvUbv61cybFjx+xPkyJFCsqWr0D5ChUoXLQo7u7Oe8NPXtwPj5Ly1T1vAGZmvEe5JCH2TcQFKAS5HgeGIDPX5rxFnZG7CY084p4iKwWK5idnZl9SJU9CkkSeGC03+HvhLxx+EvVlGfGt1IGWJVNiwIIpLJAnty9zfPcODl0LiNzzzYMSg9eztFt262dzNgpB4qoUgsRVuFII8nvyhLVr17JqxUp279r11D4+iRIloky5clSpVp1ixYvj5qbNX19X0+4nZ+bDiLVbS7PcJp9XPNwplninEOR6HBeCzPf4+b2qDN4YiDF1cVp9OITe/ytNeq+YzUwXptOmzhgORr0GGH1pM28zI6vaNQy9zp8jOtN30WlC3PPS49ff6V/Uee+OKQSJq1IIElfh7CEoJDiEjRv/YtXKlWzZtJnQ0KhbghHc3Nx4o2RJqlStRumyZfHysnvfk9fSqDspWfokGQAbst8knbvWBbmi1Km8yawQ5FIcVxghcA/bDwRhTFeNoYsWM7Ld0wEIzNzfuYuTNjdBDClKU7HkUw3BMxO1Bn5Eo/RGjOlKUy6f8wYgERFJmEwmE9v+/psB/T+ibKlS9O75PhvWrY8RgAoWKkT393sxd9Fihgz7lEpVqigAJSBRG6WiwggiDuWwEBRycDv7A7LQYtRY2hdKan86kj+7tx/EdjZskpKVKRNxg+Rpyd6geD53UpSqQDG9X4iIiJM4dPAgX3z2ORXLlaNj+w4s/+UX/P0jZgMAZM+Rgw4dOzFr3nxGfvU1derVI3ny5DGeQxKGqBLZyYxmPCK2CxIRB3BQCArl5La9WOoP4KOaaeP+pMH72bE/ap0PgCdFKpYn7u3dEuHllYRiFcqgCToiIvIqXTh/nonjJ1CzajVaNmvOwvnzuXf3nvV8+vS+tGjVisnfTmPClKk0bdGCtGnTxngOSXiiQpBGgUQcK8488nIF8dirPL371CfNMz5j6LHt7L1n8yLgno/ylTPE/UWa/Qk1vkGlCqnibiMiIhJPbt26xZxZs2nSsCF1atbi26lTuXz5svV8ypQpqd+wEV+OHcf0OXN4u30HsmTNGuM5JGGLDkHaKNW1aRjP1TgoO6Sk6oef0zr3s6rbhHNp+26u2bwGuGWvQMVsz3iMMT1tZs6lU9ZntBEREXmJHj9+zI8//MDbbdpQuXwFvho9mhPHT1jPJ0qcmKrVqzPs88+Zs2AhXbp3J1/+/LZPIQKA2QKPzBoJEnkVHBSCnoP5Njt2nSG6JoKRdGUrUcAzRisRERGHCw4O5vfVq+nepSvlSpXmk8FD2L1rt7W0tbu7O6XLlqX/xwOZt2gxfT/szxslSqq0tTzTY7MRS+QIQmqjQpCIIzlPCHq8k11HbcqFGrwpXekNVO9AREReBZPJxNYtWxjwYX/KlixF3169+XPDBsLCwgAwGAwUKlyEHr0iKrsN/mQYFStXVmU3eW5RU+HQSJDr02w4l+M0IShg9w4OBNgcSFqSSuXiqiInIiIS7djRo4RsWor3xgUYtyxl39699k2e28EDB/li+GeUL1OWd9/pyPJffyUgIPoNKkfOnHTo9C4z585jxJdfUrtuPZIli6uMqUjc7oZHd8NSu2tNkIgjOUkICuHI9j08stm21atIRco53153IiLiJMxmMyuWL6f5m01p2rgJQQtHkua3SXj8OJo2/2tFg7r1+GHJkqc2JY3NubPnmDBuHNUrV+F/zZuzcMECHty/bz2f3teXlq1bM2XadMZPnkLT5s1V2U3+s6th0XscZlYIEnEo5whB4afZuec20QPB7uSrWJH0zvHViYiIkzGbzXzc/yM++uBDjhw+bH8agDOnTzNs6Cf07NadkBDbHegi3Lx5k9kzZ9K4QQPq1a7NtG++5erVq9bzKb29adi4MV+NG8/02XN4q117MmfJEuM5RP6LKzYhKIuHzU7xIhLvnCJmmK7tYNcFmz9+txyUr5QdLScVERF7UQFoxfLl9qditXnTJt7v3oOQkJCIym7ff89brdtQpUJFvv7yK06eOGltmzhxYqrVqMmnn3/BnPkL6Ny1G3nz5YvxfCIvS/RIkEUhSMTBnCAEmXmwYycnItaZAmDMUJZKBaLvjoiIiERZ/suvzx2AomzetIkmDRtFVHYbMpQ9u2NWditTrhwfDRzEvMVL6PPBBxQvUUKV3STeRY0EpXMz4+UEPTKRhMQJ/uT82b39ENETFQx4l6lMMRXXERGRWCycP9/+0HM5f+5cjMpuhYsUoUev3sxbtJhBQz+hQqVKeHpqXwZxnGthEUE7q6dGgUQc7dWHoOAD7NjnT3RNhGSUrFSGJDEaiYiIwIH9Bzh+/Lj94eeW3teXju92Zva8+Xwx+ktq161LUlV2k1fgTriRYEtEN0xT4UQc75WHoNDj29lzz6Y2vldRKlZIYdtEREQEgCOHD9kfeiEVK1WmSbNmpE6Txv6UiEPZVobLqhAk4nAGS9Sk6FfCxJkpzWgy4ShRf/7ub3zMmmU9yPmaTcXe9zCc0pv9ARhZIBFD8yeybyLilK4Gmsm67gkAvXN6MqWYxmnl1fl26lQmjp9gf/i5lanbmEbv9bI/LOJwG/0T8d2jiJu+433vUytZsH0TcSGpU6cic6aM9ofFib3aEGS+zoK3azBiZ9QeDu7k7fULqz4qyutWFkEhSFyVQpA4k2nffMOEcePtDz+3hzU68qBxX/vDIq/Uyqy3ya51QS5NIcj1vNrpcI93seuozSZ2Rl/KVsz32gUgERH598xmM1u3bKFvr95MmTTZ/vQLCfXNaX9IXkCSo5vsD8l/5GWwaDqcyCvwSkeCAtf1p1r3X3kQ+RUYfFowfcs4ar2GN5o1EiSuSiNB8qpcvnyZX35exvJffuHmzZv2p1+YR9IU1Jj0M26eKj/6b4QF+rPxg/9RZfR8EqdJb39aXtDsh8kJthgp4BXKj1nu2p8WF6ORINfzCkNQCLs+rUWHhdeIKouQvN5ENs9oSkq7ls8vhEfXrnArwJO0WbOQNnFcA10hPLx6mdtBifDJkpk0cbZ7eRSCxFUpBIkjBQUFsfb331n28zL27N5tf5rMWbLgmyED+/bssT/1j5q1aEn7jh3tD8tzWrP6N+bMnEnL1q15q117+9PyAu6GG6l1KQMATZIHMCL9I/sm4mIUglxP/Pf+4xJ+hh17blkDEHhRpEI5ksdo9LxM3P57Mj1qlaFcpTo0qluNCiUq0+6z3zgfY51hODc2TaJHrdKUr1yXRnWqUq5ERVoNmMd+2wp1IiLiUPv372fIwEGUK1Wajz8aECMAJUmShDr16vHVuPFMmTad/gM+pmChQjEe/0+yZ89B0xYt7A/Lc7JYLPyxZg0Af65bR3i4pm/9F2dDPaz/zqO1QK8Fg/0BcXqvLASFn9/E1nM2f/juOSleIu2/+oIC9k2gW7dJbLhkwSdvScqVL0HeNP7sn/8hXYf/xX0zgJn7G4fTsdtkNlxKRNFWHzJy0mS+HtSavDcW8H7HseyKuNktIiIOcPfOXWZOn06dmjVp3aIlS3/6iYCAAOv5IkWL0rd/f75buIju7/cib758AHglSsQnn33+3EEoe/YcfD5qFMmT/7vbbAInTxzn2tWrADx69Ig9u3fZN5EXcDgoelPefF42a6NFxGH+Teb478wP2frdMk7a3vwwpCRN2n/x5ZgusXT8Iu6V+oC5m/fy9/plLP7hF1Zv28naef3IvXMU4zY9xnR9OcMG/sgFUwbqfbmUxWN606ZpE5q/04+RS1Yxvc4Rpsw6jF6KRETiT1hYGOvW/kGXdztTqXx5xn49hgvnL1jP+/j40KptW2bM+Y7PR42marXqeHk9vYYnUWQQatGqFSlTxj6JOknSpDR+882IAJRC+8/9F1GjQFHW2f2/vJg9QRG/0+5YKJZIPQ+RV8Hha4JC7hxh9eQhjPj+OP62n9mQhmqfLWFy+3wkfYEsZLo8i3fev0+/nwZTKqn9WQg9v4QPR9+iTLpVjPrhGr6tZrJyTC287RuGH2XS+6soP3UoZaNv0Lw0WhMkrkprguRlOHP6NEt/+olVK1by4MGDGOc8PDwoV6ECNWvVpkixYhgMLzaxJCwsjB3btzH1wHUeBQSRKHFi+hbxoUrVqngl0mvtf/Xo0SO6dHwHk8kU4/jU6TPIlDlzjGPyz4LNUPFCRsIx8EaiEOZnvmffRFxQmtSpyKQ1QS7lBeLGfxHOiXnv07JORcpVeJOBS+wCEIDlPpuHN6BMiUrUbdiMt3vN5dhzTJMNP3ke7/91oEQsAQjAM1drehfezJc/XsHsXZ33+9Z4OgABuOejYnY/zmhtkIjIS/Hk8RMWL1xE08ZNaFC3HvPnzosRgHLnyUO3Hj2Zu3ARH3w0gKLFi79wACIyRFWtVh33/33A3bafEdLiI2rXrasA9JJs/PPPpwIQwPo/1tofkudwONiL8MgVJGUSh9ifFpf14q9d8mo5KAS5U7DTtyxbv52D5y5y7lJcH+c5fmgb635fzpJv3qXwc2wYFOrvTrrsz1pL5M+FS7cIt3hSoENfmmaKq6WRFMndCQywT2ciIvK8zGYz2/7+m769e1OuTGk++/RTjh09aj2fMmVKGjdtyqRvvmXMhInUbdCApMmSxXgOcR5msznOsLPxz78ICVEn/kXtsVkPVFohSOSViSsRuAz3JEZMQXGP3pjOLWXBuntY3PNSq0EB4p7pZuLWnWCSpVSSFxF5UVevXmXi+AlUrVSZju078PtvqwkNiVjrYDQaKVWmDAOHDGX2/AV06vweWbNls38KcUKHDh7kzu3b9ocBCAjwZ8e2v+0Pyz/YF7keyNNgoVhirQcSeVVcPgR55slI4NFTsRc0MN9h9fjZ7A92J0uNHJydv547ceWlJzv582wKcqV0+UsiIuIQwcHBLP/1V95u04bqlavw7dSp3Lxxw3o+U+bMdOjYidnzFzBk2KeULV8ed/fnGOIXp/FPBRDsCybIswWaDRwLjrgdWyxRKJ667/r60M/S5bh8j98tZ23ynP2O5VfsFxCFc3XF54xbfw+Db0M+HjmcBsHj6f75Gi7F2DsICDjFT4M/Z2fuWrzxdBEiERGxcfDAQYYOGky5UqUZ8GF/du+K3tMnceLE1KpTly/HjmPq9Bk0bdGCVKlSxXi8uIZ7d++yb++zN6U9e+YMF86ftz8scTgU7GldD6SpcCKvlsuHINxy07ajLz+8241xP2/nxOVrXD6xjWVfvstbA9dw0z0P7cZ+Rt10aag7qB9Z1vWhUfXm9Bw0ivHjvuaLAZ15s9qbDNuViy5dy6IMJCLytHt37zJ75kzq1qrF/5o356cff8TfP6LiJUChwkXo88GHzF24iJ69e5Mvf/4YjxfXs2HdOp6ngOy6tbGvGZKn7Q2M7mUoBIm8Wg4vkR0/wrmy9ks+/nQh++5Gjwi5+5Tg7c8nMrBBVutaIP+TP/F5nxGsOBtAxDduIHH2WvQZO4bOpb3jLRWqRLa4KpXITrgsFgt/b93KD0uWsPGvjU9VCEvr40P1GjWpUasW6X19Y5x7Fdpc9eFkiCfp3ExsyHHL/rS8gPDwcLq924mHDx/an3qKl5cX3y1cRJIkem34J+2u+nA0xJNEBjPbct7EQ1OoXhtp0qQmU8YM9ofFib0mIShS8C2O7tjD6dtBuKfNQ6kKxckc26ZD4Y+4eGgPB8/7kThLEcqVyUuqeJ6mrhAkrkohKOF5+PAhy37+mR+XfM/ly5djnPPw8KBs+fLUqFWbosWKYTTG8hr7iigEvTw7t29n7Fdf2h+OU5fuPajfsKH9YbERYDZQ+UIGTBgomziYWZnu2zcRF6YQ5HperxDkxBSCxFUpBCUcBw8cZMmiRaxZ87u1sluUHDlzUqtOXapUreq0Ja0Vgl6ezz75hCOHD9kfjlPWrNmY+M03/2qfp4Ti7wAvet1MC0Dv1I95L3X0dFJxfQpBrsd5buGJiIjDBQYG8uMPP9CkYUP+17w5K5YvtwYgDw8PqtWoydfjxzN+8hTqN2zotAFIXp4bN66/UAACuHLlMqdOnrQ/LDZ2Bkbf/Cyt0tgir5xCkIhIAnTu7Dk+/3Q4FcqW45PBQzhx/IT1XIYMGen4bmfmLFhInw8+IE/efDEeK6+39Wv/sD/0XP6pnHZC91dARAhKaTRRKJFCkMirpulwDmI7HU7EVWk6nGsLCwtj3R9/8P3iJezZHV3WGpsNTes1aEix4sVdclqTpsP9dyEhIXTp+E6Myn/Py93dnTnzF5AiZUr7Uwne0WAP2l1LB0DT5AF8nv6RfRNxcZoO53o0EiQi8pq7cf06E8aNo3KFCvTr3SdGAEqVKhX/a9OGGd/NZdDQTyj+xhsuGYDk5di5ffu/CkBEVpTb+Oef9ocF+NM/sfXftZMFxTjnfMwE3T7N+dth9ifEKZnxv3qQA+ci1u7K89NIkIPYjgTlT2YkX3LlT3ENQSYL6+9ElEbWSJDrsFgsbN2yle8XL2bTxo2YzeYY54sULUrdBg0oW648bm5uMc65Ko0E/XeDBnzEmVOn7A/H4Obm9lS59CjpfX35duYsp6oa6AwaXkrPtXB3khvNbMrxPKWxw7i843cO3or5d/vyGEiWpzI1iqSNvBseht+V4+zbtYPdu/Zw5PwjcneezWdNfHS3/Dk5ciTIHHiDYzu2sHXrNnbs2MWhc0/I1Wclyz8sSDwXO36tKAQ5iKrDiatSdTjX8vDhQ5YtXcoPS77nypUrMc4lSZqU6jVqUrd+fTJnyRLj3OtAIei/uXjxAv379LE/DECBggU5eSJi3ViLVq24d/cuWzZtsm8GwKeff0HxEiXsDydYp0I8aH01Yipco+SBjEr/z3svYX7IH592Ytbh6L0PXy4jPg1G8E3XdOxdPJ/V2w9z9qY/0dHWncJdFIJeRNo0qckYryHIxI0/pzLuuz/YcfAM94Jtu+/uFFAIemH63RYReQ0c2H+Ajz74kIrlyvH1l1/FCEA5c+WmZ+8+fDd/AZ27dn0tA5D8d+vWrrU/ROYsWRg+YiSN32xqPZYxY0b6ftifL8eOI3eePDHaA/yxVgUSbG3wj77pWTvp806FCyXUNv+4pSBTkUrUbtqGtzq9x7vdetCtR0+69WhPhQwxu3KJ8jfkvR496dajB+917ULHjm/TvHFtyuRPTxJrUwthoaFYDMnIXq4xbd97l4aFU/CPA1TyChlIlrsab3/8FdO+m0j38qn18/qPFIJERFxUYGAgP37/PY0bNKBVixYxylt7enpSvWZEeetxkyZRq04dvBJpBFpiFxQYyFabkZ0kSZPybpeuTJgylWLFi/P4UfRC/pQpvQHIlz8/X40bT6++/UjpHXEMYN+ePdy7d8/6/wld1HqgJAYz5ZME25+OnSWU0NCIO/3u6SvRbcIsJo8eRI/O7WjZvCmNGjWkboMG1K1bhdzetl1hA+6+xajVoAF1GzSkQeM3adKiLe269mXQ2FlMGfE2RVIaAQuhoSFYjMnJmK8wRcrU4a1mZUipXrUTM5Iie3FKvlGcEhXfpHfX2qRTL/4/0eUTEXExZ8+e5bNhn1KhTFk+GTKUkyei92exLW/du5/KW8vz2bp5M8HBwRgMBurUr8+0mbNo1KQJ7u4Rk2seP35sbWsbeIxGIzVq1eLbmbNo2rwFbm5umM1m/ly/ztomITsX4s6lMA8AqiQNxuu5e12hhIYBbpmp368fdXMmewkdNjdSF23NB10q4G2A8NBQbCdUGZImJbFCkMtwS5eOVP/9lyJB0+UTEXEBYWFhrF71G21btaZ+7TosXrTIWsXLaDRStlx5ho8YyTczZ9KkWTOSaVNTeU4Wi4U/1q6hYKFCjJs0me4933+qzPXDh9HrWGxDUJQkSZLQoVMnJk+bRsnSpdmwbl2cxRMSkg0B0VXhar1IVThzKKFhFjwK1KNBgZc5gmvEu0ITKmcwYg4NRfXfXJi7m9b//EcKQSIiTuzG9euMHzuWSuUr0K9PH/bu2WM9lyp1alq1bcvMuXMZOHSoy+7vI6/W3bt3admqNSO+/IocOXPanwbg6tWINWaeXl6kTp3a/rRVxoyZGPrpcN7v05drV6/an05woqbCJTKYqZQkxP70M4QSFuZGrlJlSfuyizd65KH0Gz4Yw0IIia/icyIuQCFIRMTJmM1mtmzaTNfO71G1UmWmfzuN+zZrLIoULcqAQYOZNXcebd56mzRp0sZ4vMiLSJcuHRUrV35mgL5y6RIAWbJkea7y1yVKliRb9uz2hxOUS6HunAuNmApXKUkIiY0vUozXgGfKfBQtnJaXnYHAg1xFi+Gb1B3Ti3xJIq+Zf34lExERh3jw4AGzZsygZtVqdO7UiY1//UXULgZJkialUZM3mTp9Bp+PGk35ihVfm/19xLk9uH/fOvUyoQebF/GnTVW4F5oKB+BRlHcmfEWbfBEh6mVLXKEPk4Y2JL1eQl6iuG8iiHPSPkEOon2CxFVpn6D4t3//fpYsXMQfa9cSGhpR3S1Krty5qdegAZUqV1F1t3+gfYLix8ED+xkxfDgAHTu/R5Om0eWyJW6tr/pwKsQTT4OFzTlukvSFRoKek+kmKwZ3Z+HJqPVXBpJVG8yc/hXwtGv6T8KOz6bfkJXcNPP0PkHBdzj+91/sOnGFW3cfEebpjW+uN6hcuzqF0j1/UDP7X+Xwzp0cPH6Om/f8CHVLQoq0WchVuBQVKhYm3fN80cF3OLlzE3+fTUm9zvXI6gaE3ePEn7/x54GLPLSkpkDNVjQtnzHmNTAHcuvkHnZt38fDvB3oUC2ddZQt6MZ+Nv+1i9NXbvEwyAPvrAUpW6ce5bI/XZAi7OFZ9v29g4OnLnP3URCGZL7kKVOHts0rUTSbr13r2AVd28dfG7aw9/A5bt5/hH+4G4lT+pIt3xtUatCQqvm8/3EEMPz0ZFo2nMSxcLRP0L+kEOQgCkHiqhSC4kdAQACrVqxgyeIlnDoZXd2NyPLWlapUoW79BuTJmzfGOYmbQlD8WPHrryycNxeA4SNGUqx4cfsmYudsiDstr6YHoFrSICZneGDf5OWI9xDkzZ2dC/lm+m+cePj0xq2GpLlo8MGndCqb5qmwEIPpAUd+ncP8Fdu5FOBByrSpSWL25/79J4RGrkvySFOEht370racL0/FKnMAN45sY8umzWzbfZybAWaMGd9kxDddyBd4hB9Hf8mvJ/ywLnHyzMtb48fSMksAVw/vYufOXezZc5iLD0Kw4Eaut6fwVZtsGJ6cYt28Gfy46Rx+9nU8PDNQqcdwetfKHPH1BF9l+49zWLz6ALdD7LvORrxLdGHmvEGUjFlTJCb/U/z69TDG/bSfR6mKUa9FI8rn9cHt8Tl2rlzK7wduE+qWiiJvfcGkYY3I9owfokLQf/fM31kREXm5zpw5w/Bhw6hYthzDhn4SIwBlyJiRjp3fY86ChfTq208BSJzC5UsXrf/Oli1bjHMSu+VPklr//WbywBjnXEcYF1d8wZCvlnPGkoWiFWpQo3p5CvomsXYeLQHnWTN1BlvuPqPCQuBpVo34kJE/nCJV3QFM+WEp8+bM4tu5i/numyE0K+yNEQi7f5QVXw1m6ubbROeRYE6vGsuQ996hz7Cp/LzxKDcDbD5XyGl+HjGSX076xyj3Teglzp47y+oxn/PN97+xYdMeLjwIsWlj5v7+xYzoM4hFByFv5QY0bt6MOhXzkjoqRYTeZNusKay+bCLs5lZmDOzPxNWXSV6kMjUbN6Nx/aoUyZg08lqYeXRgDgMn7CDidncsAg4yrXNbBi7ax73UjRizchkTPu7M/5o2ofk7HzL252WMrJcOo+khRxd9xPsT9/GCkyjlBSkEiYjEM5PJxNo1a2jbqjUN6tRlyaLFMctbl48sbz1jJk2aNlV5a3EqlyOLIqRMmRLvVKnsT4udMAv87hdRFS61m4kqSZ9zg1SnYuHxgVmM+/E2+dqN5Nu5U/ls8If0+nAoI6dNpnfV9NbpWpbHe/ht/SWb4GLDdItNU75k0X5/cvxvCAM7VCJz4qiup5GkWSrw9qBeVPOJPGa6y/YZ0/jzdtSzeeDzRgve//Jbxn5QA1/bXqslkGPzp7DVuzWfzVnCt5/8j4LekV+VeyayZ8tDo8Hj+XrcZMb1rkQK65IdC/f+HseQSftJ1+ZLpn03iaH9e9KpU2e6DxrHmAE1ozchDTrFH4tnMmHYtxzN1I6Rs2czZvjHvN+1M516DuDzqV/zTvHkkauBTFxaPp9192ILhKEcnfEJ3+x+hAXwKFKV6r52E97cMtOoc6OI6X2EcPqH71h/P7bnkpdFIUhEJJ74+fkxd8531Khald4934+1vPWsufMYOETlrcU5hYWFWUtdZ1VRhOeyOSARj8wRHdzGyQNxd8k/axPXTj2m/KAxDPhfcXxs56d5ZKByp/9R1LoFkomrhw9y96kUZObextnM23EPsjaic8vcsU7RM6YsTcOa2aJDVcBBVqw4TsTqSDdSZ8lJpvTpyVG5PmVsUpD5zibW3qnLoIEtKJIuBb5l32H4pNH06dKFXl8Mo2WeqGc0krxgwchwAWDGz8+H5iO+pEe9AkTlpqi2qcu2pFauqINm7u5ax8WCvfnioybkT2U3Uc8zO/VaVCZt1Jflt4utu2IZvwk9zu9rTkd+T2C6dwdrzrPhmTMnWSI/teXxPrYf0E5O8UkhSETkJbt69Sojv/iCSuXKM3rkSK5fu249V6RYMT4ePMRa3jp1mjQxHiviTE6dPEl4eMRakLx589mflljYToVrlsJVp8K5kafFR7xdPGKqmj2jd3GK5IhOD+bb17huP2gRfIwVP+/F3+JGtkrVyPXUQp8obmQuXIDU1k9k5u6ebZyy7/8bU+HtbZMoDdmp925Dstg8r0eaQlRr8iY1iqSLsa7ImDw5SW3CTqLCtaiZPY612W6+5MieMrrWm1t2qjUvT5rYLgTgkSMHGa3zA4M4d+oCT62eMnri6Rn9tbt5esa+didxouigaHnM9av3otc5yUsXx49URERe1L69e+nZvTs1q1Zj/tx5BAQEAODh4UGtOnWZ/O00Ph85inIVKqi8tbiEwwcPWv9d7A0VRPgnt8ON7Aj0AqBYohByeD7VHXYRBjy9POMu+uzmTRrv6HEdS0AAgXYjGwH717P9lhkMSfE23uTgnj3si+Pj0H1IavPJzPdPcvyq3RMa3HB3i25kTJOfgpme93XUiDHOb+ZpyVMktfneDc9+rFdiElm/DBP379x9emqgewE6DOlJjQLZyV6iGYM/aWMzMhUXCwEBgTHXOslLpRAkIvIfhIeH89vKVTRr8iZt/teK9X+sw2yOuHfn7e1Nm7ffZva8+fTs3ZssWbPaP1zEqR0+FBGCvLy8yJe/gP1psbPySVIskd3npi47CvQ8jHh4uEUHBYvFbsQijLOHjuFnASxPOLB4FKNHfBHnx5cT13DJNjmY7nDjhv1QkB03t38sI/3vGPHy8oo7AD7FHXfrsI6F4MDAWEZvjKSt/AGz1m7iz18n0K5I9GihVfAN9q/eyWXbB5vNCkHxSCFIRORfePz4MTOnT6dapcp80LcvR48csZ7Lnj0Hvfv1Y+bcebRq05YUKZ9VM1XEOfn5+XHh/HkAChYujIdHnPOZJCIHsOJJxBYCiQ1m6r3oBqmu5lkpwXSPS5cfRoQBtzz876s5TJ/9Ih9TeLeE6/y+2V4Ks+lFYouZJ2f/Yv5n79GoeitGrL3CU9W3Jd4oBImIvIBLFy8yfNgwKpUrz9ivx3DrVvR+NCVLl+bzUaOZMHUq1WvWUqdRXNrRw4eJ2kqwWPE37E+LnT1BnlwPjxgSqJssiCTxsTmqqzDf5d6DyO/f4kegOQ3pfX1f4CM9qZLEzziPcwji6rb5DG9fi5pvTeZIqjf5ctVGVnzbmryv87ftZBSCRESew84dO+jybmdqVa/BkkWLCQqKuMvr6eVFvQYN+GbGTIZ+OpwiRYvaP1TEJR3SeqAXYlsQ4fWeCvccLCEERw1pmB9y506IfYsEyszDQz8yvFV16r4zmaNZezD/zxVM6NuYIj6x1c6T+KQQJCISh9DQUH5dtoxG9RvQ/q232bRxo/VcmjRpaPdOR+bMX0DXHj3JmClTjMeKuLqo9UCpUqUiWzaVx36WJyYDfwVE1IzO7hHGG4mjiiEnUAYPPDyiJomFceFEdHnoBMt8n91TO9Ko5WCW7DdSdcRPLBn1PwqlVFf8VdGVFxGx8+DBA76ZMoUqFSvy8UcDOHXypPVc7jx5+OCjAcz4bi7NW7bUxqbyWrp08SJ379wBoGhxjQL9k7X+SQi1RHT6Xbcs9ktkTEYya7k3Mw9PHOLiP9Q5eL09ZudXHegy/m9uh7uRtdVovnorL9atluSVUAgSEYl09uxZhg4aTKXy5Zk0YSL37t4DwGAwULZ8eUZ99TVjJkykctWqKnEtr7XNNqOe5StUjHFOnvZrZEEENyw0Tq4QhJsvGdNHT+8y3/ibPw+9wHUJPsniQaPYcP/pOmuuKGTft3w29wSBAO65afRWJVQu59UzWKJWPUq82vcwnNKb/QEYWSARQ/PHsUmXiJO5Gmgm67onAPTO6cmUYhFv9q+TrVu2MO+7ufy9dWuM44kSJ6ZW7To0bNyY9L6+Mc6J82lz1YeTIZ54G02MTP/Q/rQ8J7PZxJyebxHw6AGJkqeg6/SfcIuuASx2HpqMDLuTGoBqSYOYnOGBfZP4Y7rJisHdWXgyqr60gWTVBjOnf4XoTTefU9jx2fQbspKbZgB3CneZzWdNfOK4Wx7KrvEdGLvZP6KEs2d5+i4ZSlVr18bE9Z8/pt/C09Y9cxIV7MiXI1uS7Z/qxZifcGj2YKbcbsLYT+pGb1JqvsvqT7ow92jE3kvGjG8y4psuFPin5wMI3sLY9mPZGRzxv0kqD+K7jysRsaOTPROXf+jPR9+fi/ja3XLTZvJ4WmWL48ZX8DYmdPyKbRHbwpGk/hR2T29sM8oTws5hNXln0fWIanmelRmxcyFtY9snO2AZ3d4YwF+hRPwMPljNsr75Yt1YNfz0ZFo2nMSxcAB3CvRZyfIPC8baVmKnEOQgCkHiql7XEBQSHMLy5b8y/7u5nDt3LsY5Hx8fGjZuQq26dUmS5PX4fhOCqBAk/03ik9vJOKsXAI8rteJei8H2TcRGKqOJh+aIDvLkDPepljSyp+0Ipiv8/FFvfjgXHYKSVh3Edx9V/M8hqFCX2Xz+rBA0rgNjt0SGII9y9Pn+E6rZdG1M15YxrM98TlmnwSUiZ4vhDO9QhOSxPymY/Tm9bDRfLQ2kzpdjaZvHJuG8whDUetJ4Wmf/lyHIfJclHSoyfFvkhXAvRO/fVtC3wNNxxXx9Lu2rjWB3GBEhqN9vLOuXP9ZgoxD038X1aygi8lq6e+cuE8aNp1L58nwyeEiMAJQvf34+GjSIabPn0KRZMwUgSZCS7/vd+m+/Uo1jnJOnPTJHdKUyuodTOYkDAxAAwYTEqDhgISwoiH+1/CY4iOgabhbCQkOfsVGnmbCw8OjzlhBCgmNOXXPLWJP65bxt9tAJ5sKvXzB86hpOP7TdGTVCyK39LB/3EZ8vPotPs+40sw1AABYTJts9eMLDX+D7NGOO+5t5itls+/WFEf7MTxROWEQui2A/tmD0tCkSAYSf5o/lhyKmxtky3WHrrGUcsn4uC4GBQbFsvBop3GwdZeOpr1meh0aCHEQjQeKqXpeRoJMnTjD3u7msXrWKsLDodzSDwUDixIn59IsvyJsvf4zHiGuJGglKbjTzQZrH9qflOYQFBfLL+y0whYaQIkMWGo9dYN9EbGwLTMTGyKpwH6Z5zDupIt7nHcX8cD1fdpvCfpt9WY2+jfjs2+4UfsGhoIBNo+gyYScRMc5ImnqfM+39N4h1oMV0lWUDevH92ciOdxxTxsx3NjF+wER2PojZlTd4eeObNRtZs2YgpSGQB9fPcfLMDQJM7qSv3JtP+9ckg/3AS9hJ5vcayKobkc/lVZIes4dTO9U/38833fyFYT3mcSryy/Us+wHzPqkZR2GCMA5924WRf9yLCCCGZFQcMJf+lWN/7zPfWcGn3eZwIjIIeVYdzfYFbUllbRHOiQlNaD7lJNas5J6Ocp0H0qdFSdIEXOTo3q38sWwlx1IVxefkFo4+ieiaexZ8j+/m9ybn7S38fCgdvdqXtT5r0F8fU+O9n7lrATDi+9Z8/hpdOY7RLYmNQpCDKASJq3L1ELR54ybmzJ7Frp27YhxPkjQptevW5djhI5w/f45RX4+hQMGCMdqIa4kKQencTGzIEb2JrTy/vzZs4NspkwF4q317WrZqbd9EIoVboP4lX+6Y3EhsMLM++y1SuDmqSxWG3+X9rJ03nZ/3348xIgBeZK3RmS5vVadA+sTPN+Un+BK/jR7M/IN+1tEdY+rydBv9MbUz2ccgE4/2zeTTUWu4Ft2rJ1vj4Qzv/AbeduEl4MyvTBg1n4N2QegpxuTkrv8+H3auhK/9pzQHcPnPqYz+dht3rU/jTpb6g/ikSzl87NvH4M/JBZ/w2bJz1pEjQ8qydB87iNoZnn6g6c4Wpgwaz9/WT2QgSZF3GDGsJTmeSk1BXPj5cz5ddIzAyAtnSFGRQUtn0Tl/9Hul+dZK+jX5kDV34rgG7mkp1fELvu5fkPUd6vD1XruC4sa0VPnse+Z2yAOA+dFBZvToxMSdj6N/XhkaMWbpOJpmUQx6XgpBDqIQJK7KFUNQeHg4v61axeyZszhz+nSMc74ZMtCoSRNq1KrNrZs3+bBPbwCqVKtGv/4fxWgrrkUh6L8b8nF0SfiZ383FJ106+yYSaa1fYgbdjiiI0DqlP0N8HDD6aLrKmq9G8OvRuzwMCHvGdDUANxKlSEWaEu35/IOapI4tDYWdZuXYWaw/dp6bfrZzuiJ5eJM5d16qdBhMy8JGrq77htlrDnH+0l2CnurPG0mUJgfFm/fh4ya5YpwJu3+EtYsWsmrbaR5EbaIaxZiUDEUqUqdlWxoU94k58mS6w9aZ4/h553luPgqJZWqYAc9UmcmWOT05ar5Hl5qZsWawsOMsH/8Tey6e4dwNf7ugCAav1GTNk5M81TrSrW5WAvcsZury/Vw6f5F7T39zuKXITJ48BajasRd1s9xj6+wprNp/nsu3nn5uvNKSu1ABCjbuz4ROxQDwO7yAT/qPY+05/+jvw5CELOWb0qlvP94u64MbZu5v+oy3uy/iXOTcREPyPDQeNIkRb+cncN0YBs/ewskTZ7gd+PTXaPBKS85C+chZtTvT+1ayPy12FIIcRCFIXJUrhaDAwEB++uFH5n73HTdv3IhxrmDhwjRp2pRSpctgNEb0BmZOm8a6tWsAcHd3Z878BaRIqcKlrkoh6L85dfIkQz4eAECxN95g+Bcj7JuIjXZXfTga4glYWJn1Dtk9YwkREoM58BZnjp7m+v2H+Ie4kSSVL9kLFiFPOtfvE/n4pCWDb3r7wzGZHnHhwD6OnL5OULLM5ClSguK5UtkVMzDx8NQm1m+/SGDSrJSsXo2i6TW6Ex8UghxEIUhclSuEoPv377Nw/gIWL1zI48fRd2MNBgPlylegWcuW5M4TMY0gSlBgIJ3f6UBwcPRC5g6d3qVp8+Yx2onrUAj6b0aP+IJ9e/YA8NmIkdok9RmOBHvQ/lrEKFnFJMFMy3jfvokkMM8VgsSpxDY4KiLiEq5evcrwYcOoUqEi306dag1AHh4e1KlXj29mzGTA4MFPBSCArZs3xwhAAOvWrsFsfnqKgcjr7srly9YAlDNXbgWgf7DkUTLrv9t5O7YYgoi8HApBIuJyjh87Tt9evalZtRpLFi0mJCRi8nSSpElp8b9WzPxuLt3f70WGjBntHwqAxWJh3dq19oe5fesWRw4dsj8s8tpb8euv1n83b9kyxjmJ6Xa4kT/9I1bI5/QIo0KS6MLSIuI6FIJExGVs37aNDm+3481Gjfh99WrrqE2aNGno+G5nZs+bz9sdOuCdKro4aWzOnDrFpUsX7Q8DxBqORF5n9+7e5e8tmyGycEi5ChXsm4iNnx4nIzxy95u3NAok4rIUgkTEqZlMJn5fvZqmjRrzTrv27Ni+3Xouc5Ys9Orbj+lzvqNJs2YkTvxU/dJYPSvo7N2zm/v379kfFnlt/bZyBSZTRH2rN5s1txYOkacFm+GXxxHrIlMYzTRKbrNBj4i4FL3SiYhTCgkOYcmixdSuXoO+vXpz7Ngx67n8BQow+JNhTP52GjVq1cLdPWZtnWfxe/KEbX9vtT9sZTab+XPdevvDIq+lBw8esP6PPwDw9vamRq1a9k3Exhq/JDwyRxRhbpEigMRG1ZYScVUKQSLiVB4/fsy3U6dSuWJFhg8bxpUrV6znSpcpy+gxYxk9Ziyly5bFYIiYkvIiNv31F+Hhzy5lu2HdOuudcZHX2ZKFC6xr6po0a46Hx9ObR0q0JY8jCiK4YaFNygD70yLiQhSCRMQp3Lp1i1EjRlC5fAUmjp/Ag/sRJWfd3d2pUasWU6ZNZ/CwYeQvUMD+oc/NbDY/cypclAcP7rN3z277wyKvlfPnzrHpr78ASJ/el4aNG9s3ERu7A704FxoREmskC8bXQzdKRFyZQpCIvFJXr15l6KDBVK9chXnfzSUwMBCARIkT82azZkyfM4deffuROUsW+4e+sGNHjnDzZsxNVOPyPGFJxJXNnT3b+u8OnTppFOgfLH6U1PrvdilVEEHE1SkEicgrcf7ceT764ENqVavOTz/+SFhYGESuS3i7Qwdmz53HO+92Jk2atPYP/df+WLvG/lCcDh88yM0bzxeYRFzNju3bOHniOAAFCxWifMWK9k3ExpkQd7YGRmxyXsgrlOKJQ+2bSAL34pOz5VVTCBIRhzp54gS9evSkXu3arFi+3Lr2xsfHh649ejBz7jxa/K8VSZNFb0b4Mjy4f589u3bZH36m9X9oNEheP2FhYSycNw8Ag8FAp/e62DcRO3MeJrd2czun8rM/LSIuSCFIRBzi0MGDdHm3M40bNOSPtWuxWCKqKmXImJFeffsxbfYc6jVoGG9Tcv7csN66r9Dz+uvPPwkN1R1feb38tnIld27fBqBajRrkyp3bvonYuBzqxnqbzVFrJA22byIiLkghSETi1a6du2j/1tu0bNacTRs3Wo9nzZaNDwYMYOr0GdSoVQs3t4iys/HBZDKxIbIM8Ivw9/Njp82+RCKu7sb16yz94XsAvLy8eLvDO/ZNxM7ch8mxRI0CpfbjXxSlFBEnpBAkIvFiy6bNtGrRknZt27Jzxw7r8dx58jBo6CdMnPoNlatUdcjGjPv37eV+ZLW5F7XuBdYRiTgzs9nMlEkTraObbd5+m9SpU9s3Exu3wtxY7RexOWom93DqJ9PmqCKvi/jvfYhIgmGxWFj/xzqaNmpM506dOLB/v/VcgYKFGPb554yZMJEy5cr9qz1+/q3/Uunt1MmTXL50yf6wiMtZtXw5Z06dgsgNhxu/2dS+idiZ/ygZ4ZGjQJ1S+eHmuJctEYlnBkvUxHyJV/sehlN6c0RJzQ5ZPGiT2dO+iYhTuhti5p0DEXc/e+f0ZEqxiLuitkwmE7//tprp06Zx9syZGOeKFS9Oy9ZtKFS4cIzjjnL71i16dHnP/vALqVu/Ad169rQ/LE6mzVUfToZ4ks7NxIYct+xPJ2jXrl6lf98+hIWF4enlxYQpU8iYMZN9M7FxP9xI/cu+hFgM+LiZWJP9Fp4KQRKHdD5p8fVNb39YnJhCkIPYhiARV2UfgsLCwljx63JmTJ/+1GhJqTJl+F/r1uTJmy/GcUdbNH8+y39ZZn+YpEmT0aRZU35YvBiASlWq8PjxY44ePmzflESJEvHdgoUkTvJ0ABTnoRAUO5PJxOABAzh3NuIGxbtdutCoyZv2zcTO5HspmPsoOQD90zymQyq9h0vcFIJcj6bDicgLCwkOYdHChdSoWo3BAwdaA5DBYKBCpUqMnzKFIcM+feUBKCwsjL82rI9xzGAwUK9BA6bNmkX1mrWsx5MnT8FnI0YycMhQ0qWP+UYWHBzM1i1bYhwTcRUrf/3VGoAKFipEw8ZN7JuInScmAz89jtgcNaXRRMuUAfZNRMTFaSTIQWxHgt70daeBb/yUARZ52R6Emhl8IgSAntncKHN4GTOmTefu3bvWNkajkSpVq9GiVSsyZc5s8+hX6+8tW5g4bqz1/wsVLkLnrl3JniMHAPfu3aNrp44A1G/YiC7duwMQGhrKqhXLWbZ0KaEhEd979uw5GD9likPXMsmL0UjQ086eOc3QgQMJDw/Hy8uLid98i6+vr30zsTPzQXKmPUgBQM/UT+iWWnsDybNpJMj1KAQ5iG0IGlkgEUPzR+w8LeLsrgaaybruCQC++1aSdMln1nPu7u7UqFWLZi1akt4JO1afDBrIiePH8fHx4Z3OnSlfoWKMEBNXCIpy//49Fs2bz9YtmwH4cuw48uXPH6ONOA+FoJj8/Pzo37cP9yJvWHTt0YN6DRraNxM7gWYD9S6l57HZjaQGM39kv0UKN3WV5NkUglyPpsOJSJxCQ0NZsXy59f8DAwMB8PDwoGHjxkyfM4fu7/dyygB05fJlzp07R5u332bK9BlUqFjphUdx0qRJS7+PPmL0mLHkzJWbdWtULltcg8ViYcqE8dYAVKFSJQWg57TscVIemyP2LWuVMsB5AlDoAy4ev8ijF9vzWV6qMB5eOMnlJ7H8EF7w/UVePYUgEXlKWFgYP/7wA7Wq12D82OjpZEajkfoNGzF99hw6d+1GmjRpYzzOmTx6+JBvps+gVZu2eHl52Z9+IfkLFGDMhAm8UbIk4eHh9qdFnM6KX39h/759AGTImJH3e/exbyKxCLXAwkfJAPAyWGjv/WqLIYQ9vMj+dT8wY9SHdGvXkQFjfuOCyb6VxCuTPzeObWXVd2P4pGs7un4wgT+v6IfwOlAIEhGr8PBwfv5pKbWr1+CTwUO4cf16jPPVatSgS/fupE6TJsZxZ1S0eHHS+vjYH/7XjEYjlatWxd3d3f6UiFM5dfIkSxYuBMDT05OPBw9RZcPntPJJEu6aIkaBmqUIII17LHf8452JOzsXMnbAe3Tq1JtR3yxh/a4z3A16FV9LwmW6uJ6Zoz7i/Xbt6DV4DPNXbOXEzQAUf14fCkEigslk4pefl1GnRk0GDxzItWvXAHBzc6NKtWrWdokTJ7Z5lIg4Gz8/P8aP+RqzOaLD3LlrN7Jlz27fTGIRZoF5DyNKYrtjodMrGwUykCRrWRp26EGP9pXIoPsur4TBOy+V3uxA5x5tKZs+IhjL60UhSCQBM5lMLP/1V+rUrMXAAQO4cuUKRI561KpTh29nzaZdh4jCASLi/L6dMpn79+4BUKVqNWrXrWvfROKw4kkSrodHJI5GyQPx9XhV9/yNJMuUj4JFSlKxaQdq5VYH/FUwpspOocJFKVGlJa2rZ0M/hdePQpBIAmQ2m1m1YiX1atdhwIf9rfv8GI1GatSqxbczZ9Gzdx/SpUtn/1ARcVI7t29nz65dAGTMlIlu779v30TiEGKGWZElsd2xOE9JbLdkJE2sBfevloEkSZOgn8LrRyFIJAGxWCys/u036tepw4f9+nHxwgWIDD/Vqtfgmxkz6dW3n1NWexORuAUFBvLdrFkQuSFwnw8+1PTVF7D0SVLuRK4Fap4igIyvbBTInkFFx5zAi1YWFdegECSSAFgsFtauWUODuvXo17sP58+dh8gX9irVqjFl2nT6fPghvhky2D9URFzA94sX8+DBfQDq1KtP3nz57JtIHALNBuZGrgXyMljo6iyjQCISrxSCRF5z69etp1H9BvTu+T5nz5yByPBTqUoVJn87jX79PyJjpkz2DxMRF3H+3DnW/r4agJTe3rR75x37JvIM3z9KyoPIUaA2Kf3xeSUV4UTE0RSCRF5TO3fsoPmbTenZrRunT52yHq9QqRKTvvmWDwd8TOYsWWI8RkRci9lsZsa331irwb37XheSJk1q30zi8MRkYP6jiFGgJAYznVK9qopwIuJoBovF4iRbIb/e9j0Mp/TmiBfXkQUSMTR/IvsmIi/F0SNHGPv1GHZs3x7jeLkKFWj91ltky/Zi5XJvhblR93LEGqG2Kf0Z5PPYvonLunfvHl07RVS/q9+wEV26d7dvIi6kzVUfToZ4ks7NxIYct+xPv5bWrP6NOTNnAlCseHGGjxhp30Se4Zv7yZn9MKIgQtdUT3g/jbNNhfNjw/D2TD8QsUmzMXUdhszpQwkPwPSQszs2sePAKa7e9cecODVpM+akeOXqlM6dCg/7p3oGc+AtTu7Zzr5jl7nz8AF+IW4kSeFN6gw5KVi8FMULZiJZHOXRTPdPsff4bcLsjhvc0pK3XCHSWR9n5tH5fRy7HsTTHU8vfIuUIU+quO7Nh/Hw/H52bd/NBe+GdG+SO7JaWxj3j2/mr23HuXzzHiGJfciSrwJ1G5TG19P+OZ7BHMTt49vYsvMEV27fxS/Ug+TpclK4Ui2qv5GeJyuH8v6co4QDGDPQcNQ0OheOeYXTp/MhffroYkJB1/bx14Yt7D18jpv3H+Ef7kbilL5ky/cGlRo0pGo+7+eqOBd0bS/rlq/iSNr2DGmbF3cg9NYefpm3lK0n72BJX5Lm73ensvkAG4/di+XaRjGQukB1KuSJeZMk6MLOWB5nJG3RWpTL/t82Gnd2CkEOohAk8e38ufNMGDeOdX/8EeP4GyVL0q7DO+TImTPG8eelECSuIqGFoAf379O7R3eCgoLw8PBg0jffkiFjRvtmEocHJiMNLqUnyGIkudHM2my3SO7mbF2i2EJQL/KcXcnMqd+z81rsgSJD+bfp9X5TCqSMK1RECr3Fvl/nsmD5Lq6HJiNT3vzkyZWVlOH3uHLyAEcuPcGEkSSZSlGnVTuaV8tJMrunNN8/yY5dBzm0aQ2bTz/COpnQqzx9Fw+lqrW7Y+LeoT/YeOgSl4/vYf+p+4RGnTKmodanc+hZ0jZYBHP/zH52bt/B7l37OXXDHxNGUtcZzvTeJTE+OMQv33zD8r23CLF5FBhIlLEC7T7+gAa5/qmvZcb/7HoWTFvI5nMBePnmpkCBvGROGcb9i8c4eOwBaSq9RasMO5n04/HnC0H+p/j162GM+2k/j1IVo16LRpTP64Pb43PsXLmU3w/cJtQtFUXe+oJJwxqRLZawZn5ygZ1rVrBi5Wr+3HMRP5Mb2Tv/wJphJfHbMZGePaex/1H0tE2v4v35/uv87PthEYt/2MrVGBfEkwzlm9K0UgGK1GhJnQLJbE8SeHYjqzbuYP3iRWy9GgokJnuNdvQa8AFNC7zexVUUghxEIUjiy40bN5gyaRK/LvvFOiUGIH+BArR75x0KFioco/2LUggSV5HQQtCEMWPY9vdWANq8/Tat2rS1byLPMO5eChZFToXrk+YxnZ1yKpx9CKpNn55JWDFuJZeCAYMbbgYTpliWMXllf5OBozpTPEXsQcj8+Ag/ffkVvxx/gnumanQe2IPaOWxGCcz+XPprNuNn/sX1EMCQmKw1uvFh91pkjaULY36yi2n9RrPxbuQX81QIsmF+wJav+zBlx6OIEPdUCArjyOLhfH84kEdXLnAnMOobjAhB4+pe4dsvF3AwyIc8+XOQ2iOAW2dOcvGBNVbhnvlNPp3YhcKxfX4ATNzeOpWRk//kuiktpTp8TM83C+JtHZ4x8eDYSmZOXMC+u2as3eVnhaBk15n27rtM3P0Ig29jJqyYSCNfm/Ee0zV+fb8Fg/64gxkv8vdYzM8DS2GNGkEHWTBoFN9tOMgN6/cMEBGCfmm0nc4dpnDYP6LgkZVXbcbsn0XzZCau/dSd5oP+5EHU6US1GLNnNs0jBjzjYObGvLep+fkuvCp+xqqF75D1eYapXFzsfxki4vQePHjAqBEjqFWtOsuW/mwNQFmzZWPwJ8MYPWbsfw5AIuKcLl68YA1AGTNlolmLlvZN5BnuhBv56XHEHfHUbibeShlg38QpWUJOsmzaWvxy16PDoAnMXrqcn5f9yIzxA2lTKRtJbCo5h1xaxeRvNnM/loBE6Dl+HT2SZcefYEn2Bh0++SBmAAIwJiN77T581qcqaY2AJYgrf03lyxk7eBDLcxpTFKNIruechGf0pkCBTM+YDuZB0Xaj+WrsJCYOrkd6a2/VQsiFXxn1+VIelurJmNkz+PKzIQwYOorxMyfTs0Jaa8c2/NoGVv39MHpkKgYzj/fMYOSkP7kemph8bYfxUXPbAATgRurCzfnwo+Zke64RwjCOzviEb3ZHBDuPIlWpbhuAANwy06hzo8iAEcLpH75jve0PyCMjFbt+zffrfmNs85gbtFr8djF20ErS9lrC5gObmNGzLGki9vbFI2d+8iQCcCNzs160zht5AiD8ChcuRoTouAVy7Mg5wo0ZaPheywQRgFAIEnE9AQEBTJ08mRpVqjLvu7mEhkbc+UqXPj19P+zPhClTKV22rP3DROQ18uPiJdZ/t+vwDh4ez9n5FABmP0hOqCUiMbyXyo/Exufp5L56loCbhBX/kC9H9qJpxbykSWQEj2Sky1uZVgO+Ykir/DZByMLj3d+z7HBgzCchmNM/TmHZiUAsuJG1QQdqZ46r1+tGmkpd6FQlTWSH0cTtjd8wa+PdWMKFG55eHs+5qagRL6/nW2+SOH9BslunjFkIuHSb9O2/ZNT7dciZ3ObrTpSF6u82o6C1bRCnDh63myoXwfxgB/NmrON6GLhlaUDHZrmIZVYaAF75GlGv2HNMCws7xe9rTlun+Jnu3eF2LNtNeebMSZbIL9vyeB/bD9ispnJPT+5CucicpSAN365tbQcmrq9YyPU2s5jcrTyZUmWj1scLWfnDeIZ9OpZ5s3tRJCr3eBah7TuVSB71gwg/x28/beeZMf/RRn7bdB9jtvo0q5BwCqsoBIm4iJCQEObPnUv1ylWYPHES/v4RUzdSenvzXrfufDNjJlWrV8do1J+1yOvs3Nmz7N2zG4AcOXNStnx5+ybyDNfC3Pj1SURHL717OP9zkVEgANwL0vDtCqSNLbMYk1OwbV9aFU4SHUTMt9n+xx5syz2Y729h2ZqLEZ11txyUr5Lz2UUUjN6UaV6X7FGdbMsT9v+yitPRM8+sni8ARXrexm7JSZ4k+n3NvVAzOtfJTmwRyi1tAfJaR18sBN26zv2ngkgoJ39ZyLa7ZsCdXNVrkzuuBETE958//7NGrSIZPPH0jP6m3Dw9sRmPiZY4UXTgsjzm+tV7sQRKcPPxIY3NNTLkbceg9nlsvm9PfEs35513W1Ius+03YCTjm+/SKFPUNTNzY/UCVt+K7bMAmLm7bhV/P3Ijd8OmFI/twr6m1FsScXImk4lffl5G7Ro1GfnFCB48eABAkiRJeKtde6bPnkODRo1wd4/15VZEXjM/LFls/Xfbt9tpN/sXNONBcsIje+DdUvlh0291esYUvmSIs4Ia4JaF2s0qktpm+pj/4R0ctOY8E9f/XMfhgIiRL2PKHOTO+I/de9yyVqVi7uj3GNP1TWzYHxSjTfxxw2j7JRqelZ9SkNxm3b8lwB9/u76/+eE2Vm+6GRE8jL4ULJL+HwKOgcSJEz/jc0Zyz0OHIT2pUSA72Us0Y/AnbZ5jWpmFgIDAWIpbgMHdAw/rJzXiW7JsdBD9J0kr8M5bxayByfJkG0u+PxlR2MGe+S5/rtmJv0dhGr1ZMPbg9pp6xl+SiLxq6/9YR8O69Rg4YAA3rl8HwNPTkzebN2f6nO9o2bo1iRLFuepTRF4zp0+e5OD+/QDkzpOXUmXK2DeRZ7gY6s7vfkkAyOwezpsp7KeKOTvDP3bGExerQsnoFARBlzh3KXLKlfkBR45ctHaGDSlS808F5ABw86V48SzRYcHyhJNHzsZs4wwMRoxGmytkMWE/EBR4aCdH/SJjh2cWsmV75jjYCzCStvIHzFq7iT9/nUC7IrFMKwu+wf7VO7lsG8zM5lhDUEwG3Nzd/vFnH82NnK07UStt1CPCOPXTfLY8sWsGmG+tY+2eQBKVakLjnP+Y2l4rqg7nIKoOJy9i546djBszhsOHDlmPGY1GatauQ+u2bUmdJk2M9vFJ1eHEVURVh0thNDMg7evze2pr3ZcfcfPYAQBqD/yaTEVL2zeRZ/jDPzHbAyPef0elf0Cj5I4azfi37KvD2ewTFKdA/v6yIxN3RAU8D0r1W8KQmkkgdBdTOo1i85OIrp9b7rcZP67tc4xYQMiOsXT5agv+kb1G92I9WDqyoU2LUHaN68DYLf4RnfpnVYcDHv/xKV2+PRBZdtq+OpyNsEPM6PYp6yOrzrkX78GszxviHVt4M9/ht6FdmXcs8nplaMLn33alkPVpQ9k3uTNf/vmQ/7N33+FNVl8Ax79Julhllj1aRtl7703ZCD9ERPZGQVkyBAFFQGSKgIiIoijgRED23ntDGWUXKB107ybv74+0afLSlVKg43yeh+ehyeltm6bJPe8991wF0ORryydrPiKhLxvPgE8qzgmKZyDo9gH+/nUDf+66gU2FogQePsMjPYANVcZt48+Pyr+wAmN48iP9m3/OyWiI6w63/dO6ie5delEkF77swrurbscmvTlo/PlO1vYvbrbypcdzbV/cZl+j4by9rO5dMEutjkgS9JpIEiRSwv36debP+5KjR45Y3N64aVPe7duXokWLWdz+OkgSJDKKuCQos3K4c45iy4cCEO5SnScf/qQOESlUxi6aP0t4Y75okD6lJgnSc2f9R0zZdD92FcSGysNWM7trQQjZxex+33AhdilIW7In85YOpFyS4xnp7/3K5HEbuBu7tKIr3Zs/vu5rFpEBkiD9UzZPHcnP7sYfQluoM7O+HYkqn1FJbRIUzqOjm1jz3c9sv5GTpn2HMaiPG1VzbGVEjYnsi+IVJ0Fg8FzPkA6fciR2U5hNuZFs/G8yNeIG0T9gTe92zL/dhiUHV9A5j/lnZ34JPYWEEK/Zs2fPmDRxIl07dbZIgGrUrMXCpV8zYdLkN5IACSHSj3zbV5r+79/+fYv7hHXG5Q/MAAlQamnI45jLonTK1s64O8QQHoFZLzKUQH8CUngpXJMjJ9nMB03h56UvwYSY9cFQIiOISPOfw4D/xY3M7NUStwFfc6XkKH7au5nFH3WhqpM1KczL0xZ/i4GdisW3Dff4k3V7A0z36+9vZ9elGJzavEWLLJYAIStBr4+sBImEhIWFsXrVd6xZvZqIiAjT7eVcXek3cCBVqlaziH8TZCVIZBRxK0G5tXpmFYx/o88MPK9dZPMXEwEoVrE63WcsUoeIJFyMsGNd7MGo9bNFsLqYnzoknUrNShAE75rBkOWxqyyaPLSavpbR9ewgdC/z+i/lTFxnN5uqDF4zh875U3BNPHAnnw9czsXYVSSbaiP4fU4Xs4CMsBJ0lw1jx/HH/djlLPsGjPl5Oi2N28QSkcKVoEIFKVRAy6kV4xj/9RGeKUVoO/snFvdxjT8MFSDsr9e2EgQQc2sF73RZyKXYXuEO9aex7behOOv03PqmB12XPKf3+r3MapSF2sLFSugpJIR4xQwGA5s2bqRV8+YsX7bMlAAVLFSICZMmM3/R4nSRAAmREdlroFXOiEz179HOjaafb9SAd1+4X/4l/q9pjgj2hhinoRoUJmTS/WLxDERGmq332JamXLnYKbZdMYo4mU399J48uBub1SRDHx5GpOmyuZb8pZwtAzKE7GQ3T3iiPXn4wHxt7GUEceLL/gxbdIRnMTpK9prLl+oE6A2wKfsOA1rnM60MRpz9jfXnIiHmFjt2Xkcp3ZFudbJeAoQkQUK8fkcOH6Zzh45MmzIVXx9fALLnyMGAwYP55ttVNG7aVP0pQogs7OmTJ5w7exZiO8JVqlxFHSKSsCEgJ49jjElA51xhlLdP2aQ/49Lj5+dvOnvGzrUW1R1jp3u2LlSumDu+VE4J4rb7gxc6qCUoKDj+wE1NLipULWt5f0agy0fhQjnMzlHy4tYNv5T9/MmIvPQjs9ZeJwzApiyd+zQhtzroTdAWwG1IT0rHLTXp7/Pv2h08u76d3TehYqe3qGrt8lImIUmQEK/JrZs3GdR/AIP6D+DWzZsA6HQ6OnXpwrerv6db9x5y6rsQ4gXbt20z/b9TF/PyI5GcIL2G1f7GMjgHjYEx+RPoEZzZGEK4f8/bmARpclC9dXMKmtqBOVCpfi3ijxrS8/j8GTxTkAWEPbjPs9g4bcHGtKyZzBqHoiSxbciAPuZNJKM2lHMtbVZ6FsPtwwdS9PMnLZqrO/dzL+5H0hakSFF1gVusN7ALxb5mfwY2idsnpuB/YC3zVm3njq4Gnbq5vlCKl1VIEiTEK+bj7cMnk6fQuUNHjhw+bLq9foOGfL1yJUOGjyCXo6PF5wghBEB4eDj79+4BIE+ePDRq0kQdIpLw3XNHgg3GqU6/PCEUslGdnJkJGQLPcv6WscTLpoQbbzXJazHZy1G3G61dzA4+vXeQvdfj96QmLJTrVzwwbiXKRvmOnan8wl4fDdmzmx0qqvflmVdi2UUMTx77mFarQHlNuYGWPHXrU8Gs+ivm7k7+POpn9r2oKcTERJsldHoM6h/LEMKDR2Y/j+E53t4JJ3mGgCBTm3F4TUmRthjdhveIb4UeeYVt2+9iV68bnZxT0B89k5IkSIhXJDw8nOXLltG6RQt+37QJg8H48li2XDm++PJLJk+bJh3fhBBJOrBvL+HhxrNs2nXoIKvFVngUrWNjoPHAynw6PYPzGpsTZW7R3N/xH5dCFbArRYcR71BRnazoStN1UCdKxj2VDE858Mc+Es1XAIPPUfaeDkAB7Mv1YEiXkmZnzcTRUrCwU/zEUn+PwzuvxJfQmYRyb9+3rD3oFx9rCCckOK5bg4oSSXR0ChMFJZLIKLPYBA4i1RZqRffWReO/f4MfJ35Yxva7iSSCEXc5eOxufMmcIYTnfqpYrS22NmZT6pib7PznorE0zpzem8Or/+SiaRuSQlhYeIIJmKKPIf7HVoiOMk/ErJe9/mD61zPbEKXJReNu7SmchTOBLPyjC/FqGAwG/vrjT9q0aMnSxUsICzO+DDo5OTFu4sfMX7RYavqFEMlSFMVUCmdjY4Nbh47qEJGEpb65iYldl3g/XxDZtS8zhXxTNGjM2lIbgh9y70liG/kN+J//iZX/eBClc6L+8Cn0rWZMAtVyVO/HmL7VyK3FOBG/+DPf/O1BbAMxS3ovDq35jQuhCrpCzRjxcS9KJ5iL63CqW48ypv0lep7uWMCc73Zy6Z4X3o/cObvvL76fPppP1vnRdJD5BDyci39+x7YTV/F46IvFEbaRAQSExv/ulIhwwhP7VUZ78cw3/k5DSBBBLyR3OajWZzAtCsWncQb/c/z06VRWbj3Lfb+I2KRET8DtA/zyxRx2PNGZtRwP4+yPn7Jw1U9s+G037iEYV8cqOluW2a39gOHz/ub0rQfcuXCQzas/Z2SHDky/UQhXx7jR9Hge3c457yCeXdnK8l9OmUbQe3vjZ/pRDDx/9IDghLKllNKVpPvA9hSKfcw1+VrStW2BLJ0IZOWfXYg0d+L4cbp17szkjz/m2bNnAGTPnp2+AwbyzarvaNq8ORrzdzQhhEjExQvnefL4MQCNGjchb9686hCRiIvhduwNNe5ZKWMXTQ/HF67JZxDZqenWjlJxB/RE32Dj9Cks37iXC/eeE2kA0BPy9CoH1s9h+twtPLCrQOeP5zLerQQJ5ioAOFCmxwxmjmxKEXtACcV9/Sxmrz3EveC4rEFP6KPT/DlvOt8e9yd72faMnjmOFkVeXAOKoyvRkT6dnOPbOBsCubFtOZ99OJSR73/M3KU/sueJC+/NmEpnZzuLs4wiHx5i048/8dc+dwJMiUsE93cf5KZZZZn+/gkO3gpJYPUkgod7t3PW3+ye8CscOfzU4mwkAG3uBgyfOZomhePTFkPQbfaunsX4gb0ZMHg4o/r3ZviExewKa86QrqUtVr70QZ7cuvOUiBz5yGsHoKNs9760K2i+GuTNye8m0KddC9y6D2LiV1sJaPYFv/40i47l438zUdfX0K9edRp3+5zzSj4ADEE32Lx2B4/MErjw4z+ybN/j2JLE1HFs2YcuzjpAS6E23WmeLjo3vDlyTtBrIucEZW4etz34cu5cDh44YLpNq9Xi1qED77zbB8fcGfeVRs4JEhlF3DlBBXV69rh4qe/OcL6YNYvz54xd4eYvWkw5V1d1iEhE30dOXIk0TsWXF/GlaY4E1zgyjKhnF9m3bSdHTl/G40mQ8bwaQGtjj60mhqhoA7b5ylCzRUfeeqs15fMmnqioRT45yb+//cm+07fwCTeATS4KFsmLLvgZzwJiyFasKg3avsXbXetQMPGsKp7ehwt//sAvm49zP8QsIdHlomT9bgwc/jY18uvQ3/qJ8ZP+4XnhytRt0pRGjRtS3SVPbOKm58GOZfyw/Ty37vu/OPHX5qBg6XJUbT+MkW4lCDy2hq83HuXm/ecvxmrsyVvKlbrdP2RkqyIWdxmCPTiwYR1/77/E01DLtEpjV4CKbfowuF9rcu2bzgdr3MlWshr1GjelaYtGVCmaw2IloVChgmR/up3pExayw8MsSdNkp0TDtxj00Vjeq++EDgN+B2bx3shf8Ih9WmpylaPLlKXMan6bBWO/Yc/Ve/hGvJjmoXHAqUwFypSoRI/pn9OjTMp/zwAYnrHuvabMPl2UAb/t4tP6WbM1dhxJgl4TSYIyp8DAQL5evIRf169Hr4+/ZFO3Xn36DxpEseLFLeIzIkmCREaRmZKgp0+e8MGI4RB7ePL8RYvVISIRu4KzMemZ8Yp6xjoYNSUMhHt74H7zPl5+IURhSzbH/BRxLkc5ZyeyvUx9T4Q3Htdv89jnOYGROnLlc8KpqAvlShcgNVNlffBDrpy7wkO/SGzyFqdslaq4FozvKGcIuou7lyPlXAtYfQBomovw5vbV69z19CNc40DugqVwrVqRYjmNSUbE/XNcjnahZrl8ia6uFSpUkEIFnUAfwN3zZ7l88zHhOYtTrmotapTJq+rApsf/xgF2H7tHWI6S1G7ZgmqFUvMoWylwC6ObjmVvkVH88d/HVM2qbeFiSRL0mkgSlLkYDAZ+37iRRQsW4u/vb7q9dJmyDBwyOFMddCpJkMgoMlMS9OOa79n6778AjJ0wkWYtWqhDRAKiFej2oBCPY2zQoLCphHcWOBdIpAeFCxWkYEEn9c3piv/m92k7bh+lJ21nw6gyCTS3yFpe5pqBEFnSuXPn6N6lK9M/mWZKgPLmy8eYceNYsGRJpkqAhBCvn16v51BsaW1uaYttFfODUbtkiYNRhUghgyfb/jhEYI6G9OjukuUTICQJEiLlvL29mTB2HO/8ryfXrl2D2I5Nb/X4H8tXfUfLVq2l6YEQ4qWdP3uWoCDjoZ7NmjfHxiaL16yk0HO91uJg1NFZ4WBUIVIo7PRa1p2KoFDHfnTKyn2xzcijIEQyoqOj+f6772jbshX/bt5sur1m7dosXb6C/oMGkS1bMidnCyFECh3Yv8/0/xatWlvcJxK3zDf+YNQBWeRgVCFSJOQMy2f/xn1dZXoPao7xUoGQJEiIJBw6eIiObu2ZP+9LQkONR74VKlyYTz6dwaezPqNoMTnsVAiRdkJCQjh7+jQApZydcSldWh0iEnA1wpZ/go0HQRaxiWFw3mB1iBCZXuiF7xjWohoVK9SlbY8hTFm4jn//WcuM/iNZcy2aot0+ol9FWVmOI0mQEAl48OABw4cMZcjAgdy7excAe3t7+vTrx7KV31KnXj31pwghxEs7dvgwMTHGfSzNW7ZS3y0SoCgwzycPxJ46M6FAIA4yuxFZTigHf1jBwfvBREf4cu/8fv5cPosJ42bz2/nnULgTkya0JOMe2JH25GVCCDPh4eEsWrCADm3bsX9ffElKk6bN+GbVd/Ts9Q62tok1yBRCiJdz4MB+iD1nrHnLluq7RQL+Cc7O1dgzgepni6Btzgh1iBBZgA25cuWwOIDWJHslBi6YScdCMu03J4+GELG2bdlK25at+HbFSqKijMetlXJ2Zva8Lxk/aRIFChRQf4oQidDz/MZ+fl85nzlTxzJm6GDef38cM+ev4p+jdzEdyC6EmadPnnDrxg0AqteoQd68edUhQiVIr2GZryMANiiZqoW/yGASzD5eJ3safzCNnq7miZCWHC7tmLDmJ6Y0zS+TfhV5PESWd8PdnT7v9Gbshx/i5WU8WyRHjpwMHTGShUu/pnKVKupPESJx0U84snICH01ezMYdRzh31YPHz7zxenSbK0e38cv8sYyevJoTT6PVnymyuIP7jatASEOEFFv53BF/g7HZb588IZS2k5bYIuvSFe/M3G0H2PrLchYsXsaq33dzeO93jGrkJBP+BMhjIrKswMBAZn06g66dOnP61CkANBoN7dq3Z+Xq1XTs3BmdTjrpCysYAjn3/Wd8s+Me2lINcOvZh3fe7kqbZnUom98+9uqcgeCbW1g06Qv+eyCJkDBSFIVDB41nA2XLlo16DRqoQ4TK7UgbNgXmAKCATs/IfNIMQQjsnKjQtBPde3ShTb0y5JZpTKIkCRJZ0j9//03blq1Y/8svGAzGNqoVKlZkwZKljPxgNLkcjeUVQlgj+vY//LLbC6e2U1iyZDojBvThnf7Def/jWXz1w1oWTu5N3SL2ABgCzrFu3hrOh6hHEVnR9WvX8H72DICGjZtgb298nojEzfXJgyH20sK4AoHk0CrqECGESJQkQSJLuX/vHv36vMfH4yfw/PlzAPLmy8dH4ycw96sFlC5TRv0pQqRQNHeOHscTV9r2qkc+9dU3XW5cmvRl6tJFjG5TCgcg5vEu1v1+jUhVqMh6jhw+ZPp/y1bSFS45O4KzcT7CmCjWdIikc65wdYgQr9kb3xQkrKRRFEUunbwGZ/1jqHvQeMm3Rm4t1RzVMyTxKukNBm7fusXNGzfQx678aDQaihcvgbOLi5zInoRwg4a9ocbDYN/NHZKpNh77+voyfNBAADp06sywkSPVIVYIYd/n/Vhxvig9vlpKX9ckuggagri2cS5fbbxKSPYGjP72E1rmlWtSL6v3IyfcI+0oqNOzx8W4vy8jMBgMDB3Qn4CAAPLmy8ean9ah0ciEKjFhBg3dHhTCW69Di8LGEt6Ut5e9QOLNKly4EAWdpIFSRiJJ0GtingQJkVFJEpSUCE4vHsz8A0HYlmjLmBnv07hwUolQCFd/mc7cvzypPHoNU9vlkaX5l5RRk6Ab7u58MuljANw6dGTE+++rQ4SZJb6O/BRgPPO+l2MI0wpmntckkXFJEpTxyHuuEEKkCQcqN2+EkxaiHu1h6aQZ/HLKi0RbH2hzUqXvVN53K0c2QwRyNSrrOnn8uOn/9Rs2tLhPWLofZcP6gJwA5NHqGZM/SB0ihBApIitBr4n5StD08vZ8XM5BHSLS0JYt/7JkwSL8/f1Nt9WtX59+gwaSL19+i1iRtGcxWno8LAyyEpQ8gz+nV0xm4e4nxGBMdEq36sewgR0on1uuOb1qGXUlaNTQoTx75kWOHDn56ddfpStlEkY9yc/xMOP756dO/vTMHaYOEeKNkJWgjEeSoNfEPAn6oqID0ypIEvQq3Lt7l0+nTePkiZOm25ycnBg2chR16tWziBUp4xWtw+2BJEEpFv2YQyu+4Lt9j4g7t16XrzLtB4ygd4vS5JBc6JXJiEnQ/Xv3GP/hGACat2zJR+MnqENErP0hDozzMl7EqmQfxa/FfdDK1imRTkgSlPHI27HIFKKioli2dCmd2ncwJUBarZZu3bvz9cpvJQESr49tMZp/OJ+Zw5pQNPZah/75Nf5b8jET527isp9e/RkiCzt5Ir4UrkHDRhb3iXihBg3zfPLEfqQw1SlAEiAhxEuRJEhkeKdOnqRT+w4sW/o1UVFRAJRzdWXB0qUMGDwEBwdZdROvmdaR8l2nsOCrsbQrlyv2hTaSZ6d+4YvJX/Lf7VD1Z4gs6tSJEwDY2dtTo1Yt9d0i1jd+jnjrjWWC/3MMo5pDorvthHgjJCfPeCQJEhmWv78/H0+YyHu93+Xe3bsQe9L60BEjmbdgIS4updWfIsRrpEdvX4xabVrg6hj/Uhvz7AQ/fjaXzbflXJOszuvpUx7cvw9AzZq15IDURFyJsGVjYA4A8uv0jM2feUpyrWYIw/umO55yHUWIlyZJkMiQ/v7zT9q1as0/f/1luq1ho8Z8s+o7OnbujFYrT23xZoQ/Psu2VZ8xYcA7DBwxhaUbzxFRqCzOhXISdxqVIfAS67/8lhPPjWdWiazpZOwqEECDRlIKl5AYBT73zosSe519coFAHHVZaSuzgQifW5zZtYHvv5zCmH7vMXLySo48k7JaIV6WzBRFhvLkyRMG9uvPpIkfmzq/ORUsyLSZM/l46lTy5cun/hQhXo8IT46vm87YMbNY+99ZnuZsQP/PV/HDz6tZvHgxi9f8zPIZb1PR0TiZM3gfZM2aI/hLHpRlxe0H0ul01KlbV323AH4JyMmtKON5W02zR+CWK4usoOq9OfPbQmaO7s/AIeOZt/xXdhy7yuMgKQMUIq1IEiQyjI0bNtCxnRtHjxyBuMYHPXqwbMVKateRCYR4cwz+F/lt1iQW/3kRn2gN2Vx7MX3+RLrWLEI2U5QdBev246P+dcipATDgf/xPtnvIpCYrCggI4NaNGwBUqVqVHDmNZ9+IeJ7ROlY9Nx6Kmk1j4BOnAHVI5qXJTvE6nXjvw2l8Mv5tqsRePBFCpB1JgkS6F7f6M33qJ4SEGNuMOzu7sGDJUgYMGoy9ND4Qb1L4DX6fM4e/rgVhADQ5qvPehD5USnBOq6Vg45ZUyxE7odE/4OjBG4kfqCoyrUsXLpj+X6defYv7hNEX3nmIUIzTlPfzBVPUNguVgGlzUsS1Iq6uFanW4l3eapBPJmxCpDH5mxLpmnr1R6fT0evdd/lqyRJcSkvjA/GmhXD+x0X8dTMc4y4FHaU6D6Bt0SQOu8xWkhKF4l56DfhevYRnFprbCaOLF86b/l9TusK94L/gbJwIN17gqmAfxXt5jBfAsiYdefM6SvcxIdKYJEEiXUps9eerxUvo3ec9bGzitpgL8ebo721l476nmHIYh6q0aVcG4w6GxDhg3gRM7/2Ep7IUlKUoisLF2JUgp4IFKVqsmDokSwvUa1jgkxsALQqznALQZfEMQKtL4sKKECJVJAkS6U5Cqz/vvNtHVn9EOhPNtZ17uGs8mgoA+4qNaVAguZfVcCIizT6MjpZyuCzm/r17BAYY97fIKtCLFvnmxt9gnPS/lyeEinImkBDiFUju3VqI1yap1Z93+vSR1R+RvkTf5MwFX+Kbu9lQpmZNcif3qqp/hrdP/GdpcuQkR3KfIzKVC+fjS+Fq1JQkyNzpMDv+DTaeCVTEJob38wWrQ4QQIk3IW69IF2T1R2Q0Bn8P7pslM2gLU65CfpIrWtF7P+RxaPw5J7qipSgp+X2WcvH8OYjtcFm1enX13VlWlAJf+OQxfTzNKYDs2qx0JpDI0LJ4yWZGJEmQeKOePH7MgL79LFd/XFz4aoms/oj0Te/ri8VZp7ZFKF486d1AACHu7jwybSLSUbJadfLLK3GWERERwQ13dwBcy5cnRw7jqoeA1c9z8SDa+DfULmcYTXOY140K60Xgff0w29avZOm8z/nskynMmD6Lr5asYuP20zwITqQjS8Rjrhw5xJHDif87dvERL5zYlMjnHb/yBLOqYRUDoY/Ose+P7/lm3ixmffIJs2fPZ+VPf3PomncSn2cp0vsahzat5IddD0x7NKP9rrLrxyXMn/Ep877ewMknKR1NZBXy1ivemI0bNtDRrT3Hjh4F89WfxUtwcZHVH5HOabUWL6DanPnJn2y39mAunnXHNLWzcaFew5LJrx55nWT3Ca/4Bgwiw7p6+TIxMTEA1JD9QCa3I2340d94JlAurYEpBQLVIcIK4ff3snrycEZPWczmi2EUqNiAlm5taFDBkecXd/L7t58zYeREvj/yNIE9iQYifG9w4OevWbJggcW/b37cyeX7zwgINz6HLemJDPPFY/8vfBMbv/LXg9z2jYztnqmKfn6Rv7/6iPfHzGTV7we5dv8JTx/c5NLpI+z9ay1fTxnBB5/8yGmvF79DAEPoYy7tWs+yT4YzZNhkvl6/k/OPQjBgIPDyL8wc8wnf/b2PUxcucGbvryxd9A8P5EVUmJEkSLx2T548kdUfkeFp8+TF0fwV1MYmma5wYPA7xpGLIbETAg256nalbamkUyBDwDnWzV3GqUB7qbbIBKQ19otiFPjUOy8xsc/wsfkDyW9jvswqrBF+cxNzPvmandcDyN10PPPnT6TvW+1o1rwNHfuOZ86CMTTIp8UQdJsdS+ey8XqE5QAOJajbfQTT5oykbm7zVx17avadzgf9e9GpoYvZQdCxHEpSx+1/DPigKxVsgOw16PfZdAa0dMGsISYA4bf+Yd6EWWy6mZd2H3/Lz5t+ZdV3q/nul59ZOrUnlfJogWj8rvzFgk+WcPiZWfYScYNtCz9m1MBRfLZ8IwevPCHM7OkSeXMj8+b8zs0Qy9Qr6v4t7sriojCjURQloQRdpLGz/jHUPWic8H9R0YFpFZK9ZJwpbf/vP6ZNnUpwkHGzq06n4+13etPj7bcl+UmnvKJ1uD0oDMC7uUOY4pR5rtD6+voyfNBAADp06sywkSPVIYmLdmfdh5P51zP23TdHMyb+NIlGif5pR3DzpwlM/8tYrqHJWZMhC2fRsVjiSZDe7zTrZi/kvwfO9Fs5j7eKJB4roPcjJ9wj7cipNTA8b/rcUL93Ul9CvTyxzelIh+Wb0WjlWuTJMHuOx54JVC9bBKuL+qGRjN+MngcbJjDxNw/jarDOhbcXL+Xd0gm8HkTfZsPESfxxNxqwo+64X5naSp2uROO+5gM+/fcJBjTkbDSebya3TKCpSzS3fx7LJ3/ElZjpKNlzAYsGuCa5eh1+YhHvzzuETdsZLBtT54VkSe+1jyVTl3E8pAy9531Jr7J2qggDgSeXMWneXozbLjVkr/0+iz/tQEEdoPfD80E4djmiuP7rPJYfeBrboEZLkbZ9qHJrPwEtRzOkrRP3//mab/+5SqAebJx7M3dpX8om9c2/hCJFCuNUIL/6ZpGOSRL0mmT1JCgsLIzPZs7krz/+NN3mUro0Y8aOw9nFxSJWpC+SBCVGz4NNHzNp/S1jOYm2KJ3nrmBw5YTXg8JvrmfmtI14RAI2hWk2dg5jmhdKZDIRjffZP1m9chPnfWLQOfdm/tK+JDTnEfHikqD0yub5E0rN7gRASI22PBvwlTokS8uuMfBXSW+K2krNkqWUJ0HRN9YyfvLfPDYA6HDtv4I5bxd/4XUmcMcMhq08TwygydOayT+Mo14CfzoGn53MHbOC87HNXLQF2zNt+WhqqjMbk2COfDmcpSdy0XnuCgapXw8NPuyb8yErT4dRoudXLBhQPuEVdP1dNowbxx/3Yp8L2sJ0/GIlQ6tafpPR7j8wdso/PI29FqWzyUPVQXOZ2rVk7LjR+F07wok7BpwbNKdKwQS/WpqQJCjjeSHvFyKtXbl8mS4dO1kkQG/1+B/zFy2WBEhkYDpKdRpAe+fYN2XDUw7/vQ+vBOZvobe38vX8P4wJkH0xmo2exQeJJEDht/5j+aShfPjZr5z3MdbdK74HWTlhLBMnLGT34wS+gMgQst0+bfp/WPmGFvcJmFAgUBKgl6S1tcXWtIqmw8Y24QoLe/v4ZEAJ8cY7IOHyQ61Tczo3K2iaLBp8jrD9sPnRAJYM/ic4ciEYbcmmNKvwYsIRcfUv/j4bjKJzoVGLsgknQAC6ElSumC9+kmrw5sxR9xf2L2nz5sW8Yk9TqhMDOsUlQAC25K/cis5d27zSBEhkTLIS9JpkxZUgg8HA9999x5JFi00bgfPmy8dH48ZTrUYNdbhIp2QlKGnRnvtZNe9bDj4MR8GWgrW78XbXRpQrYEOY70NunNzLrv0XeRZpQx7XVrz7/mDalsmpHsYk/Ik7N5+GEfNkD6vXHMVXcaR2/7F0cNGBNhclqrjiJO/lCYpbCcqr1bO4yHP13W/clhULuHxoDwDvL/uJfIWLqkOylH+CsrMl9kyg2g6RrC3uqw4RYNVKEAZ/Lm74hp8PeWJXoRvDRnWiTAKrNhH7Z9N/ySliAHRleXfZIt4umcB4gP7RH0wbu45bsc3VbEr35svFCa1MG3i+YxajV16mRP9vmPt2CdWFnlBOLBzOwkOB4FiHd0d3xPmFMeIohJxdz4od90wNYXQuvflqSV9czD7H4LOFWcNXczUGQEuhzl+wbES1xJOrV0hWgjIeSYJek6yWBHl5eTFx3DhOnjhpuq1egwZ8MOZDcjk6WsSK9E2SoBSIeMTJLX+z6+AprnkGEWN6VdWSrYALrlWqU7dFB1rVLkLK/vINeG/+hNE/XCUmW31Gr/mUVvJnk6y4JKigTs8eFy/13W/cyKFD8H72jLz58vHDup/Vd2cp7pG2vPfICT0acmoN/F3yGYWkGUIirEiCUiDK5zpHfv2GVfsexY5Xlt5fL6JXYk1aDIEcXfgBS44EGJu6aPPT6pOVjK6vau9u8GH7jJGsueHK4BVf0LmQarzoC6waPpPdvqn8PedoysSfJlvsu1QnQUW6zWPp0MqSBIkUkXI4keZ279xFJ7f2pgTIzt6eEe9/wJRp0yUBEpmTQwka9PqImSt/Y8Pvv/LdyuUs/W4tazf9xS8/fs3MCYPpmOIECCCEa1fvEAPYlKlKlcQXjkQG4evri/ezZwBUqlxZfXeWEq3A9Gd50cd2g5tYIFASoFfNEILn6X/5YfYYPpi8mpNPoxNsW50gbW7qd21D8bicxuDH8W0H8FZVLup9jnPSPYrsVVvQyOnFhErve5eH/sbfs65cb+Z8v4Zvrfn39XBqvonsRmRakgSJNBMeHs60KVN5f+RIAgONqwXOLi4sXLIUtw4d1OFCZEo6h9w4lXCmZNGC5Mlum7oX2YjrXL0ZAegoUaWaHKaaCbhfu2b6f6XKVSzuy2q+fe6IR5RxNtskewTdHcPUISKtRHhxaetKPhs1nJkbbpOr+Ycs+G4pE9xKWfXaZOvakQ7Vsps+jriynV0e5jt09PgcP87N6JzUaNmIfAkMbvD1wT8281KCQzHkL0yhwlb8K5SXbC/mVkKkWgJPUyGsd+3qNbp26symjRtNt3V56y3mL1pM8RIlLGKFEEmLvnOFG0EKaJ2oWE1dVy8yomvXrpr+X6lK1l0JuhZhy4/+xqXNXFoDMwv6q0NEWjAEcXvXSqaPGMXsDR4U6jmbrxdNpFezcuRJzWqKtiDNuzbFKW7WqH/Ega2nMDWi1z/l+PGb6PPWo1kd46G3akpEJJGxSZDB3xvvTHZmj3R1z3gkCRIvRVEUvl+9mp7du3Pv7l0A8uTJw4zPPmfQkKHY2qbm1VaIrEzP0yvX8DaAJmdFqpSTv6HM4PpVYxKUM1cuSpYspb47S4iKLYMzxE4XJxUIoGCqyuD0REdFEBmR9v+iojN+dzpD4BX+mDWGT5Zv54a2DsPnzWVk2zLkfMkZX7aaXWlbNu71SCHg5DYOPDE+XnrPo5y8baBAw1bUiF8wsqAx71wX7YH7zdhOC0K8IS/5JyGyMm9vbwb268/8ufOIjjYui9euW5cly1dQQ05CFyJ1DP5cvfoQPWBfoSoVU76RSKRTQYGBeD56BEDFSpXQZNGTQJf7OXI32jiJbp4jnK6O4eqQFNHf28jUXj159+20/zdgjrF7X4YVcolfZnzGhgt+6LWFaf3BR7QrlUYvIroStOlSH8e4p2/kdXb9504Ueh4dO8E9pSgNW1QigeOGANDmzEn2uM81+ON+6c4LLa+FeJ0kCRKpcnD/ATq5tefY0aMA2NraMnTESKbNmEnu3LnV4UKIlAq7xjWPaMAGlyrVkJ4IGd/16/H7gSpn0f1Al8Lt+DnA+Gx21BqY4RSgDkkhA36XrvDQbMFGl6MwZWs0pFm7znTu3pP/vdObt99pQ7kc5smmlvw1uvD2u+/S693e9OzZnQ6t6uNaMJtZGZMNLlWrmX1ORhOF++/fsu1uBAC6Es1oVzMtX0G05GncjZbFTB0S8Dq4hRN+dzl+4j64NKV5EivXusJFKWjKkAw8PbKbS1ZsB4twX8f0ubvUNwuRapIECasYDAYWL1zE0MGD8fc31nKXLFWKBUuW0rFzZ3W4EMJKUTcvczNcAV0JqlRzkv1AmYBFU4QqWS8JCjdo+NQ7D0psujHVKYACqSqDM+51uXLZgxhA6+hK21Hz+e6XNXw1expjx4xk8OCBvNe3L71aFkcTYdb/TJuXWt0H8W6f9+jdpy99Bgxh2LhP+XLVCiZ3LGVcvdAVo3K1QmZfLIOJdufIsSemc3U0+ZwokMgLSKoPR7EtT8euNUwrOkrQGbat/YsTj7SUa9aCEol8PQCyVcDV7Cwig+9R/tlxP0WrQYagC6xfvodstWur7xIi1SQJEinm7+/P4AEDWbl8uem2jp07s2DJUkqWypo17kKkrWjuXb5GgAG0+StRpaQO9F4c33b0hXa0IuO4dtWYBDlky4ZL6dLquzO9r3xz8yC2DK51jnA65kpdGRwAEVe5dCMSbb46DJw9h1EdK5PvhcUHA4GXL3Pf7G9Gk6My1SskUKhlW5B6A/rTJJ8Wbb7KVEn89M50zxDiydPn8cmlEvQc/wRfNwyEhFguwaQ8KdLi1PJ/tCgcN32M5s7hozy2rUKzpkWSvmijK0KDhq5mZ/iE475xKRuvBJNUSmwIcefv+QvZZ9ued1oVUN8tRKpJEiRS5Mrly3Tr3IWjR44A4ODgwMTJUxg6YqQ0PxAiregfc+nSUwxoyFGxGmV1Ydz8Yz23C1dL9IquSN/Cw8K4f8/YNKZChYrodFnrF7knxIG/g4yHahbQ6fm0YGrL4Iyib17EPbwQLd8fS8fS2dR3xwrj2qWbFisM9hVrUjmRDftkr0C5UjqyV6yGazp9OzMYzLMZBSWBrEFra4vOrAJQf/84h24aS+PM6Z+f49+9N4mJu0GJICIigQET41CZzp0rm517piF7jeY0SLaXv44irTpTL4/ZNxnhwebZn7Byu3sCCVsEXuf+ZMnHn7LhdiG6juyJqS9DLEUfY3Y4NcTEmH4qIZKV3DNWCDb+9hvv9HybJ48fA1CseHG+WryERk2aqEOFEC/BEHgN94d6QINt5GOO/LyEzZpO9KrjKC/WGdTt27cxGIwTzIqVKqnvztSexWj5zDtv7EcKcwr5k1dnxWT7BdHcu3gdGg3gvbp5Ev+biHLnsnu42WGgtpStXp2EGzcD2GFn54BrtSrYq+9KF6Lx8w2IXy1RggkKTuBxzFaWMqYTTQH9A7bN/4yf91/l4dNH3Dp7gH+/n82EMcu5n7+UWZMCLy4du87zED/uHN7AzqvJFajpKNyqKw3iDgPSOFK7RQPyJPoLiafN25T+gxuR1yxWCb/H/m8nMWrgcCZNn8M3K1awfMHnfDJ8IGNm/cQxrzw0HjmRXhVebPBg8Pcn0PSLNhDk9ZTQBB4aIRKSgqesyKoiIyKZNHEi0z+ZRlSUsZVlo8ZN+GrxEjn7R4hXQWOPvZ0GMPD87A5O2ndmxNsVSex6t0j/7njcNv2/nKurxX2ZmUGBqV75CDYYpxkD8oTQIPvLHgwTSYhdNXr1bpTkhDva4xLXA8xmwrpSVK2RP/EJjyGMaE15qlfPlXjMG2Mg+Ma/bDkZEJ/UGfw5t+coz9S5is6Zdj0aWiQY+udX2LxkCmOHj2LKZ4tYfziE6u9/yacjmlLKlC/FcH/zNIa+O4DJ37ujOKbgUchZh3bNi6AFtPnq07x2ShswaHFq+SFTBtay+D5BISrgCR6XTnBg5w72Hz7NjachKLnK0WHCF4xpVfSFUjtD6H0ObTnGM7NfdeSlLWw6452ifUZCaBQl5ZWgIvXO+sdQ92AIAF9UdGBaAlc00pNHjx7xwciRXL92HQCtVkv/QYPp+tZb6lCRyXlF63B7UBiAd3OHMMUpUB2SYfn6+jJ80EAAOnTqzLCRI9Uhr134M3eueISQu0xlyhXOng4nZelX70dOuEfaUVCnZ4+Ll/ruN2LBvHmcOH4MgHW/bSBXrsTXIzKT75/nYvlzRwAq2kfxS3Gf+DNiXik9DzZMYOJvHqYGAdri/2PuskHpttQtQQZ/Tq37mn/P3+P+Qz9erFbTYJenGM6lSlCr53h61Yi7VBLK7W3LWfbzMR6Hx3+SxqEwVVp2o9e7HamcVweGQM6vnsL8/x7FJgwaspdsTr8JH+CWaJmhOQPPt05j5OprFOgyl6+HVzHb65MS0fhd/o/ffvmHYzf9iFLNRLU5ilK5cXv+17sL1ZwsR9Z7H+T7RRs5fecJAZEvPDCgsSdv8VIUK1iGlkNH0tJ8dewVKlqkMAUK5FffLNIxSYJek4yUBB3Yv58JY8cRFBQEsYefTpwyhUpZtLVrVidJkMgo0mMSNGLwIHx8fChUuDDffr9GfXemdDnCloGeTujRkE1jYGMJH5ztXtNeDYM326YPZ+2VuK+npUCHz1nxfg0rJ+kZmz7Yk1vXb/PQJ4JsBUtSpkIFijmqkgF9EA/OnuDyk3AcCleidh3XBJpMJCaEI/OGsvRUfnosWMZ75VKbaBgI97rJ1ZuP8AsIIUqbnTyFXahQtTwF0+80KUFFixamQH5JgjISucgoTAwGA0sWLWbY4CGmBKhCpUos/HqZJEBCCGGlwMBAfHx8AChXLmuUwoUYNEzxyoc+th32ZKfA15cAAYRc5oqH2dfT5KRSjfJZKgEC0OUqTsX6LXHr3IFm9Sq/mAAB6BwpVd+NLt3fom1DaxIgIOgsJ6+EYlOuJc1LJzB2imnJVrgidZu3o323HnTt0p5mdTNeAiQyJkmCBMS2vx4ycBArvvnGdFuXbt2YPXce+fLls4gVQgiRPI/bt0z/L1OurMV9mdUc7zw8jrEBoF3OMLo7WnEaZhoIv3aJW+YN0RwqUr1KSsq7RMoZ8D68lwshDlRp3YKiL5MDCfEGSRIkTO2vjxw+DLHtrydMmsygocOyXDtXIYRIKx634psilM0CK0HbgrOxPcTYh7qwTQyfOr1cO2zrReNx6RrBZkX+duVqUDWle/ZFykRcY+vWK0Tla0KHpgVkIikyLHnuZnF///lngu2vGzdtqg4VQghhBY/YznAajYbSZcqo785UPKN1zPXOA4AWhXmF/HHUveYtx/r7XL7qZ3bwpo6S1WuoupCJlxOG+8bv2fNEi0v7rtQ0HgElAGJLQEXGIS8NWZSiKCxasIBJEz+W9tdCCPEKeNw2JkHFS5QgW7bMW5IVo8AUr3yEKsYpxbC8wdTKZnxfeZ30zy5x9bHZiZvaYlSt8WJrZZEC4TfZ/Plw+nb/H4NGTmTO1z+z/eABtq2cwfx/7hLj1IJ3OrvIYysyNEmCsqDIiEjGjvmQb1eshNirlP0HDWbilCmZ+o1aCCFeF18fHwIDjOVgZcuVU9+dqax87siVSDsAqjtEMiJfsDrkNTAQdPky98x6ImgLVKG6i0zTUyP87Gb+PPuEsJhIAh/f4Nze31mzaBFrd9wgiPw0GtiXWlJmKDI4SYKyGD8/P/r2eZf/tm0DwN7ensmfTOOtHj3UoVmYgfBn1zn67zpWzP6YDwf3ZeCgCfxwyt+szCKOHt/zf7Fq9ng+GDiMaauO8MzsQqQQImuKWwUCKFM28yZBB0Mc+MHfOBvOqTUwr5A/ujdSFRTOtUu3zA7J1JCrcs2MdTZQOmKTIwfZEvw9OuDSdSxDmiRx+GwWleDDJdI1eQ5nIR63Pfhft7e4cP4CAHnz5eOLL+dTr0EDdWiWpfc6wKpPxvPpgl85cPY8Fy644+kTQJDvTXau38pd8wTHEIz7X7OZ+vmP7D59i6d+T3Hf+RcHH0kWJERWd9usM1w518yZBD2K1jHNO69p+vdZQX+K2b6h178ody5fDyN+F1I2KtSognRaTh3b6r0Y2KYUDmYze222otTvP4Ppg2qSW2aPIhOQp3EWcfzYMd7+Xw88PT0BcHZ2Yf6ixZQpmzXatqaUzqkhAz9bysKFc/h09mK+GFjV9Caqf3Sa0/fj3uCjebR9IQv/DqBi+/bUc86FDtAVKEOZAlJ+IURWF7cSpNPpcHYprb47w4swwPin+QkxGKcRA/IE0yaneW/q1yv6ziWuBZit1du5Uq267NpPNV1BGo9ZysqvZzNx3HjGTf+Sr9d+y+S3q0mjCZFpyFM5C/h90yYGDxhIcJCxTrtW7TrM+eorChQooA4VOgccTOUTOgo2aUYF+9gP9Z7cdPfHgIHgiz+xeFMY7WbMZfzI0Uz5ei3fLl/Oiq/fp47USQuRpSmKwh0PDwBKObtga5v5arK+8MnLrSjjz1UnWyQf5TcesP1m6Hl66QreZjmQzqU61fLIFOfl2JLHpSaNWrWiaf0qFMspF/hE5qJRFOU197DMms76x1D3YAgA2XWQ/TUUTStAeFgYERHxV+fs7OxwcMiaBQKHSnupb0qe3pO/Jn3Ar7f0gIbcraezarCGHyauILDnl0xqV8Tq7jjN7xZW35SuGRQIUow/5bu5Q5jiFKgOybB8fX0ZPmggAB06dWbYyJHqEJGB9H7khHukHQV1eva4pOLvPY08efKY0SNGANCuQwdGvv+BOiRD+z0wB3N8jO2wnXR6NpXwJr/NizsmXxuDN9umj2DtlbgdQTpK9lrIon7lrH59FiK1ihUtQv78crh8RiKXSd6AMD34Rimv/J9flEKYTTYMOfOa/kXY5SDAoMuS/1JFV4hKFQvF/qEohNy/zI6133PJdRgj21ifAAEvfF/p/V9cAiSESBmLQ1IzWVOEKxG2zPfJDYANCgsLP3+zCRBAyBWuesS3REBbgMo1nFP1+iyEyDpkJeg1MV8JKpVNQ4nsry7/jI6OxuO2B6GhoQBotBqKFStOrly51KFZyk/FfdU3pUjEiUWMnHeAIAXQ6rDJ05APFk+ief7U/Q4HemasMsQoBa5FGmsCZSVIpGfpZSVo7fffs23LvwAsXvYNzi4u6pAMyV+v5Z1HTjyLsQFgUoEA3stjfJ95kyJOLGbUvP0Exs5mNHlaM/n7cdTLmkUP4g2RlaCMR5Kg18Q8CfqiogPTKryaV+fbt28zdNAgHns+BiBfvvx8MmNGpj+t/FUy+O/gi2EruBgJYEvFQSv4vEfWOYDPK1qH2wNjCZ8kQSI9i0uCnHR6Npd6pr77tZk9eSK3b7hjZ2fP6o1/oNVl7FcLe42CDhj1JD8nw43vXe1zhjG/sL869A2I5uqqkcz675npCIPsjSawampLZHumeJ0kCcp4JAl6TV5HEnTu7FmGDBpMSLCxAYKziwvTZs4kf/6MtfKQ7ujvs2nCR2y6owdsqDR0NZ93K5hlakklCRIZRVwS9Ka5TGmCNjKUiFLVeDx2nfruDGdKgQB89VrW+DsCUMYumvXFfciuTQfTB70Hv42dwJ+mzp12VBuxmhmdC2SZ12iRPkgSlPHIa0QmcfzYMQb2629KgGrXrcuc+V9JApQWdMUoVzp37B+Lnke3PYhSxwghBKAL8EYbaSwRiyqcOVpj3460YY2/sZw6u8bA4sLP00cCBOg9z3DB/Gw2XTFcK+ZNk8lNdPAzHt7x4P6TANNrfpTPE3zlDUCITEFWgl6TV7kSdGD/fj4YNYqoSOMrc+u2bRk1egxabVq8DQhD0BlWTfyCvU+Nb7Ta4j2Ys2ww5TNf19sEZdSVoNu3blGiZMkkuyFauxLkfv065VxdsbEx7okQ6UvcSpCDxkDbN3RmTYj7WR4u+giAgm9/QAG3PuqQDCVYr+FUuD3hivH9ZGFhvzf22L7AEMTZ5eP5co+XqRQOm6oMWTOHTqncswlgCLzKvyu/5Z8LIRSsUpVS9v7cveODTYECGLxz0GnpNFpJrZ1QkZWgjEeSoNfkVSVBO7ZvZ9yHHxETEwNApy5dGDxsOBrNq2/BnSUY/Dn59USWX9Ni7/MUfwNgU4VB382lS8HUv8lmJBk1Cbrp7s6CL7+k/6BBNG3ePMG/iZQmQd7e3qz74QcMBgOTp01T3y3SifTQGGH7tq2s+e47AD6ZMZM6deuqQzIMvxgt/TydeBzbCGFAnmDGF3iT5wHFi/a/zZENy1m78w5h5rMYTW5qD5/D+I7OZEvNS7TBj4PzP+Kb4xFUHracmV0LowOiHm5n4bRVnM/Whc9XDKNSFrkIJlKuWLEi5M8nSVBGkpqXCJFO/P3XX3w0eowpAerR822GDB+R4GRPpIYBvyOr+eFsEXpPG0m9uCuLMfe44R6uDhbpjGuFCuRyzMXSRQuZNnmS6fBKa0RGRLDh1/WMGTmCE8eP4dahgzpECAuejx6Z/l+8eHGL+zKSSAN89DS/KQFqmj3iDR+ICqDn3pYvmfLBIAYNGsfyHaoECEAJ5Nx3HzKo72DGjJ3Ap1/9yx2zarnkGAJPc/hsAIo2F8VL5jc1wLEr6Ub/rmWxcypM4Yzd50IIEUuSoAzqt/W/MmnCRAwGYxFAn7796DtggDpMvAS9115Wr3XHdeiHdHCpQOXy2TGml+F4uHtgdiqFSIc0Gg3tO3QE4Ia7Ox+PG8uKZV8TEBCgDn2BoigcOXyI0SNH8MfGjURHR1OocGGq1aihDhXCwmNPTwBsbW0pWKiQ+u4MQVFgundersQ2mShvF8VXhZ/zGs74ToYOl65T+HLFj6zfvI2/tyb2bwsbf1vLN0sXMXtSN8pYkbQoQQEE6wHDc66cN9//qaNQ1WqUK1qEXDJzEiJTkD/lDOiH79cwY/p008eDhg6l5zvvWMSIlxR9n/+++ZmnDccwsnlBdGSjYuUyGK+JGnh+4zqxW4SMt/gcY8Mf5zAWPIr0olmLFhZ7gvbt2cMHw4ex5Z9/iI5OOI29e+cO06dMYcmCBfj5+Zlud2vfQfbZiWTFrQQVLVYswz5fvnnuyO6Q7AA46fR8U9Qv3TRCeNV0hcrinFsL6Hmy8ye23Yt/nbAt04lhPSohlXBCZA4Z8xU6C1u+bBnz5syB2Cvdo0aPpku3t9Rh4qWEcG39Uv6N6cKHA2vHXvXTkqdKJUrEXlHUe17nekDsVtyI2/y9eBP+JcthnDaI9CJb9uw0a9nS4rbw8HB+WvsD48aM5srly6bbIyMj+Xb5ciaO/Qj369csPsfGxoZWbdpY3CaEWlhYGP7+xrNzimXQUrh/g7LzQ2wnuGwaA98U8aOQjantQObnUIuOHcpgByjh1/jzm03cjOsDYetE8SLyKi9EZiFJUAby1ZfzWbp4CQBarZYPx4+nrVt7dZiwht6H0z/OYurUOazetJcrDx9x+Y+vWHqsKAMn9KSsWf8KXbGqlC8Q+ycTeY39O28THv6QfcsWcrREP/rVdZQ/qHQosX08Tx4/5psli00fHz54gD27dlrExGnUuAmOuXOrbxbCgsV+oBIlLO7LCE6H2fG5dx4ANCh8Wcifig4Jr5hmXjpc3hpKJ2fjek/E7T9Z8fNFWeUXIhOSOVsGoCgKn82YyepVqyD2qvTEyVNo3sLyCrewnv7pQf7+9yw3r55g5/qlzPxgFJ/9FUG7j8fQtKCqkNzWldrV486fiMJj4yQG9BnDjz4tGDWortSJp1MuLqVxrVBBffML4hqMJMSto3FvkRBJeewZnwRltJWg+1E2jPfKT0zszseJBQJpkV5aYb9uDpXpNfp/lLEHiMFz+7dsuhSmjhJCZHAybUvnDAYDUydP5peff4bYzbZTpk2nQaNG6lCRCrr8pXEuEJ/saHJWoPvkqfyvfDaLOCMHqnZwo7R93McKDmW6MX7qOyQYLtKNuAYJqVGyVCkqVKyovlmIF3g+MjZFIIOtBPnrtXzwJD/BBuOUoJdjCH3zGA98zarsy7/DqJ7lcQDQP2bf7/t4ZkWXOZEVvfHOIcJKkgSlczM//ZQ/f/8DAAcHB6bP+oxadeqow0RqZavNkPnzGDtsIH2HjmPmki/oWzPx08Zty/Zm2txJDB4wgMHj57F43mBq5UssWqQXjZo0IWfO1J1u6Naho7SdFykSVw6n0WgoWrSY+u50Kcyg4aOn+fCMbYXdOHtEhjkLLO3oubf9b07H7fMEwJbSPYbiFrsRNML9FBeCstDeKCGyAJm9pWNLFi1mw6+/AZAtWzZmfj6bqtWqqcPES7LNX4lmXXvSo1trqhVO7hBbLbldm9G559t0blmZAtImKEOws7OjVZu26puTZW9vT3NVYwUhEuMZWw7nVLAg9vamJeN0K8IAHz7Nz6UI4/da1i6aBemiFfbrFsnDizs546EqibVzpU3LMsazghQ9esmBhMhUJAlKp35et44V33wDsSVwn3w6g/JSkiNEqrXrYH0TkWYtWpI9u3SDEsmLjo7mmZcXAMWLp/9SuCgFxnnl50y4MQEqahPDyqK+5MgirbAt6H3x9vXm8qlrWO6C0pAjh/F8OG0BZ5wdZcokEpflrh1kAvIXnQ5t27KVz2fOgtgucOM/nkTlqlXVYUIIKxQtWoxq1a077LS9NEQQKeT19Knp8OpiJdJ3U4RoBSY+zcfxMOPKdyGbGL4v5pu1WmGbM3jj42fA59CvbL1tlgYZfDl1+jZ6TU6qdO1IBVn5FyJTkSQonTly+DATx483fTzyg9HUb9jQIkYIkTrWJDWu5cvjUrq0+mYhEmTRHjsdrwTpFZjilY9DYcZuLgV0er4v6ktx2yy86z/MFz99QVyKBrFz7hSW/ryZ3bv+5df5n7HxQQlaDp3JhE4ljGVxQohMQ5KgdOTihQu8P2KkqVVv3/4DaNOunTosXfPz8yU6OqudKyEyijr16pE3b171zQlK7HwhIRLy2NOsM1w6bY9tUGDas7zsDTUmQPl0er4v5kspuyycAAEGjQudpi1gwdLV/PDtDLpVc8LePj8Vuk5iyeqFjO5aUY5AECITkj/rdOKOxx2GDhpMeHg4AF3eeoseb7+tDkv3NBotY0aNZN2Pa/F6+lR9txBvlI2NDW3c3NQ3vyBHjpw0atJUfbMQiUrvB6UqCszyzsOOEOMet9xaPauL+lLaLvHzsbIKrWN5alWM7QrqkA+XGo1p3qIJtSuXIo+UwAmRaUkSlA48ffqUgf36ERAQAEDzli0ZOHiIOixDyJcvH24dOvDv33/z/vBhfD5jBqdOnECvz9pXGkX60badW7Itr1u1aZ0hunuJ9COuM1wuR0dyOTqq736jFAXm+OTm3+AcAOTUGviuqB/l7CUBEkJkXZIEvWEBAQEM7NePp7GrJrVq12H0R2OTnaSlZ527dqNwkSIAXLxwnvlz5zBi8GA2/fYbfn6+6nAhXqsCTk7UqVdPfbOFdu2lFE6knKIopnK417UfKCYmhpPHj/P3H3+w4df1bPnnH27fuqUOI0qBKc/y8keQ8Zys7BoD3xb1paKDlC0LIbI2SYLeoLCwMIYOGsQdjzsAlK9QgY+nTEGny9jbL21tbRk8dJjFbc+f+7Fpw2+MGDyY+XPmcPHCBVMnJSFeN7cOiTdIqFqtGsXS6Z4OkT75+vgQGRkJr6EULiQkhE2//caIwYP4at5c1v+8jj82buSntT8wecJ4Jo0fz6GDBwDw12sZ+rgAO2NL4LJpDKwo6kc1SYCEEEKSoDdFr9cz+v33uXjhIgAlSpZk2sxZ2Dskd1hnxlC7bl1q1KylvhmDwcCpkyf4fManjB45gs1//01QYFY7nVy8aTVq1qRQocLqmwFws6KDnBComiK8ygQ6OCiIT6dOYdOG3/D391ffDYDH7Vt8vWgRi1Z8R99HTqaDUAvo9Kwt5kutbFHqTxFCiCxJkqA3ZOFXCzh88BAATk5OzPj8c3LmNJYrZAYajYbBw4ah1Sb+FPN6+pSff1zL0IEDWLpwIe7Xr6MoWfCgPvHaabXaBA9PzZMnD/XqN1DfLESS4vYD8QpXgoKDgpgx7RMe3L+vvitBx3ZuJWLTAgDK2UXza3EfKskKkBBCmCQ+QxWvzM2bN/j+u+8AyJYtG59+9jn58xdQh2V4xUuUoFOXLuqbXxATE8PhQweZNnkS48aMZsd//xEWFqYOEyJNtWrTFhsbG4vb2ri5vXCbEMnxfA3tsX9Zty7FCVCc3Ed/p87dA6wr7kPhrHwOkBBCJECSoDdg185dpv9/NGHCK7tymB706v0ujlZ0Snr44AHfr/qWIf378e3y5dy9Y9wvJURay507Nw0bNzZ9rNFoaNsu+fbZQqg98/KC2BbsTgULqu9+aSEhIRw+dFB9c4qUOvYrObSywi7EK5dx+1llWZIEvQExsYeJvt27d6YvvcmRMyfv9R+gvjlZkZGR7Nm1k4ljP2LyhPEc2LfXtPFYiLRifiBq7bp1X8kEVmR+fr7Grpf58ud/JZ099+/dS1QqX/8unj8nZ7YJIUQCNIpswnjlnj55Qo++g/GMMD7UuiBfbEKeY2dvb/WFg7hf18u80SqKAhqN1V/bnEFR0KRwDAWIjopKk/0+Wp0OnU6HNvbnt+b7SEx6GiPu50qtVzGGQasjJK+xxMcuIgiH0IQ3ZJtTj5Ear2MM8+emjY1Ngp0ZkxsjJWQMS69qjNDchdHb2KM1xJDT/7HFfQlJaAxrGRSF6ChjswGNRoOdnZ06JFnJfR/R0dEv1U0zsee2OSX2vSGp7yM56WkMYl+TUytNxkir92sZwyQ9j6HT6ShUuHCKz5jTx8SARpPs32ZSYmKi0Wp1FvuvK1WuxLz5819q3KxCkqDXYM7sL/jxhx/UNwshhBBCCJGmNv7xO3Xq1lXfLFQkCXoNHj58SPs2bYmKvVpIbHcqa6mvBKaHMTQaTYqupqi/7svQaLVoUvl9qMkYlrLqGEoCV3wVQLFijIRkqjEUxWI1V8awHCOONa+p6jHiXtvUXvb1M7mfT/19WPMzxJExLKXFGAZFgZccI02+D9XzT8ZIeAytTkfePHmws09+NdjXx9dU4m9vb0/+AgVI4k80QT7ePqZ5pYODA/nz5wcN1KxVi/kLFqR4RSpLU8RrcevWLaV29RpKmVLOSplSzsqn06apQ5LlcdtDqVOjpmmMaVOmqkOSdf3aNaVG1aqmMb74/HN1SLIuXrigVK1YyTTGogUL1SEWNv/zjyk2Nf/atW6t/PTjj0pgQKDFuGdOn1YquZY3xS1f9o3F/Slx9uxZpXL5CqYxvvn6a3VIso4fO6ZULOdqGmPN6u/VIcnav2+fUr5MWdMYv61frw5J1sH9ByzG+GXdz+qQZO3cvkMp51LaNMafv/+hDkmW+e+7rLOLsm3rVnVIsrZs/lcp6+xiGmPrv1vUIcnatHGj6ftwLV1G2b1rlzrExGAwqG9SFEVRfvrxR9MYFcqWUw4fOqQOSdbP69ZZjHHwwEF1SLK++/Zb0xgVXV2VkydOqEOS9f13q+PHKOeqHD92TB2SrGVLl5rGqFy+gnL27Fl1SLLmzZlrGqN65SrKlStX1CHJ+urLL01jVKtUWbl86ZI6JFmfzZxlGqNm1WrKDXd3dUiypnw8yTRGmVLOyuKFSb8WJuSTyVNMn1+3Zi3F47aHOsTi95+af3c8XhzTXExMjDJqxAhTfNNGjZUnT56ow5Kk1+uVD0aOMo3RpGEj5fHjx+qwJEVHRytDBg4yjdGqWXPF+5m3OixJERERynu93zWN4da6jfL8+XN1WJIiIiKUfn3eM43RrnVrxc/PTx2WpPDwcOWdnm+bxujcocML72HJCQ4OVt7q0tU0Ro9ubykhISHqsCSFhIQo3bt2M43xVpeuSnBwsDosSYEBgUqn9h1MY7zT820lPDxcHZakoMBApUvHjqYx3u7xPyUsLEwdlqTnz58rbq3bmMbo+24fJSIiQh2WJO9n3kqrZs1NYwwdNFiJjo5WhyXJx9tbadW8hWmMwQMHKlFRUeqwJD158kRp2qixaYz3R4xUYmJi1GFJevDggdKgTl3TGBPGjkv0vUwkTDdr1qxZ6sRIpL38+fPTsFEjtm3ZSnR0NFcuXyEyMpLGTZqoQxOVL18+GjVuxLatW4mKiuLq1auEhYXTpGlTdWiinJycqFuvHtu2bCEmJoaLFy6g0Wio3yDlDRoKFy5MjZo1+W/rNvR6PWdOnyZ79hzUql1bHUpoaCgjhg4jNDRUfVeSbGxs6NCpI5/N/pzJU6dSo2ZN7B0sr2oULVaMKlWrsn3bNgwGAydPnCBvvnxUr17dIi4pRYsWNY7x33+xY5wkd5481KhRQx2aqBIlSlDOtTw7d+xAURSOHjlC4SJFqFylijo0US4uLjg7u7Br504ADh44gIuLC+UrlFeHJsrZxRmX0qXZtSN+jFLOzlSoUEEdmqiy5cpSpEhR9u7ZA8D+fftwdS1P2XJl1aGJqlChAnnz5ePQAWM3q72791C1ajWcXZzVoYkqX6E8BQoU4MD+/QDs3bOHylWq4OLiog5NVOUqVciRIydHjxxBURT27NpNrdq1KZFAN8bErpLXqFEDjUbDqZMnMRgM7Nqxk/oNGlC0aFF1aKKqV6+OTqfj5IkTGAwGdu/cSb369SlarJg6NFG169QhMjKSc2fPotfr2bVjJ02aNqFQoULq0ETVql2bmJgYzpw+YxqjUePGFC6c8KGxCanfoAHBwcFcvHCBmJgYdu3cQfPmzXFyclKHJqpJ06Y883rGtatXiYqKYvfOXbRq3YZ8+fKpQxPVuEkTfHx8uHrlCtHR0ezasZOWrVsbr4SmULPmzfH09OSGuzuRkZHs3rWLtm5u5MmTRx2aqFatW3Ng/wG8vb0B8Lh9m85dOpPLio6YLVu14o7HHW7fvk14eDh7d+/GrX17i66aLqVLs+7Hn9DrrW9z3bBRI4YMG6q+2YJWq6Vtu3ZcvHCRRw8fEhwczKGDB+jUpQvZsmVThydIo9HQpl1bLl+6zMMHDwgJDubggYN06tyZ7Nmzq8MTpNVqadfejbNnzvL48WMCAwM5cvgwnbt2wSGFB4nb2Njg1qE9x48d49mzZzx//pwTx4/TuWuXFO/XihvjxPHjeHl54f/cnxPHjtOpS5cUX12PG+Po4cP4+Pjg6+PLmdOn6dy1K7a2turwBNnZ2eHWvj0H9u3j+fPnPPPy4uKFC3Tq0jnFrfzt7Oxw69CeA/v28/z5c7yfPePC+fN07twlxWPYO9jTzq0de/bsITAggCdPnnD16lU6duqU4n0n9vb2tGvfnn179xLg78/Tp0+5euWKVWNky5aNtm5u7N65k6CgIDwfPeL2rZu079AhxSs6OXLkoHWbNuzYvp3Q0FDu37vH/fv3aefmluj7gFr2HDlo06YNO7fvICQkhAf373P/3j3c2rdP8Ri5cuWiZetWbI89EuSOhwdPnz6hTdu2KR4jd+7cNGvRnG1bthIZGcmNGzcI8PenRcuW6lCRCEmCXqNChQpRq3Yttm3dil6v59zZszg4OFC7Th11aKIKFipErdq1TWOcP3cOW1s76tZLee1n0aJFqVqtGtu3GSf+p06eJHfu3NSoWVMdmqgSJUrgWr48O7fHT/wLFS5MFdXE/5uvv+bQwZS3ds2TJw+jP/yQRUsW06NnT4oVL57kC4KzszOly5Rh544dABw6cJCSpUpRoWJFdWiiSjk7U6ZsGXbt2ImiKBw+eIjiJUpQsVIldWiiypQtQ/ESxdmzazfEJg9ly5WlnKurOjRRruXL4+SknvhXxqV0aXVoolxdXSlUuBD79+4DYN+evVSsVJHSZcqoQxNVqXJlHB0dOXzosDF52L2bGjVrULJUKXVooowTfxvTxH/Xzp3Uq1+PYlZM/KtWq4adnT3Hjx2LTR52UbdeXYpZcQ5Lrdq1iIkxJupxE/+GjRpRuEgRdWii6jdoQEhICBfOx038d1o98a9Xvz5hoWGcP3+emJgYdu7cSdNmzShoRTe6xk2a4Ovry5XLqZ/4N2zUCP/n/ly+dCl+jFYtyV8g5eeUNW3WjKdPn3D92nWiIqPYtXMXbdu1JU/evOrQRLVs1Yq7d+5y+9atRCf+yWnRsiX379/n1s2bREREsGfXLtq1b0/u3LnVoQnSaDS0btOamzdvcPfOHcLCwti3dw8dOnZM8cHVGo2GJ0+ecOb0aQAiIiI4cOAAnTp3SvHEPy55uHLlMg/uPyAkJIQD+/Ybx8iRA2Inf/fv3eeGu7v605P1yfTplCmb/N+/TqfDrX17Tp44gddTL/z9/Tl+9Bidu6Z84h83xqmTJ3n69CkB/v4cP3aUzqlJHo4cxdvbGz8/P06fOml98tChPQf2H+C5nx/e3t6cP3eezl1SPvG3tbXFrUMHDh08iJ+vb+wY56wawzjxd7OY+F+5fJmOnV9i4u/pya2bN2nfMeUTfwcHB9q1d2P3zl0EBQXx2PMx7tev07FTpxSPkT1HDtq2bcvOHXET/wfcu3sXtw4pn/hnz56dNm3bsnPHTkKCg3n44AF3PO7g1qF9ir+PnDlz0rJ1a9N5gnfv3MXzkSdt3dql+PtwzO1I8xYt+G/bNiIiIrh18xa+vr60at1aHZooR0dHmrdoyfZt2wgPD+f2rVt4P/OmdZs26tBE5cmThyZNm7JtqzGJcb9+naCgIJq3aK4OTZTxAntDtm01XmC/fOkSMTF6GjZqpA4VCZAk6DUrXrw4lSpXZsd/2zEYDBw7eoyCBQtSpWpVdWiiihUvTuXKlU2rFyeOHyd//gJUq15NHZqoUqVKUbZcWdPqxeFDhyhevLh1E/8yZShRsgS7dxnPPTqwbz9lypbBNXbi//DhQyaMHZfs1UvzF66IiAh69X7HqoSsnKsrhYsUZt/evQDs22v9xL9cuXIWKyD79u6lfPkKlCmb8hWQihUrkidvXlPSt3fPHqpWq4azc8pXQKpWq4aDgwPHjh5DURR27dpJnbp1rTqAsUqVKmTPnsO0ArJ79y5q1a6T4ApIYmrUrImiwOlTp0xJTIOGDSlSNOXJQ7369QgLC+f8uXPxqxdWTvzr1K1LRITZCsjOnTRp2pSCVqyANGzUiAD/AC7FTfx3pnLi/+Qp169dS/XEv0mzpng99eLatWuxKyA7ad2mDXmtWAFp0bIlD+7f52YqJ/4AzVu04NHDh9y4ccO0AtKuvVuKx9BoNLRs1QqP27fx8PAgPDycPXv20L5DB3LlyqUOT5BGo6FN27ZcvXqFB/fvGyf++w/QqVP8xD85cWNcu3qN+/fuERoayoF9++jQqRM5UjhG/ArIBR49ekRwUDCHDhpXL1K6ArJl879cv3bN9HFAQADHjh6lixUT/7jk4fSp0zx58sS4AnLkCF26dDWtgNeoWZN9e/cREBCg/vRE5cmTh2kzPk3x92Fra0v79h04GDvx9/Hx4dzZs3TumvKJv62tLe07tOdI7AqIj48PZ8+cpUvXrikeI371wrgC4uXlxaWLl+jYuVOKx3BwcKCdmxt7du0mMDCQx4+tn/g7ODjg5ubGnt3GMZ48fsy1a9esWr3Inj07bdu1Y9fOnQQHB/Pw4UM8bntYtXqRM2dOWrVpw/ZtsRP/u9ZP/HPkyEHrtm3Y8d9/phWQBw8eWLUCksvRkRYtjclDeHg4t2/f5pnXM1q3TfnEP1euXLRq1YptsWN4eHjg5fWU1m3apPj7yJMnD82aNzMlDzdu3CAwIIDmLVuoQxOVL7+qsuZKaqtzmpjGuHb1KmGhYTRplvLqnAJOTtStV59tW7cSExPDpYsXURRo0DDl1TmFChemZq1abNtmvDieVHWOsCRJ0BugLn06sP8ApUuXxrW8NaVPLji7WJZPWV/6pJ7477N64l+hYsVES5+mTJrE7Vu31J9iUsCpAAMHD2bRksW4lC5tsQJSpUpVnF+i9Gn3rl2Jlj4lplLlyuTK5ciRw+YrIDUpWbKkOjRR1WvUSKelTzusLn1q0LABQUFBXLxwMXb1YgctWrSggBUrIGld+hQVFcWunTtp1bo1+fKnfIxmLZrj+eiRqvSpndWlTx63PfCILVuyduIP0LK1ZenTHitXQDQaDa3btuH6tevci53479+7l46dUz7xjxvj5g137t65a1wB2bOXDp06pXgFRKvVvnTpU9zE/8zpMzx5/JjAgIAXJv7J0Wq1uLm159zZMzz2NJZPHT50mM5drC+fSm3p0/qff+Hhw4fY2tpSvkJ5fH18Y0ufztC5a5cUr16oy6f8fH05ffoUnbsYx8iRIwduHdqzf1/KE6GIiAguXrhgdemTm5vby5c+ubmxd89eAgICePrkibH0qXPnFI+RLVs22sQlD0HBPHr0iNu3b9GhY8cUJw/G0qe2L1/61DYNSp9ateS///4j/A2WPhnHaMF/W7fGroDcxM/Pj5atWqlDE5VXPfG/do3Q0FCaNmumDk1Unrx5adI0dozIKK5fu05ISDDNmluxAlKgAA0aNjBtMbiUihUQdWXNubNnsbe3t6qrWsGCBalTtw5bt2wxVuecP49OZ0O9+vXUoYkqUrQI1WtUZ/u2/9Dr9Zw+dYpcuRypWSvlF4OLlyhOhYoV2fHf9iSrc4QlSYLekIRLn6zb8+BavjwFCxVk/7740qdKlStR2oryqYRLn6yc+CdQ+pQ9R3Z+WvujOhSABg0bMvmTqXwxdy5NmjYhl6PjC6VPu3buTJPSJ2sn/jVr1cRgUDh96pRF+VQRK8qn0nXpU+tWVo3RtFkznjwxXkGNioxi165dtG1r3QrIKyl9ihsjd8rG0Gg0tG7T5qVLn9q0bcuVy5d5YD7x7/SSpU9WroBotVraublx/txZPD09CQoK4vDBQ1btm4hbAblw/jyejx7FjnHQqj0gaVb61D7xiX9KxI1x7OgxvJ8947mfHydPnLRqD8jLlD6tWrmS58+fU6xYMX77fdNL7Xmwt7c3JTr+z/3xemq5ApIzZ046duqIQTFwx+NOggdIlylbhsFDh/LowUNT6dMNd3c6dEp58pB2pU9t4sd48IC7d+7QvkOHFI+RM2dOWrVuzfb/tsWWPt3h8ePHtG2X8uQh3ZQ+5c1L06ZN2bp1C1GRUWlY+hRj1cQ/LfYnx03841YvLqRi4h+3P/m/2DFSvz+5Fv+9xAqIurLm+LFjODk5UbVayitr0mJ/csmSJSlXzpUd241JzJHDhylatBiVKldWhyaqdOnSlCxVkt07E67OEQlQd0oQr9eqlStNnT0quZZPVden1d99ZxqjoqurcvzYcXVIspYuXmIao0qFisr5c+fVIcma98Uc0xjmHcbKxHZf+uLzz5PtUjR/XnzXp+qVqyhXLl9WhyTrsxkzTWPUqlZduXnjhjokWZ/P+szie09N56ipkyabxqhbs1ayP7uawWBQxn74oWmMhnXrKQ8fPlSHJclgMCgTxo4zjdGgTl3lwYMH6rAkxcTEKO+PGGkaIzVdn6KiopTBAweaxmjVvIXi421d16fo6Ghl6KDBpjFaNm2Wqs5Rfd/tYxojNV2fwsLClF7/62kao3OHDkpQoHVdn9Sdozq1t75zlLrrU/eu3VLVOapHt7dMY3Tr3MXqzlFBgYFK5w7xnaN6/a+n1V2f/Pz8lHatW5vG6NfnPau7Pj1//lxp36ataYz3er9r9Rg+3pado1LS9alapcpKmVLOSu+3eymKoiiPHz9WmjRsZBrjg5GjrO769PTpU6VZ4/jOUSOHD39hjLCwMOXP3/9QFn71lTL7s8+UpYuXKMeOHjXd//DhQ6Vh3XqmMcZ9+JHVnaPueHgodWvWMo3xyeQp6pBk3b1zR6lbq7ZpjCkfT1KHJOvmjRtKrWrVTWN8NnOWOiRZVy5fVqpXrmIaY/68L9Uhybp65apSvUp8d9V5c+aqQ5J17uw5pUqFiqYxli5eog5J1vFjx5WKrvEdSVd/9506JFknT5ywGGPVypXqkGQdOnhQqVC2nGmMn9etU4ck6/ChQxZj/LR2rTokWXt271ZcS5cxjbFxwwZ1SLK2/rvFoiPpls3/qkOS9d+2baYxypRyVjb/8486JFl//fGH6fPLuZRWdmzfrg5J1i/rfjaNUb5MWeXg/gPqEBFLkqB0wHzin9p2rwu/+so0RtWKlZSLFy6oQ5I1+zPLib/79evqkGSZT/zLlHJWOrm1V/78/Q+r2mlOm/qJ6fPr1Kip3L51Wx2SpIQm/vfv31eHJclgMCgfT5hgGqN+nTrKvXv31GFJ0uv1ypj3PzCN0aRBQ+Wxp6c6LEkJTfyfPXumDktSdHS0MmLoMNMYzRs3Uby8vNRhSYqMjFQG9O1nGqNNy1aKr6+vOixJ4eHhSu+3e5nG6OjW3uqJf0R4hPJur3dMY7Rv207x9/dXhyUpJCRE+d9bZhP/Tp2VoKAgdViS0qLda1BQkNK1Y6f4Mbr3UEJDQ9VhSfL391dN/HsrEeHWTfwDAgKUDu3cTGO82+sdq8fw9fFRWrdoaRpjYL/+SmRkpDosSSmZ+CfHy8tLad64iWmMEUOHWd3+1vPRI6Vx/QamMT78YLSi1+vVYYoS+zuMixv34Uem2+/dvWsx8Z80caLVCci9e/eU+nXqmMaYOH6C1WOoj2aYMX26OiRZL0z8v5ijDknWtauWRzPMmT1bHZKsC+fPWxzNsHjhInVIsk6dPGlxrMK3K6yf+KuPZljxzXJ1SLKOHjlicazC2jU/qEOSlRYT/7Q4mmH7f/9ZXPT8+6+/1CHJ2rF9u8UYf/1h/dEM//z9t+nzU3s0w4ZffzWN4Vq6jLJv7151SLLURzPs2b1bHZKsn9auNY2R2qMZVnyz3DRGJdfyyulTp9QhQpKg9GP6J/ET/9rVayi3bt1ShyRr5vRPTWPUqlZduXnzpjokSQaDQZk0caJpjHq1rZ/4+/j4WJy707h+A8Xz0SN1WJL0er3y0ZgxpjEa1auvPHpo3RgxMTHKyGHxE/9mjRsrT58+VYclKS3OzoiKilIGDRhgGqNV8xaKr4+POixJEeERSp93Xm7inxZnZ4SFhSlv9/ifaYwuHTtavQISFBSkdOvU2TRGz+7drZ74BwcHK906dzGNkZqzM9QT/95v97IqUVcURfH19VXatGxlGiM1E3/1Ckj/9/paPcazZ8+UFk2amsYYPmSo1RN/72feSsumzUxjDBk4KNkVELXHnp5KkwYNTWOkZgUkLSb+6rMzxn801uoxPG6nbAXk1q1bphj1yoL6TLbZn31mcX9K3HB3V2pWrWYaIzUrIJcvXTKtVpUp5awsmD9fHZKsM6dPW7yuZ+Qz2Q7s228x8f/1F+sn/gcPHHzpM9l27dhpMfH/Y9Pv6pBkpcWZbGmxAvL7xk2m7yO5M9kS88em301jlHMprezasVMdkizzM9lSuwKyetUq0xipPZNtzerv48dIqzPZzpxRhyTry7nzTGOk9ky2zE6SoHRCr9dblD6lZuKf0ArIy5Y+WTvxf/TwkeLn5/fCxD89lD6lZuKvXgFp26qV1eVTaVH6pD40Lz2VPlmbPKgn/qktfTI/NC81pU/qQ/NSNfF/BaVPo0aMsHqMtCh9evTwkdKoXn3TGB+NGZPoCkhi0qL0KS0m/jdv3rQon5o5/VN1SLJSsgJy6OBB0/3rfvpJfbdy9uxZi9KnZUuXqkOSpV4BWbJosTokWerSp+++/VYdkqxXUvr044/qkGTt3rXLYgXk942b1CHJSouJf2Yqffpt/XrTGK6lyyj79+1ThyTrh+/XmMZI7cT/xx9+sBjj6JEj6pBkLV/2jWmMSq7llTOnT6tDkrVg/nzTGKmtzlm0YKFpjNRW58yZPds0RvUqVZVrV6+pQ5I1bcpU0xipKcvP7CQJSkfSYuIfHR2tDB8y1DRGWpQ+tW2VutIn84l/WpQ+dWjnpgQEBKjDkvRC6VMqJv6hoaFKz+7dTWN07djJ+vKpNCh9enHPw8uXPvV55+VLnwb172918qCe+KdF6dPIYWlQ+jQ68dKnxKhLnyZ//LHVCYh6BeTjCdavgKRF6dPtW7eVOjVqmsaY/skn6pBkpUXp0/lz5y2Sh9RM/C9dvGixArLwq6/UIclSlz6pV0DMS18Su/p95PDhl97zcOzoUYsVkB++X6MOSda+vXstkocNv/6qDkmWeuKfmtKntCif+vuvv0yfX86ltLL9v//UIclKi9KnjRs2WIyRkUuf0mJ/8uKFi0xjVK1YSblw3vq9xWmyP3nOXNMY1atUVa5euaoOSdan06aZxkhtdU5a7E+e8vEk0xh1a9VW7t65ow5Jkl6vVz78YLRpjNRU52RmkgSlM6+i9Kl9m7ZWr4CEhYUpb3fvYRojtaVP5hP/9FL6lJo9D4EBgUpHt/amMd7p+bbVKyC+vr5K21bx5VOpKX3y8vJK89KnoYMGWz2GuvRp9Kj3rU8eXkHp04Sx46wew+O2h8XEf9pU6yf+6tKnLz7/XB2SrLRYAVFP/FNT+pQWG8jTovRJvW8iNRP/E8ctV0BWr1qlDkmWuvTJfAXEfMKWVBOXndt3vPSeh107d1mMkZoVkC2b/7VYAdn67xZ1SLLUex4SS/6S8kLp007rx1j300+mMSqULaccOnhQHZKs77791jRGakufvv9udfwYqVwBSS+lT2mxP9l84p/apkJpsT/5k8lTTGOkZgXEYDAo4z78yDRGWjUmsnZ/sl6vV0aPet80Rmr2FqdFY6LMSpKgdEhd+pSaib+6c9RbXbpavQISGBCodGqf/kqf+r7bx+ox0qL0ycfbW2nVvIVpjEEDBlg9xpMnT5SmjV6u9OnBgwfpovTpjodHuix9mvXpDHVIsq5cuWIx8f9y7jx1SLLSovQpLVZA1BP/1JQ+pcUG8rQofUqLif/ePXssV0B++00dkqzEVkDMr9Imt9fvz98tS59Ss+fhrz//tBgjNSsgv/4SX/pUvkzZVJU+pcWeh7VrLEufzDvbpdTyZctMY6Q2efjqy5ef+C9asMA0RnoqffK4bd3EX0mD/ckGg0GZOG68aYz6depYPfFPi/3JabECEh0drQwbPMQ0RmoaE6XF/uTIyEhlUP/+pjFat2iZ7OuNWlo0JsqMJAlKp14sfbJ+z4O/v7/Svm070xipLX2ymPinovRJPfF/k6VP5hP/1JQ+qVdAxrz/gdVjqFdAUlP6pJ74v8nSJ/N9E6kpfVLveUhN16eLFy5YjLFowQJ1SLJOnzplMfFfuXyFOiRZL0z8U1H6lBYrIGlR+pQWG8hf6Pr055/qkGSlxcRfvYF865aXXwHZs3u3qWy4YjnXFP0Nm+95qFC2nHLk8GF1SLJ++vFHizFSswLy7YqXL31S73lITenTkkWLLcZIVemT2dEMb7L0adanM0xjvNHSp9EvN/FX709OzQpITEyMMnL4cNMYqZn4v+z+ZCWNVkAiwiOU93r3No2R2uqc9HA0Q1o0JspsJAlKx9QT/9S0e3327FmmKX26f//+S5c+qSf+qSl9Up+dMXXSZHVIstJiBSTdlD6dOfPSpU/qPQ+p6fqUFmdnqCf+63/+RR2SrBcm/hm49Em9gfzffzarQ5L1QulTKlZA0mLir95AfmDffnVIstQrIHEXd1o0aaoOTZR6z8O5s+fUIcn65uuvTWOkdgUkvZQ+fTZz1kuPkRZnsqXL0qe0OJOtWfNU7S1W70+2dgUkIiJC6dfnPdMYqZn4p5f9ySEhIWnSmCg9HM2QFtU5mYkkQelcWux5UJc+jf3wQ6uTGHXp05ua+KsPzUtV6VMaTPxT0jkqOerSp9QcmqcufUrNngd16VNaHJqX2tKnl+36lBZnZ2zdEj/xL1PK+Y1N/NUrIKnpHKUufUrNxD8tNpCnRelTWuybUG8gP3XypDokWeYrIHH/4g5KTSnzPQ81qlZN1Z6HuV98YRojteVT6tKn1JzJlhalTxPHp48z2cxLn1o0aWr1xD+h0qfUNCYyL31q07JVmpQ+WdtUKC32J4eGhr70xF+9PzktGhOlZgUkLapz0mJ/cloczZAWjYkyC42iKAoiXbt16xbvvt2LwMBAAIoXL06ZcmXVYUkKCw3jwvnzxMTEAODs4kwpZ2d1WJJCgkO4eOECer0egDJlylC8ZAl1WJKCAoO4dPEiBoMBAFdXV4oUK6oOS1JwUBAXL8SPUc7VlaJWjhEYEMDlS5dNY1SoUIFCRQqrw5IUGBDI5UuXTGOUr1CBwlaO4f/cnyuXLxP3Z1ipUiWcChVUhyXJz9eXq1eumj6uUrUq+Qvkt4hJznNfP65evWr6PqpUrUL+AgXUYUny8fbh+rVrpo+rV69Onnx5LWKS88zLixvuN0wf16xVE8fcuS1ikvPM6xk33N1NH9eoWZPceawb4+mTJ9y6ecv0ce3atcnpmMsiJjmejzy54+EBgEajoU7dOmTPkUMdlqTHnp543I4fo3adOuTIad0YDx885N7duwBotVrq1K1LtuzZ1GFJevTwIXfvGMfQaDXUrVuXbNmzq8OSdP/uPR48eACx30e9+vWwd3BQhyXpjocHno88AdDZ6Khfvz62dnbqsCTd9bjDo0ePANDpdNSrXx87e+vG8Lh1m8ePH5s+LuDkROUqlS1ikqTAzRs38PLyAsDOzo569eujs9GpI5N088ZNvJ4+BcDW1pb6DRpYN4YC7tev4+3tDYC9vT316tdHq9OqIxOlKArXr17D19cXAIds2ahXrx4arUYdmqgXxnBwoF79+taNYVC4cuUK/s+fA5A9Rw7q1K2DRpPyMQx6A1cuXyYgIACAnLlyUbt2bUj5EC+OkTMntevUsXqMS5cuERT7nu/o6EjN2rXUYUnSx8Rw8cJFQkJCAMibNy/ValRXhyVJH6Pn0sWLBAcHA5Anb16qWzlGTHQMFy9cIDQ0FID8BQpQpWoVdViSXhgjf36qVKuqDktSdFQ0Fy9cICwsDACnggWpVLmSOixJUZFRXDh/noiICAAKFylC+Qrl1WFJUo9RqHBhKlSsoA5LUmREJBfOnycyMhKAokWLUq68qzosSeFh4Vy4cJ7oqGgARowayceTJ6vDMj1JgjKIy5cu0a/Pe6YXASGEEEIIIV6GnZ0dh44examgk/quTE+SoAzkzOnTfDptOnc8PNDprLjaZ0ZRFKuujCVExrAkY1iSMSzJGJYyyxiKophWxbVaLVptyldPzL3s94GM8YLMMoYC8LJjxE7xZAwjGcOSoiiUKVuG7bt2qe/KEiQJEkIIIax06MBBhgwaBMAXc+fQu08fdYgQQoh0LHWXroQQQogsLCgoyPT/XI6OFvcJIYRI/yQJEkIIIaxkkQTlsq5phhBCiDdPkiAhhBDCSuZJkKOsBAkhRIYjSZAQQghhJUmChBAiY5MkSAghhLBSsCRBQgiRoUkSJIQQQlhJGiMIIUTGJkmQEEIIYaW4JMjO3g57e3v13UIIIdI5SYKEEEIIK8UlQVIKJ4QQGZMkQUIIIYSVgoODAciVS5IgIYTIiCQJEkIIIawkK0FCCJGxSRIkhBBCWCmuO5wkQUIIkTFJEiSEEEJYITIikqioKJAkSAghMixJgoQQQggrSHtsIYTI+CQJEkIIIaxgngTJSpAQQmRMkgQJIYQQVpAkSAghMj5JgoQQQggrWJTD5cplcZ8QQoiMQZIgIYQQwgpxneGQlSAhhMiwJAkSQgghrBASGmL6v6wECSFExiRJkBBCCGEFfYze9H8bWxuL+4QQQmQMkgQJIYQQVtAb4pMgnU5ncZ8QQoiMQZIgIYQQwgoGfXwSpNXK26gQQmRE8uothBBCWEGvN5j+b2Mj5XBCCJERSRIkhBBCWMFgVg6n1Uo5nBBCZESSBAkhhBBWiDFrjKDTyduoEEJkRPLqLYQQQljBYiVIGiMIIUSGJEmQEEIIYQWtVoe9vT22trbYSBIkhBAZkkZRFEV9oxBCCCGEEEJkVrISJIQQQgghhMhSJAkSQgghhBBCZCmSBAkhhBBCCCGyFEmChBBCCCGEEFmKJEFCCCGEEEKILEWSICGEEEIIIUSWIkmQEEIIIYQQIkuRJEgIIYQQQgiRpUgSJIQQQgghhMhSJAkSQgghhBBCZCmSBAkhhBBCCCGyFEmChBBCpJpeb1Df9BoZMLyCL294FYMKIYRIVzSKoijqG4UQInPQExURhf4VvMpptbbY29uob870Ip+c4d9ff2PbwTNcv/OMwAgF21z5KVGhBo3avU3fd9pQxlH9WWlFj9+VHfz913/sPXqZe14+BIRryVWgCCUqNqBN1//Ro1MditqrPy9pet8r7Pz7b7bvPsrle174+oejzVWAwiUq0KBdV3r07ERtawdNUBSe+1fw2doYRv7wMbXVQ+qjiIzSk/YpmBatrS32Nln8umc6enwjzy1gyMJwen8+kc7lsqvvFkK8BpIECSEyrRj3pfyvy9dci1Hf8/KytZjLlZ/eVd+ciYVyfcNMJs37mxtB2XBxG8Kovm2oVsQO/1tH+Pu7b/nrkj82xZvz/vwFvN/YKW1LDUKu89e8aczfdJHg/LV5q+87tKxRglzRPtw6vZM/N+zCPVAhV6XujP9iGu/VypuCrx+C+x/z+PTL37kYlJ9a3fvSq1V1SjjG4HPrNLt+38Du64EojhXpNnEOn/StSd7kB01YuAf/fjGeufvyMGj5MobXyaP6/mK4seQt3vr6Gmn/dM1Gs3mHWPuuk/qOLCS9Pb4h3Px9FuMWXKPG9G+Z2c0ZdU4shHi1JAkSQmRSBjzX9KHdF6eIir3FxrEkFatVoHTxwuTNlZ3sDnZolScc+fkvLgXFvRRqKdykPz1r50aDgj46jKBnD7h26jgXPUMxRtlSa+pufh/hbPpqmVsYl78dwtAFJ3luyEGVkWv4aVID8pjP4iNu8suovsw+4IshmyvvfbOemW3SKBEKPM/KkcNZesIPbcnuLPz1KzqXsFyFi3qwlemDJvL33Sg0OaswaMVapjRP6usHcX75CEYuPslzbUneWryeL7uWwGLUqAds+2Qwk/68S5QmJ1WGLGfNJ80pkPigCTL4nWTF6DH84NOCz1Z/QbfSCUx3DZ6sfbc1c0+Znq3kKlmJahVLU7xQXnLlyI69rQ7l6WF++fMiwaana2Ea9+9FrdwaUPREhwfy7P5VTh+/yOPQ2CDb2kzes4lhzrq4r5b1pMvH14DfsQWMGLOFvB+sZPGQ6uRShwghXh1FCCEyI72P8vugSkqZUs5KuZpvKdN+Oa14RaiDFCXmzkqlZxlnpUyp2H8uDZRpBxMIjPRU9kx3UyqVclbKlGmnLLwUrY7IpPSK755JSsvYx6hSl6XKtQQeHkVRFP3jP5SRtVyUMqWclbLV+ynrPGLUIdbTeyv/fdhQKVfKWSnj0lD5eOdzRa+OiRVxYZHSzdX4fZat+rayKrFvVNEr3ts+Upq4OCtlSpVWmkzYpTxPbNDwC8riTuWNzw3nqso7K68piY2aEL3XLuXTtpWU8o1HK5sfJv546H02KUMrGr+fut2mKr+e9krg68Qod1d2V8rHPVdLOSvl6k9VDoWr4xQl0nO3MqOd8fsu3/Yr5XJWebomIv0+vnrl2a7JSmvXOsrAH64rYeq7hRCvjJXXs4QQIoMIO82x8+FoC7Zg2i/r+aJvXQq9cAHegN+Jk7ib1cdoHOvS+IXNGoBdMdpMnkjnQlq0BevSoHwW2Q8UcoyvP/+LhzGAJj9thvWnUgIPD4C2aFeG9yyDDlACjvL1F7/zWK+Osk7AnvnM3foUA6Ar3YV3WyZe5mZfYxBDWudFAyhBZ/h25o/cjLvwby5gL1/N3spTA6BzoVOfFomXuTnUYOCw1uTVAEowZ1fMYt2NhAZNQOAplo6YyIYHLgz7ej7dSiS+UhB2+igXwrUUbDmdn36dS5+6hV4sjzL4cfKEu1k5lwbHek2o5WARBYBdsbZ8/HEXCmm1ONVriGsWebomJv0+vloKtvuU+UMKcWbecKZufsRL/skIIVIosZd9IYTI0CIvHONcaAn+N2cB/SrnUN8dK4RTxy4QaXZL9tpNqZfT7AZzOWtSo7wNjnUaUf2FGVRmpOfub8v556FxWqbJ0xC35nnVQWbsqNyhDaV1AAqBh1ex5lS4Oijl9A/456fteBkAtDjVa0IlO3WQuby07tmWgrHvbCFnv2fFTn9VjJ4Hf/3ITuOgaJ3q06RykoOSt+3/aBM/KGu+2YV61BfoH7BpwmhWXYyi0rDZvF87qc3vkVw8epbQEj35fMEAKiX2dA0+yfGLFs9WajWpT+JP1xq42jpSu1GNFyf8WUp6f3xzUHv0dHqX9OK/aR+y/HyoOkAI8QpIEiSEyISicD96BqXDx0xsXSDxF7qIcxw/F7fPB8COqo0bkvg03wF7++xUb1SPpKa0mUbUZf74/RxxaUzOeq1olEznN7tKLWkct+Khf8S2X/cSoA5KIf2dLWw5E/fVdbhUKI+tKkYte52GVI+b5CrPObDhXzzNL63r77Dt37Omn0lXujyuyQ9Kg5qmQXm+fwNbHiV1vT4Gj5+nMX+fLxTqzOhhNcmmDjEXdZ1jZxTcJn1MqyQ2HEWeO8b5ELNtvPZVadQo8WcrDg7YZ6tBw3pZ4tmauIzw+Gavx4j3W5E77CKrJi3keKA6QAiR1hJ/NRBCiAwrnED7hoz5sAP5k3iVi7p6jDO+Zg1zbcrTsGmRxF8YDSFEaWvSpFHiJVmvXiQnFg/gvXd60+fd8fx6K+17XcWJurSNPffiJvs2lK1RM/mN23aVqVE5blKoEHBkGweSXTZJiIHnZ85yO+7H02THySl38o97jqpULRNfmxR+bjs7zWryDH5nOGt6zDRkdypI7uQHpWrVMvFNE8LPsWPH40TLlvS31zFryXGCFFsqvTuYlrnVESrhgdg3/IgxHZJI2Ini6vEzWDxdXRvRuEjin2EIiURTsykNE631yyIyxOOrxanTILqW0BHt8SuzV5whTB0ihEhTafGXK4QQ6Uxumo//jHfKJr4HA2K4f+yUxSqBzrkRjUsl8TnaQvT+bi2DSiYR88oZ8Lt9llOnTnH69CUeBaf9qSdGMdwzf3w0eShTvgjJ/+T2uLqWMiUMSvB5jp9NTUlcNLeue5g6+6FxwCGBvRkv0BWhRFGzwKhrnD0TYvow+tZ1POIHxSFlg1K4ZFHiI6O4fuYM8aOaC2Dvyu85HaSAfS26/q+8Zce5hORuwdjPe1MmqQc35h7HT5rvF9FRqlETkn669uHbHwfzRp+u6UFGeXwd6tCtU2l0RHP757n8eC2Fe8+EEKkiSZAQImsyPOP4yVtmm6C1FKzfhIpJbw/JOgz+nD9/J/7x0RXHuVSy03nAhuIuJeL3SCj+XDl3Mz6ZSTED/v6B8QdbKjHEJLb0YsGGggXzmSVrkdy5ccf09Q3+AQTFD0q0PmUraTYFC5LPbLIbeecmdxL4oWLcf+bb7c8wADaVmtOiaNrMkA3PjnHKfNVPW4h6TSshT9e0kT4eXxsqtmluTKoiLrF26RaevaprHEIISYKEEFlU4AlOXjGbxWryULdJzZfc4JyJRF/lsnkXNF0BCjqlbEKvc3Iy67am5+GVKwRaPZmLJjw8Ov5DJYQAf/NN64nRkiNndjSmj/X4ej01XeGPCQsnflSFUP8Ai8YYidHmyEm2+EHR+z7F64WkLIzjv2zieiTG8sEmsRPaNBB44iRXLZ6udWlSU56taSW9PL52letRI4/G2Fjk4Do23UxZki6EsJ4kQUKILCn01HEsmjDlqE2TBom1jcp6DIGP8PSPz1w0jnnJm8LL4jb581scpKp/8tDYYtsq9jg6ZrNIZjwf3DdbuUucrZ3lilVkSKjp8+wcHS2TGc/7PEjJoHa2lk0ZIkIJNcvRAAg7xrY9xnbeaLJTpqJz8qVwKRLKmWPnsXy6NqGePF3TSDp6fO0qUyWu3ydOQZ0AABb3SURBVHa0O/9tvpKKVVQhREpIEiSEyIIiuXzsNAEWjaAa0yC5DexZSMwjT4tSHG22HGRP4TuGJntOspsnGt6ePElJomHBhnKuLmZlbTHcP3/RYuN6wjRoNGZfHMDsYxtXV1zMVmdi7l/gYvKDvjgmGrMEzSjy3EFO+MU+qXQlKVsmhVljciIvc/yMv1kXQ3uqNGmEPF3TSHp6fLUFqFihaOzzXs+Dowe5Y/XfjhAiJVL4liaEEJlIzE1OnDbu2zCyoXzjxhSSV0QTJSiIULMkETuHFJcKarPZY2+eIUSFEBSafKJhSUfxRg1wNktYoi7sZFcqTl+1y57NtCKjK9GQeuaDRl5g144niXZ6S5R9drJZLA3FcOfMBXzifszspShdIm3WgWJuHuN07LlGANhUoFGjQvIGnkbS1+NrQ/HihU1fO+b2Wc76Wfu3I4RIiTfzNy6EEG+Q3vM4J++aXV7VudCwiXMKOp9lIRHhhJslQRqtFl1K3zFsbCzfXJQIwswHSyG7qt3oUsVsNSX8DL98f5Jg86AXxODr7W+W4OooULhw/O/WrirdulUx2/Aeztmfv+dUkOmGBMX4+BBgNhfVFShEYYsnTBg3bjwwld3p8jjhlCY5kB7P4ye4Z/F0bUhj8+Us8RLS2+OrJW9hp/hOhDF3uOGurrsUQqSFlL6lCSFEJmHg+fETXDebV2iL1KdJxTSZsWYeOpvU72dRFLPSIkCjw1anLh5LAZsK9BvX06y5QAz3N0zns38fJrJPIpy7/81h/ubHFklQcef4lt1gQ/n+4/ifWceCmHsb+HTmFh4mPCjhd/5j3tzNPDZPgoq7UNL8AYp5zKPH8QNocuVOwflDKWB4zskT182aOWgp3KApFVL9yxEW0uHjq82bN/65Y3jOY8+k034hROqkxUu0EEJkICGcOnbRrCOYhjz1mlI9pbVer1KUJ+f37Gb3rqT+7ee6T2zxlhLGw3P7Eoix/Hfoqo/6KyUvu4NFSZtiiCEmhVU5hugY9OZZkMaBbDlS93bj2GIyC8bUIlfc9xJ9n80T36bv5O/Zde42T/z9eHT5EFvWLWZy77a8NfUU+txmV/FtXKhaTXW4be7mTFoymlqOpkF58M9Eer87hTU7znP7iT9+jy5zePM6lnzcG7cun3DKkNtspdAG52pVzTrgAfrn+Jk1ksDOHttU5H0vCDnJ8Qtm/es0eanXpEaKSxNFMtLh46vJlgMH03NH4bm3t2WAECJNaBRFsb5GQQghMqqIg3zSfAi/m3b956Lt4sN82yOPKvAN8PuNQQ2ncSSRFYnU0eDUaw0nvmqlviNJMTeW8r/OX3MttkxIW7wf6/Z9TsMUzA71j76nT8u5nIv9XE3+//HtsYW0Scm5pAkxBHDxl1lMXbCF2yGJvGXpHCnbqh/jJjXk7PAB/HjPmChqi/dl3b7ZCXzfBgIu/MLnkxay9XaI5cqViQ7Hsq3oO+FjGpwdwaAf7hn3DmmL8d76fXzWyGzQiL1MbjKcv3yNI9nU+YQ9m4ZR4iWrqiIPTKHVkE3xTSpytWPBke/ong6erplBenx8Lf/2dDgP3cje6XXUYUKIlyRJkBAiS4k6N4eOvdZwP24nvH1jZh36mb6FU7dSkabSURJE0F+MrDeRvRHGD61JZGKuL6FH12Vcj02CbCp/xL//jqX8S5YYRflc48C/f7Pz6BXuPQsiWpedvE7Fca3VkGZuHWnmmpvo05/T8d0feWDMVijW72d2z26c+JX9KB+u7dvC5p1HuHLXm6BoHTnyOlHMtSYNmrvRoYUruaNP84VbH36KfdJoi/flp72zaWT+WEQeYGrTofzhbZxN29SZyu5Nw1/ynKAozs1pT5/vY5MvwL7x5+z7pR/p4ematEgOLxzCqjNp29pM69yTuXPNSyRfRvp8fPW3lvG/jku4GgOgpWi/nzk8u7E6TAjxkiQJEkJkIXpuLetO18VXTBvYbWpOYvufoyidJpOqlxR2hnVfbsYjyVZlBjyP/cmR+zGgcaSyW2eq5VfHmNOSq3ZfJvUor74jaVHn+bJDL9bcif1m7Joz5/RPvJOCK+SRR6bResBvxDXcytXha45825Wc6sA0F8Tej9vx/h+xnf9sKvL+P1sYX/Xlsq/gPR/TfsSfsasFNlQY/TebJ1a13DMVeYJZrfuy3jM2CUqL55X+Fsvf6sTSK6ZnKzUm7WTT+2UyQBOPcP4ZVoOP96RpRp9mCTWk38c35ubX9Oy01JQElRjwKwc+a6AOE0K8JEmChBBZh+Ex695rxewTcRMzG1xH/8WWidVS3wTgtQtn26g6jN0RBrrSDP19B1Nqp9F5NBbC2DW2CaM3x56fYlOFj/77hzEpmH0G/zWchhP2YFxEsqXutH2sH1bilU8s9ffXMqDTbE6GYtzr1eZLtqzuRdGXuaqvv8+PfTsz54TxKE1NnjbM3f4db6sHjbnO0m7dWB5bP2hTcQx/bR1P5eQfrkQZHv9I/1afczJuy4pNed7/exvjq73EoK+NnnsHf+dEbFKYVrT5q9LerZrFYbyplV4f35grC+nWfQU3Y4h9jfqb7ROrqsOEEC8pDV5GhBAigwg8yckrZlemtYWp37h8BkqAXicHatY2ayWtf8Tduylp1RvFXY/78d22dCWpXrvQK0+AMPiy5+vvOW3MVcChKgPGvvVyCRAG/HYv44dTpkGpMmgs3RIa1KYQhfPH366EhWD10UgqgSdPcNVsz762cH0apSAJTR90uLR4lz5930vTf707pE0CRDp+fA3hYUSYLk9rKVCwsGWAECJNpNFLiRBCpH9hp49zLm4+C2jy16dxumgLlx5pyd+iBTXjHh4llLs37pvKCBMXxu2bj0x7LHTFm9Gq8qtYqTJnwG//AuZv8Yptje1AleGzGGp+xlAqGPz2s3DuFlNZn0OV4cwcXtnsjCFzuXApHX8ekf65N3FN/FInjDPHzhP/dNWQr0ETqr3E0zUywJPb7jd54BNu1kL8RZH+j7jlfouHvknHZWxp//imFcU/gMC4B17rhHMZR1WEECItSBIkhMgiIrl87DQBZgXAOWs3oW528xhhTlesE10a58LYrTcGj9Onid33n7jQ05y6YqovomyXt6j1iieW+kf/MGPanzzSY5zMNpvMV6Nrkk0daA39IzZPm85fxkHR5GvGx4s/oEaig9pRvkr5+K8Z4YOXb3IPVhIiL3PidGwpIgA5qd2kHql5uuqfHeGb4W1oWKcpHTq0p3X92jR/9zO2eZgtgwAxTw6ybHhbGtRtRscObrSqW5tmPT5m3VnfzJcMpeHjm7YM+Hk+ITTuG3OoSPVKr/gPSIgsSpIgIUTWEHOL46fjVgoA7KnaqAG5LIJSKTIAz1vXuOp+H7/YbmpEPOH+E8tJZoajLUSnwV0pHru8EXlxPwd9kp4Oh5/ax3E/4wxO49iEfr2rJF5uGPqYK8ePc/FRSKon2QbfQ3w5cga7nhkADTmrjWDpkv64JrxckzIGXw7PHcmsncYGC5pc1Rj2zWL6JTOoY4MGVImbr+ofcPdOSsoHExZz6xin45agAOyr0aBBKp6toWdZOmQkX+9+gOLkSq2GDahVPj+hZ39i4pCZ7Pczfg2D734+6zeCZbvv41CtF+PmLmHJgsn0Kv+Un0cNYuGJIPXIGVqaPb4JiAzw5NbVK9y472s6jyzyyX2exL02JCkaD48H8d3qqjeiQW5ViBAiTUgSJITIEmLuHOCwh1kxl01patQq8HIvggY/zqwaRYd6TXln/GLW/rCQsW+1oE2Xd+n7v3eYfyyDJ0FAzkajGNO2gHE1KPw0/26Obyf8AoMf+/7aF7talI0qg8fTvXjCj7De818mdmpN9z7v0bO1G+//cgtr+4hFPdrJZ/0/4KdrYYCO/A3G8O3aj2lktjfHalGe7JrZnzFrrxMG6ArU54PvfmBi4/zJPle0RdrRtlZs32yDHzeueSb+WCUphrsHDnHH4ulak1oFkvsO1PTc37iI9b51GLvuACdP7OL3DRv4fccRju75kQ/LnWDu/AME6h+zefoUNt3RU6TDPDZsnM8Hfd6iS88BfDhvPf9815YrS7/nsrW/oHQrrR5fSwa/06we6UajJj2ZtPgH1i74iB7NW/HWu314u9c8TqTk5cDgx937frEXBbJRp4MbRV7u2xJCJEL+tIQQmZ/Bn8M//Im7+YYWTW7yv9Skx8CzzdMZPX8njyuNY8O/P7B44XJ+2fw9gwt6cPqGjmKlUnCoTnqnLcZbM2bStbgNEMGFNQvZ8iThdZvgk8v5ZpcfChpyNxzLnJFVEzmfJ4qzaxaz9X7srDDqCfsWfM3uQHVcYsK5t3M+g3qM4dfroSg2Bag1aCkbfxpHw5f4nYbf3cVX/Xvw0S/uhCo25K89iMW/r2NsoxQmy7qidHy7GXk0ADHcuXLFbM9Jyhn8D/HjH9ct9l9p8uTH6txO78mevSG8881KRjcvbvG7yO7cgvdXrmVI8AZ+WL+C5Xt8oPj/mDWvJ86qBS/HWu8zuf4t/jufObKgNHt8zRme8e+0D1iw05OK43/nr7VL+WrFr/y9ZggFPU5xU1eMkomWUpoJPseFuBcqx0Z0bl84Zc89IYTV5G9LCJGpRXpf5q9P+zH+j/jN+gDE3ObIrtup7+Bl8GP/5gP4KVrylC1Pobgd8Q7leGfKIKo6FKVkqUQLwTIUbdHOzF49k7bFbTH47OKzkXPY52k+ITbgf24VH439hTsxGvLUHsWyZUOplGgOqBAcHGpRAqdEBhEUmdwvIwa/S/+waFhn3hq1ilM+GgrUeJtp67fx28zOuCT69ZIW43uJzQuG07XLKFaf9EHjVIOen/7Clk0z6FQ64TQuYVqcOo2gVzlbAELPHeVUmDomKZH4XP6TmX3H8WfsXqQ4MbcOs/u25WOWrOgb3M3Tk/61c6jvMbIrw9sfVeHwFxt5aMhDizEf0jLBc6BscG3iQvCtjL43KI0fXzMG371sOeCLos1LmfLx3RDty/Vm0sBqOBQtRckUvByEnjrIyUAFsMH5f0PpVFCmaUK8KvLXJYTIhGK4/uMH9GzXmAaNujH512uEqE9EU/w4OLMj9Wo1wa1Td94bvTb2cMIUUvzx89cDBrxPHOKqWb2/rlRD6ldzoVRa9fJNB7JX6svyv39havfK2LuvZVT7trw7ajKzZkxjXL8OtHtnPkfDS9Ly/RX8vv5jGjsl9bPb06D3O1Q27UK3o/T/BtAuoVUcQyhe146yZfVsxvRoQcu3xvPt4SBKtBrI9LU72LP5KwY1KJT4vqMEGQj1us6xzd8z5/3/0apZdyauOERQyVb0n/ED2/b9w5dDGlDIukGN7GsxfEoPiutA8T3ErsMp2EsTc51173enQ6O6NO36MRuuBZtt2DdS/A7weYfa1GvShm7de/PR2vgDfxMVFYxNQeckVzhC7t7HK0bBrlJ/PuxeLNFJgdYxFzahoS98XxnCq3p8zSgBfhhfDp5x8uBV014g0FGyYQOqupRKQWvvUE7tPYa/AhrHpgwdmh4aNQiReclhqUIIkSphHJzUiuG/P8OgyUmdSb/z86iKse2TI3ni4YVj2VLkVH9aJhD++AJHDp3kyp2n+IcZsHd0omSlujRt0YDSuZOd6ZmE3jnItv23MZRuTufWrgk0qYji4uI+jN0aRv7CxSlTsTJVatanWbO6OOdO/clDUReW0HfMVsIKFKZE2QpUqlqTes2bU8fZMW3OMzJ4s/XDLkzY5kOO1vPY+f07FEr5w5J2wrczc66OKbPdEu6Up7/D9707M/9MDFXGbuXPsRUSTSYjD87k00cf8GW/gokmSlla2AGmthzKH88MaHLWZeIf6xlRMbauMPIJd7wcKVMq6VcDw+NfGdp+OodDclFvyu/8NKJCIu3YhRBpQZIgIYRIpZjry3i7+xKuRALZqzF6/QbG1pJrtwIMXlsZ/9Y4tvmWY+Qfm5loOnDpNdJ78N2kf6g372NqvjCbNuC9eTRdx+0goHhb2lfNj9usOXRIsPwqiEPTRnCk809Mb/gGfo4MIQb3Zf+j5+LLGF8OPmTdxnHUTPHLQTjn5nTlve/vkL3Rp/z+8yDKJpaRCiHSREKvdkIIIVLAptJQpg2KXf0Ju8zqSQs4luLN/SIz0xbuxGeLB1LB5ibrv/rVohPZa6NzoXW52/z498MXSrtiHm1m9vzd+GoK03HqHD7tHMGSYZ+zI65ZhUkoNzd+wufHy9L6TSRyGYYNFYdOZ0Ds6k/Y5VVM/eooKX05iLy4itm/eEDxLsya318SICFeA1kJEkKIlxF+gaW93mP5lXDABpeB6/hnVqNMWQYnrBXDw3/G0X/SIYp9/Dtrh1dIpFveKxR0grl9ZnCv2QgGdapLyZyhPDi1he+XruXoEw3lBq5hw4ym5MGLbR91Z8IeDdVaNKdWmfzoQp9x+8whjrkbaDL3H77tXSJtygUzsfALS3i3zzKuhhvb8Pf/+V9mNEr61cAQeJKv+gxi7bN6fPLzKgZWSrB4UQiRxiQJEkKIlxR59Rve67WYi2FA9oZ8uusXBpSQ6aIAiOTGulEMmf+Qll9v4PO2Tq+9BCPm4U7mT5jBL2d84leEbApQq99nLJzakZJxpXIh7vw+4yPm/HOb0NiZgSabM23GfsW8YXVTsLFfQCTXvunNu4suYnw5mMl/6weS6MtBuDvrRvVnvntlxn27jGG1HNURQohXRJIgIYSwQsy1X/nxsRtD2pmfHRPJubmdeW+1BzHY0Xj2UX7s9/onuyK9iuTOX1MZNfcGDeasZkb74ok2IHh1IvG6fJwzN7wIty1A2TqNqFEiRwLP0RgC7l7k9IW7hGQrTpWG9XDN+/q/24whhuvr1/K4/VDamnc2jDjHl517s8YjBuyb8NmRdbyXwF4rg+9Jvhk9hp8C2zJ71Sw6l3ph45YQ4hV68a9SCCFEoiJuHWHj3itEW9xqT413ulPZBkBBr7c8g0RkdfaU+d9Cfl3Wgadf9WXwwoN4vfaniD2Fq7WkS6936dW9LbUSTIAAbMhTug7t/teLHh0bSQKUpAhuHd3A/suWrwY41KBX9yrGRNcQQ0wChw9F3f+Xqe9N4FDpSfy2aa4kQEK8AQm/BgohhEiAnqeeT3l6bC9nVIdgahwdyaEBdEVwrZBPXlyFihanxmP47p8V9Cxlh41Gfb/IcPRPefzkCf9v7+5dsoziOA5/1bZMoQxCniEoxIhCsNICowhqMxKcCiyh/oXoZW6OphqiLXzaXMsWpSXIxKDAwanH8n10edCGFkMDN61zXf/D/eP+nPuc+3wY+5g/x0FDWlr25/c46Eznwa3ToCnN6XlczciTwZywAw52xdYnE4C/qGfu+3zqtdE8ezm96cVnPT/fjuVLvSGtvXdy86xVXbbX2Hoy/YMXst29sPxj6rXU5uuZG32aV9ObMmj9R969n069oTU9w7dyZptx0HT0Sgb6Ku4Bgl3kTBDAji1n5Pa1vFg8kqbFlTSfv5H+nkoaaxOpVqdy4PLd3H80lG4nyOH/t/w6w1efZ+nIviytNKd34HrOVRpSG6/mzVRzLt17mAdD3X4oAXuUCALYqfXVTI3PpnKxO22Na1n4OpnJmcVstLTn2OmudLRZ14VSrK9+zsRsJX3dh9O4tpBvk58ys7iR1vbjOdXVkUPGAexpIggAACiKj7QAAEBRRBAAAFAUEQQAABRFBAEAAEURQQAAQFFEEAAAUBQRBAAAFEUEAQAARRFBAABAUUQQAABQFBEEAAAURQQBAABFEUEAAEBRRBAAAFAUEQQAABRFBAEAAEURQQAAQFFEEAAAUBQRBAAAFEUEAQAARRFBAABAUUQQAABQlF81IwnWLICaAgAAAABJRU5ErkJggg==;opacity=40;movable=0;resizable=0;rotatable=0;deletable=0;editable=0;locked=1;connectable=0;" vertex="1" parent="1">
          <mxGeometry x="-52" y="210" width="833" height="595" as="geometry" />
        </mxCell>
        <mxCell id="KzNhbVtvtu-OdBiYRIAu-2" value="" style="endArrow=none;html=1;rounded=0;" edge="1" parent="1">
          <mxGeometry width="50" height="50" relative="1" as="geometry">
            <mxPoint x="40" y="680" as="sourcePoint" />
            <mxPoint x="40" y="300" as="targetPoint" />
          </mxGeometry>
        </mxCell>
        <mxCell id="KzNhbVtvtu-OdBiYRIAu-3" value="" style="endArrow=none;html=1;rounded=0;" edge="1" parent="1">
          <mxGeometry width="50" height="50" relative="1" as="geometry">
            <mxPoint x="214" y="680" as="sourcePoint" />
            <mxPoint x="214" y="300" as="targetPoint" />
          </mxGeometry>
        </mxCell>
        <mxCell id="KzNhbVtvtu-OdBiYRIAu-4" value="" style="endArrow=none;html=1;rounded=0;" edge="1" parent="1">
          <mxGeometry width="50" height="50" relative="1" as="geometry">
            <mxPoint x="40" y="680" as="sourcePoint" />
            <mxPoint x="710" y="680" as="targetPoint" />
          </mxGeometry>
        </mxCell>
        <mxCell id="KzNhbVtvtu-OdBiYRIAu-5" value="" style="endArrow=none;html=1;rounded=0;" edge="1" parent="1">
          <mxGeometry width="50" height="50" relative="1" as="geometry">
            <mxPoint x="60" y="700" as="sourcePoint" />
            <mxPoint x="730" y="700" as="targetPoint" />
          </mxGeometry>
        </mxCell>
        <mxCell id="KzNhbVtvtu-OdBiYRIAu-6" value="" style="endArrow=none;html=1;rounded=0;" edge="1" parent="1">
          <mxGeometry width="50" height="50" relative="1" as="geometry">
            <mxPoint x="40" y="680" as="sourcePoint" />
            <mxPoint x="60" y="700" as="targetPoint" />
          </mxGeometry>
        </mxCell>
        <mxCell id="KzNhbVtvtu-OdBiYRIAu-7" value="" style="endArrow=none;html=1;rounded=0;" edge="1" parent="1">
          <mxGeometry width="50" height="50" relative="1" as="geometry">
            <mxPoint x="60" y="680" as="sourcePoint" />
            <mxPoint x="80" y="700" as="targetPoint" />
          </mxGeometry>
        </mxCell>
        <mxCell id="KzNhbVtvtu-OdBiYRIAu-8" value="" style="endArrow=none;html=1;rounded=0;" edge="1" parent="1">
          <mxGeometry width="50" height="50" relative="1" as="geometry">
            <mxPoint x="80" y="680" as="sourcePoint" />
            <mxPoint x="100" y="700" as="targetPoint" />
          </mxGeometry>
        </mxCell>
        <mxCell id="KzNhbVtvtu-OdBiYRIAu-9" value="" style="endArrow=none;html=1;rounded=0;" edge="1" parent="1">
          <mxGeometry width="50" height="50" relative="1" as="geometry">
            <mxPoint x="100" y="680" as="sourcePoint" />
            <mxPoint x="120" y="700" as="targetPoint" />
          </mxGeometry>
        </mxCell>
        <mxCell id="KzNhbVtvtu-OdBiYRIAu-10" value="" style="endArrow=none;html=1;rounded=0;" edge="1" parent="1">
          <mxGeometry width="50" height="50" relative="1" as="geometry">
            <mxPoint x="120" y="680" as="sourcePoint" />
            <mxPoint x="140" y="700" as="targetPoint" />
          </mxGeometry>
        </mxCell>
        <mxCell id="KzNhbVtvtu-OdBiYRIAu-11" value="" style="endArrow=none;html=1;rounded=0;" edge="1" parent="1">
          <mxGeometry width="50" height="50" relative="1" as="geometry">
            <mxPoint x="140" y="680" as="sourcePoint" />
            <mxPoint x="160" y="700" as="targetPoint" />
          </mxGeometry>
        </mxCell>
        <mxCell id="KzNhbVtvtu-OdBiYRIAu-12" value="" style="endArrow=none;html=1;rounded=0;" edge="1" parent="1">
          <mxGeometry width="50" height="50" relative="1" as="geometry">
            <mxPoint x="160" y="680" as="sourcePoint" />
            <mxPoint x="180" y="700" as="targetPoint" />
          </mxGeometry>
        </mxCell>
        <mxCell id="KzNhbVtvtu-OdBiYRIAu-13" value="" style="endArrow=none;html=1;rounded=0;" edge="1" parent="1">
          <mxGeometry width="50" height="50" relative="1" as="geometry">
            <mxPoint x="180" y="680" as="sourcePoint" />
            <mxPoint x="200" y="700" as="targetPoint" />
          </mxGeometry>
        </mxCell>
        <mxCell id="KzNhbVtvtu-OdBiYRIAu-14" value="" style="endArrow=none;html=1;rounded=0;" edge="1" parent="1">
          <mxGeometry width="50" height="50" relative="1" as="geometry">
            <mxPoint x="200" y="680" as="sourcePoint" />
            <mxPoint x="220" y="700" as="targetPoint" />
          </mxGeometry>
        </mxCell>
        <mxCell id="KzNhbVtvtu-OdBiYRIAu-15" value="" style="endArrow=none;html=1;rounded=0;" edge="1" parent="1">
          <mxGeometry width="50" height="50" relative="1" as="geometry">
            <mxPoint x="220" y="680" as="sourcePoint" />
            <mxPoint x="240" y="700" as="targetPoint" />
          </mxGeometry>
        </mxCell>
        <mxCell id="KzNhbVtvtu-OdBiYRIAu-16" value="" style="endArrow=none;html=1;rounded=0;" edge="1" parent="1">
          <mxGeometry width="50" height="50" relative="1" as="geometry">
            <mxPoint x="240" y="680" as="sourcePoint" />
            <mxPoint x="260" y="700" as="targetPoint" />
          </mxGeometry>
        </mxCell>
        <mxCell id="KzNhbVtvtu-OdBiYRIAu-17" value="" style="endArrow=none;html=1;rounded=0;" edge="1" parent="1">
          <mxGeometry width="50" height="50" relative="1" as="geometry">
            <mxPoint x="260" y="680" as="sourcePoint" />
            <mxPoint x="280" y="700" as="targetPoint" />
          </mxGeometry>
        </mxCell>
        <mxCell id="KzNhbVtvtu-OdBiYRIAu-18" value="" style="endArrow=none;html=1;rounded=0;" edge="1" parent="1">
          <mxGeometry width="50" height="50" relative="1" as="geometry">
            <mxPoint x="280" y="680" as="sourcePoint" />
            <mxPoint x="300" y="700" as="targetPoint" />
          </mxGeometry>
        </mxCell>
        <mxCell id="KzNhbVtvtu-OdBiYRIAu-19" value="" style="endArrow=none;html=1;rounded=0;" edge="1" parent="1">
          <mxGeometry width="50" height="50" relative="1" as="geometry">
            <mxPoint x="300" y="680" as="sourcePoint" />
            <mxPoint x="320" y="700" as="targetPoint" />
          </mxGeometry>
        </mxCell>
        <mxCell id="KzNhbVtvtu-OdBiYRIAu-20" value="" style="endArrow=none;html=1;rounded=0;" edge="1" parent="1">
          <mxGeometry width="50" height="50" relative="1" as="geometry">
            <mxPoint x="320" y="680" as="sourcePoint" />
            <mxPoint x="340" y="700" as="targetPoint" />
          </mxGeometry>
        </mxCell>
        <mxCell id="KzNhbVtvtu-OdBiYRIAu-21" value="" style="endArrow=none;html=1;rounded=0;" edge="1" parent="1">
          <mxGeometry width="50" height="50" relative="1" as="geometry">
            <mxPoint x="340" y="680" as="sourcePoint" />
            <mxPoint x="360" y="700" as="targetPoint" />
          </mxGeometry>
        </mxCell>
        <mxCell id="KzNhbVtvtu-OdBiYRIAu-22" value="" style="endArrow=none;html=1;rounded=0;" edge="1" parent="1">
          <mxGeometry width="50" height="50" relative="1" as="geometry">
            <mxPoint x="360" y="680" as="sourcePoint" />
            <mxPoint x="380" y="700" as="targetPoint" />
          </mxGeometry>
        </mxCell>
        <mxCell id="KzNhbVtvtu-OdBiYRIAu-23" value="" style="endArrow=none;html=1;rounded=0;" edge="1" parent="1">
          <mxGeometry width="50" height="50" relative="1" as="geometry">
            <mxPoint x="380" y="680" as="sourcePoint" />
            <mxPoint x="400" y="700" as="targetPoint" />
          </mxGeometry>
        </mxCell>
        <mxCell id="KzNhbVtvtu-OdBiYRIAu-24" value="" style="endArrow=none;html=1;rounded=0;" edge="1" parent="1">
          <mxGeometry width="50" height="50" relative="1" as="geometry">
            <mxPoint x="400" y="680" as="sourcePoint" />
            <mxPoint x="420" y="700" as="targetPoint" />
          </mxGeometry>
        </mxCell>
        <mxCell id="KzNhbVtvtu-OdBiYRIAu-25" value="" style="endArrow=none;html=1;rounded=0;" edge="1" parent="1">
          <mxGeometry width="50" height="50" relative="1" as="geometry">
            <mxPoint x="420" y="680" as="sourcePoint" />
            <mxPoint x="440" y="700" as="targetPoint" />
          </mxGeometry>
        </mxCell>
        <mxCell id="KzNhbVtvtu-OdBiYRIAu-26" value="" style="endArrow=none;html=1;rounded=0;" edge="1" parent="1">
          <mxGeometry width="50" height="50" relative="1" as="geometry">
            <mxPoint x="440" y="680" as="sourcePoint" />
            <mxPoint x="460" y="700" as="targetPoint" />
          </mxGeometry>
        </mxCell>
        <mxCell id="KzNhbVtvtu-OdBiYRIAu-27" value="" style="endArrow=none;html=1;rounded=0;" edge="1" parent="1">
          <mxGeometry width="50" height="50" relative="1" as="geometry">
            <mxPoint x="460" y="680" as="sourcePoint" />
            <mxPoint x="480" y="700" as="targetPoint" />
          </mxGeometry>
        </mxCell>
        <mxCell id="KzNhbVtvtu-OdBiYRIAu-28" value="" style="endArrow=none;html=1;rounded=0;" edge="1" parent="1">
          <mxGeometry width="50" height="50" relative="1" as="geometry">
            <mxPoint x="480" y="680" as="sourcePoint" />
            <mxPoint x="500" y="700" as="targetPoint" />
          </mxGeometry>
        </mxCell>
        <mxCell id="KzNhbVtvtu-OdBiYRIAu-29" value="" style="endArrow=none;html=1;rounded=0;" edge="1" parent="1">
          <mxGeometry width="50" height="50" relative="1" as="geometry">
            <mxPoint x="500" y="680" as="sourcePoint" />
            <mxPoint x="520" y="700" as="targetPoint" />
          </mxGeometry>
        </mxCell>
        <mxCell id="KzNhbVtvtu-OdBiYRIAu-30" value="" style="endArrow=none;html=1;rounded=0;" edge="1" parent="1">
          <mxGeometry width="50" height="50" relative="1" as="geometry">
            <mxPoint x="520" y="680" as="sourcePoint" />
            <mxPoint x="540" y="700" as="targetPoint" />
          </mxGeometry>
        </mxCell>
        <mxCell id="KzNhbVtvtu-OdBiYRIAu-31" value="" style="endArrow=none;html=1;rounded=0;" edge="1" parent="1">
          <mxGeometry width="50" height="50" relative="1" as="geometry">
            <mxPoint x="540" y="680" as="sourcePoint" />
            <mxPoint x="560" y="700" as="targetPoint" />
          </mxGeometry>
        </mxCell>
        <mxCell id="KzNhbVtvtu-OdBiYRIAu-32" value="" style="endArrow=none;html=1;rounded=0;" edge="1" parent="1">
          <mxGeometry width="50" height="50" relative="1" as="geometry">
            <mxPoint x="560" y="680" as="sourcePoint" />
            <mxPoint x="580" y="700" as="targetPoint" />
          </mxGeometry>
        </mxCell>
        <mxCell id="KzNhbVtvtu-OdBiYRIAu-33" value="" style="endArrow=none;html=1;rounded=0;" edge="1" parent="1">
          <mxGeometry width="50" height="50" relative="1" as="geometry">
            <mxPoint x="580" y="680" as="sourcePoint" />
            <mxPoint x="600" y="700" as="targetPoint" />
          </mxGeometry>
        </mxCell>
        <mxCell id="KzNhbVtvtu-OdBiYRIAu-34" value="" style="endArrow=none;html=1;rounded=0;" edge="1" parent="1">
          <mxGeometry width="50" height="50" relative="1" as="geometry">
            <mxPoint x="600" y="680" as="sourcePoint" />
            <mxPoint x="620" y="700" as="targetPoint" />
          </mxGeometry>
        </mxCell>
        <mxCell id="KzNhbVtvtu-OdBiYRIAu-35" value="" style="endArrow=none;html=1;rounded=0;" edge="1" parent="1">
          <mxGeometry width="50" height="50" relative="1" as="geometry">
            <mxPoint x="620" y="680" as="sourcePoint" />
            <mxPoint x="640" y="700" as="targetPoint" />
          </mxGeometry>
        </mxCell>
        <mxCell id="KzNhbVtvtu-OdBiYRIAu-36" value="" style="endArrow=none;html=1;rounded=0;" edge="1" parent="1">
          <mxGeometry width="50" height="50" relative="1" as="geometry">
            <mxPoint x="640" y="680" as="sourcePoint" />
            <mxPoint x="660" y="700" as="targetPoint" />
          </mxGeometry>
        </mxCell>
        <mxCell id="KzNhbVtvtu-OdBiYRIAu-37" value="" style="endArrow=none;html=1;rounded=0;" edge="1" parent="1">
          <mxGeometry width="50" height="50" relative="1" as="geometry">
            <mxPoint x="660" y="680" as="sourcePoint" />
            <mxPoint x="680" y="700" as="targetPoint" />
          </mxGeometry>
        </mxCell>
        <mxCell id="KzNhbVtvtu-OdBiYRIAu-38" value="" style="endArrow=none;html=1;rounded=0;" edge="1" parent="1">
          <mxGeometry width="50" height="50" relative="1" as="geometry">
            <mxPoint x="680" y="680" as="sourcePoint" />
            <mxPoint x="700" y="700" as="targetPoint" />
          </mxGeometry>
        </mxCell>
        <mxCell id="KzNhbVtvtu-OdBiYRIAu-39" value="" style="endArrow=none;html=1;rounded=0;" edge="1" parent="1">
          <mxGeometry width="50" height="50" relative="1" as="geometry">
            <mxPoint x="700" y="680" as="sourcePoint" />
            <mxPoint x="720" y="700" as="targetPoint" />
          </mxGeometry>
        </mxCell>
        <mxCell id="KzNhbVtvtu-OdBiYRIAu-41" value="" style="endArrow=none;html=1;rounded=0;" edge="1" parent="1">
          <mxGeometry width="50" height="50" relative="1" as="geometry">
            <mxPoint x="40" y="318" as="sourcePoint" />
            <mxPoint x="214" y="318" as="targetPoint" />
          </mxGeometry>
        </mxCell>
        <mxCell id="KzNhbVtvtu-OdBiYRIAu-42" value="" style="endArrow=none;html=1;rounded=0;" edge="1" parent="1">
          <mxGeometry width="50" height="50" relative="1" as="geometry">
            <mxPoint x="40" y="365" as="sourcePoint" />
            <mxPoint x="214" y="365" as="targetPoint" />
          </mxGeometry>
        </mxCell>
        <mxCell id="KzNhbVtvtu-OdBiYRIAu-43" value="" style="endArrow=none;html=1;rounded=0;" edge="1" parent="1">
          <mxGeometry width="50" height="50" relative="1" as="geometry">
            <mxPoint x="40" y="414" as="sourcePoint" />
            <mxPoint x="214" y="414" as="targetPoint" />
          </mxGeometry>
        </mxCell>
        <mxCell id="KzNhbVtvtu-OdBiYRIAu-44" value="" style="endArrow=none;html=1;rounded=0;" edge="1" parent="1">
          <mxGeometry width="50" height="50" relative="1" as="geometry">
            <mxPoint x="40" y="461" as="sourcePoint" />
            <mxPoint x="214" y="461" as="targetPoint" />
          </mxGeometry>
        </mxCell>
        <mxCell id="KzNhbVtvtu-OdBiYRIAu-45" value="" style="endArrow=none;html=1;rounded=0;" edge="1" parent="1">
          <mxGeometry width="50" height="50" relative="1" as="geometry">
            <mxPoint x="40" y="508.26" as="sourcePoint" />
            <mxPoint x="214" y="508.26" as="targetPoint" />
          </mxGeometry>
        </mxCell>
        <mxCell id="KzNhbVtvtu-OdBiYRIAu-46" value="" style="endArrow=none;html=1;rounded=0;" edge="1" parent="1">
          <mxGeometry width="50" height="50" relative="1" as="geometry">
            <mxPoint x="40" y="556" as="sourcePoint" />
            <mxPoint x="214" y="556" as="targetPoint" />
          </mxGeometry>
        </mxCell>
        <mxCell id="KzNhbVtvtu-OdBiYRIAu-47" value="" style="endArrow=none;html=1;rounded=0;" edge="1" parent="1">
          <mxGeometry width="50" height="50" relative="1" as="geometry">
            <mxPoint x="40" y="604" as="sourcePoint" />
            <mxPoint x="214" y="604" as="targetPoint" />
          </mxGeometry>
        </mxCell>
        <mxCell id="KzNhbVtvtu-OdBiYRIAu-48" value="" style="endArrow=none;html=1;rounded=0;" edge="1" parent="1">
          <mxGeometry width="50" height="50" relative="1" as="geometry">
            <mxPoint x="40" y="652" as="sourcePoint" />
            <mxPoint x="214" y="652" as="targetPoint" />
          </mxGeometry>
        </mxCell>
        <mxCell id="KzNhbVtvtu-OdBiYRIAu-49" value="&lt;font style=&quot;font-size: 27px;&quot;&gt;x&lt;/font&gt;" style="edgeLabel;html=1;align=center;verticalAlign=middle;resizable=0;points=[];" vertex="1" connectable="0" parent="KzNhbVtvtu-OdBiYRIAu-48">
          <mxGeometry x="0.2748" relative="1" as="geometry">
            <mxPoint as="offset" />
          </mxGeometry>
        </mxCell>
      </root>
    </mxGraphModel>
  </diagram>
</mxfile>
